<svg version="1.1" xmlns="http://www.w3.org/2000/svg" xmlns:xlink="http://www.w3.org/1999/xlink" width="143.5" height="191.5" viewBox="0,0,143.5,191.5"><defs><linearGradient x1="240.3904" y1="113.58441" x2="240.3904" y2="177.63539" gradientUnits="userSpaceOnUse" id="color-1"><stop offset="0" stop-color="#000000"/><stop offset="1" stop-color="#ff0000"/></linearGradient><linearGradient x1="240.38823" y1="179.29686" x2="240.38823" y2="243.34785" gradientUnits="userSpaceOnUse" id="color-2"><stop offset="0" stop-color="#ff4600"/><stop offset="1" stop-color="#000000"/></linearGradient><radialGradient cx="240.72402" cy="178.94107" r="13.07245" gradientUnits="userSpaceOnUse" id="color-3"><stop offset="0" stop-color="#000000"/><stop offset="1" stop-color="#000cff"/></radialGradient></defs><g transform="translate(-170.53445,-87.36996)"><g data-paper-data="{&quot;isPaintingLayer&quot;:true}" fill-rule="nonzero" stroke-linejoin="miter" stroke-miterlimit="10" stroke-dasharray="" stroke-dashoffset="0" style="mix-blend-mode: normal"><g><path d="M223.31654,192.61957l4.2159,-5.19961" data-paper-data="{&quot;origPos&quot;:null,&quot;index&quot;:null}" fill="none" stroke="#855d08" stroke-width="3.5" stroke-linecap="round"/><path d="M244.73145,187.09327l4.2159,5.19961" data-paper-data="{&quot;origPos&quot;:null,&quot;index&quot;:null}" fill="none" stroke="#855d08" stroke-width="3.5" stroke-linecap="round"/><path d="M235.74388,188.60086l-0.01253,5.1679" data-paper-data="{&quot;origPos&quot;:null,&quot;index&quot;:null,&quot;origRot&quot;:0}" fill="none" stroke="#855d08" stroke-width="3.5" stroke-linecap="round"/><path d="M174.78445,275.28663c0,0 -4,-5.34526 -4,-10.89999c0,-16.66422 0,-97.96444 0,-160.66667c0,-6.28323 4.33334,-11.76667 4.33334,-11.76667c0,0 5.11759,-4.33334 11.16666,-4.33334c44.09971,0 96.02357,0 113,0c5.65881,0 11.16666,5.33334 11.16666,5.33334c0,0 3.33334,4.28019 3.33334,10.43334c0,62.31197 0,141.44139 0,159.66666c0,6.07509 -2.66667,10.9 -2.66667,10.9c0,0 -6.17452,4.66666 -11.83333,4.66666c-16.97643,0 -69.10355,0 -113.33334,0c-5.91898,0 -11.16666,-3.33333 -11.16666,-3.33333z" fill="#ffffff" stroke="#000000" stroke-width="0.5" stroke-linecap="butt"/><g data-paper-data="{&quot;origPos&quot;:null}" fill="none" stroke="#000000" stroke-width="0.5" stroke-linecap="round"><g data-paper-data="{&quot;origPos&quot;:null}"><path d="M186.24286,103.95444v29.44268" data-paper-data="{&quot;origPos&quot;:null}"/><path d="M215.68169,103.95059h-29.44268" data-paper-data="{&quot;origPos&quot;:null,&quot;origRot&quot;:0}"/><path d="M186.84904,132.90637l28.68835,-28.68835" data-paper-data="{&quot;origPos&quot;:null,&quot;origRot&quot;:0}"/></g><g data-paper-data="{&quot;origPos&quot;:null,&quot;origRot&quot;:0}"><path d="M201.2891,118.55492v-14.60375" data-paper-data="{&quot;origPos&quot;:null}"/><path d="M201.29106,118.55683h-15.05333" data-paper-data="{&quot;origPos&quot;:null,&quot;origRot&quot;:0}"/><path d="M186.31152,118.42419l14.66765,-14.22959" data-paper-data="{&quot;origPos&quot;:null,&quot;origRot&quot;:0}"/></g></g><path d="M186.03769,260.03067v-155.96943h112.59825v155.96944z" data-paper-data="{&quot;origPos&quot;:null}" fill="none" stroke="#000000" stroke-width="0.5" stroke-linecap="butt"/><g data-paper-data="{&quot;origPos&quot;:null,&quot;origRot&quot;:0}" fill="none" stroke="#000000" stroke-width="0.5" stroke-linecap="round"><g data-paper-data="{&quot;origPos&quot;:null}"><path d="M269.38702,103.95537h29.44269" data-paper-data="{&quot;origPos&quot;:null}"/><path d="M298.83356,133.3942v-29.44268" data-paper-data="{&quot;origPos&quot;:null,&quot;origRot&quot;:0}"/><path d="M298.56613,133.2499l-28.68834,-28.68835" data-paper-data="{&quot;origPos&quot;:null,&quot;origRot&quot;:0}"/></g><g data-paper-data="{&quot;origPos&quot;:null,&quot;origRot&quot;:0}"><path d="M298.83297,119.00159h-14.60375" data-paper-data="{&quot;origPos&quot;:null}"/><path d="M284.22731,119.00356v-15.05333" data-paper-data="{&quot;origPos&quot;:null,&quot;origRot&quot;:0}"/><path d="M298.58955,118.69167l-14.22959,-14.66765" data-paper-data="{&quot;origPos&quot;:null,&quot;origRot&quot;:0}"/></g></g><g data-paper-data="{&quot;origPos&quot;:null,&quot;origRot&quot;:0}" fill="none" stroke="#000000" stroke-width="0.5" stroke-linecap="round"><g data-paper-data="{&quot;origPos&quot;:null}"><path d="M298.82551,259.99393v-29.44269" data-paper-data="{&quot;origPos&quot;:null}"/><path d="M298.82936,259.99778h-29.44268" data-paper-data="{&quot;origPos&quot;:null,&quot;origRot&quot;:0}"/><path d="M298.21933,231.042l-28.68835,28.68835" data-paper-data="{&quot;origPos&quot;:null,&quot;origRot&quot;:0}"/></g><g data-paper-data="{&quot;origPos&quot;:null,&quot;origRot&quot;:0}"><path d="M283.77927,245.39345v14.60375" data-paper-data="{&quot;origPos&quot;:null}"/><path d="M298.83063,245.39155h-15.05333" data-paper-data="{&quot;origPos&quot;:null,&quot;origRot&quot;:0}"/><path d="M284.0892,259.75378l14.66765,-14.22959" data-paper-data="{&quot;origPos&quot;:null,&quot;origRot&quot;:0}"/></g></g><g data-paper-data="{&quot;origPos&quot;:null,&quot;origRot&quot;:0}" fill="none" stroke="#000000" stroke-width="0.5" stroke-linecap="round"><g data-paper-data="{&quot;origPos&quot;:null}"><path d="M215.36547,259.98974h-29.44268" data-paper-data="{&quot;origPos&quot;:null}"/><path d="M185.91894,259.99359v-29.44269" data-paper-data="{&quot;origPos&quot;:null,&quot;origRot&quot;:0}"/><path d="M186.18637,230.69521l28.68835,28.68835" data-paper-data="{&quot;origPos&quot;:null,&quot;origRot&quot;:0}"/></g><g data-paper-data="{&quot;origPos&quot;:null,&quot;origRot&quot;:0}"><path d="M185.91952,244.9435h14.60375" data-paper-data="{&quot;origPos&quot;:null}"/><path d="M200.52518,244.94152v15.05333" data-paper-data="{&quot;origPos&quot;:null,&quot;origRot&quot;:0}"/><path d="M186.16295,245.25343l14.22959,14.66765" data-paper-data="{&quot;origPos&quot;:null,&quot;origRot&quot;:0}"/></g></g><path d="M215.85139,177.63539l24.53901,-64.05097h0.83183l23.70718,64.05097z" data-paper-data="{&quot;origPos&quot;:null}" fill="url(#color-1)" stroke="#000000" stroke-width="2.5" stroke-linecap="butt"/><path d="M264.92724,179.29686l-24.53901,64.05097h-0.83183c0,0 -0.37048,-1.00094 -0.60761,-1.6416c-0.71138,-1.92197 -23.09957,-62.40937 -23.09957,-62.40937z" data-paper-data="{&quot;origPos&quot;:null,&quot;origRot&quot;:0}" fill="url(#color-2)" stroke="#000000" stroke-width="2.5" stroke-linecap="butt"/><path d="M263.93766,179.10526c-4.12687,5.9201 -10.79754,13.06672 -24.11698,13.06672c-11.57895,0 -24.10888,-12.66069 -24.11456,-12.87966c-0.00189,-0.07299 -0.00242,-0.11405 -0.00242,-0.18707c0,-0.54735 -0.10917,-0.90417 0.13558,-1.39376c0.70757,-1.41539 12.87678,-11.67297 23.9814,-11.67297c0,0 5.76473,0.20104 11.34565,2.32626c0,0 15.61476,6.66149 12.77133,10.74046z" data-paper-data="{&quot;origPos&quot;:null}" fill="#ffffff" stroke="#000000" stroke-width="0.5" stroke-linecap="butt"/><path d="M227.65157,178.94107c0,-7.21971 5.85273,-13.07245 13.07245,-13.07245c7.21971,0 13.07245,5.85273 13.07245,13.07245c0,7.21971 -5.85273,13.07245 -13.07245,13.07245c-7.21971,0 -13.07245,-5.85273 -13.07245,-13.07245z" data-paper-data="{&quot;origPos&quot;:null}" fill="url(#color-3)" stroke="#000000" stroke-width="0.5" stroke-linecap="butt"/><path d="M240.78494,191.6681c0,0 0.42912,-4.62604 -3.92352,-8.74486c-3.04125,-2.87788 -9.41574,-3.3132 -9.41574,-3.3132c0,0 6.00356,0.1301 9.49536,-3.50163c3.14263,-3.26856 3.41617,-9.72786 3.41617,-9.72786c0,0 0.01445,6.69734 3.22466,9.73511c3.43549,3.25094 9.61602,3.01544 9.61602,3.01544c0,0 -5.92169,0.17544 -9.25234,3.63956c-3.30379,3.43618 -3.16062,8.89745 -3.16062,8.89745z" data-paper-data="{&quot;origPos&quot;:null,&quot;origRot&quot;:0}" fill="#0090ff" stroke="#000000" stroke-width="0.5" stroke-linecap="butt"/><text transform="translate(221.19571,257.84409) scale(0.18863,0.18863)" font-size="40" xml:space="preserve" data-paper-data="{&quot;origPos&quot;:null}" fill="#000000" fill-rule="nonzero" stroke="none" stroke-width="1" stroke-linecap="butt" stroke-linejoin="miter" stroke-miterlimit="10" stroke-dasharray="" stroke-dashoffset="0" font-family="Sans Serif" font-weight="normal" text-anchor="start" style="mix-blend-mode: normal"><tspan x="0" dy="0">O+O+O+O</tspan></text><text transform="translate(296.26177,174.84797) rotate(-90) scale(0.18863,0.18863)" font-size="40" xml:space="preserve" data-paper-data="{&quot;origPos&quot;:null,&quot;origRot&quot;:-45}" fill="#000000" fill-rule="nonzero" stroke="none" stroke-width="1" stroke-linecap="butt" stroke-linejoin="miter" stroke-miterlimit="10" stroke-dasharray="" stroke-dashoffset="0" font-family="Sans Serif" font-weight="normal" text-anchor="start" style="mix-blend-mode: normal"><tspan x="0" dy="0">O+O+O+O</tspan></text><text transform="translate(223.91952,110.95122) scale(0.18863,0.18863)" font-size="40" xml:space="preserve" data-paper-data="{&quot;origPos&quot;:null}" fill="#000000" fill-rule="nonzero" stroke="none" stroke-width="1" stroke-linecap="butt" stroke-linejoin="miter" stroke-miterlimit="10" stroke-dasharray="" stroke-dashoffset="0" font-family="Sans Serif" font-weight="normal" text-anchor="start" style="mix-blend-mode: normal"><tspan x="0" dy="0">O+O+O+O</tspan></text><text transform="translate(296.25938,213.0456) rotate(-90) scale(0.18863,0.18863)" font-size="40" xml:space="preserve" data-paper-data="{&quot;origPos&quot;:null,&quot;origRot&quot;:-45}" fill="#000000" fill-rule="nonzero" stroke="none" stroke-width="1" stroke-linecap="butt" stroke-linejoin="miter" stroke-miterlimit="10" stroke-dasharray="" stroke-dashoffset="0" font-family="Sans Serif" font-weight="normal" text-anchor="start" style="mix-blend-mode: normal"><tspan x="0" dy="0">O+O+O+O</tspan></text><text transform="translate(193.02843,177.1194) rotate(-90) scale(0.18863,0.18863)" font-size="40" xml:space="preserve" data-paper-data="{&quot;origPos&quot;:null,&quot;origRot&quot;:-45}" fill="#000000" fill-rule="nonzero" stroke="none" stroke-width="1" stroke-linecap="butt" stroke-linejoin="miter" stroke-miterlimit="10" stroke-dasharray="" stroke-dashoffset="0" font-family="Sans Serif" font-weight="normal" text-anchor="start" style="mix-blend-mode: normal"><tspan x="0" dy="0">O+O+O+O</tspan></text><text transform="translate(193.02605,215.31702) rotate(-90) scale(0.18863,0.18863)" font-size="40" xml:space="preserve" data-paper-data="{&quot;origPos&quot;:null,&quot;origRot&quot;:-45}" fill="#000000" fill-rule="nonzero" stroke="none" stroke-width="1" stroke-linecap="butt" stroke-linejoin="miter" stroke-miterlimit="10" stroke-dasharray="" stroke-dashoffset="0" font-family="Sans Serif" font-weight="normal" text-anchor="start" style="mix-blend-mode: normal"><tspan x="0" dy="0">O+O+O+O</tspan></text><path d="M243.89454,166.35643v-7.51377h0.6011v7.51377z" fill="#000000" stroke="none" stroke-width="0" stroke-linecap="butt"/><path d="M229.73583,168.15124l-1.93606,-7.26005l0.5808,-0.15489l1.93607,7.26006z" fill="#000000" stroke="none" stroke-width="0" stroke-linecap="butt"/><path d="M250.7002,167.88596l3.76463,-6.50264l0.52022,0.30118l-3.76463,6.50264z" fill="#000000" stroke="none" stroke-width="0" stroke-linecap="butt"/><path d="M251.58714,190.11681l1.93606,7.26005l-0.5808,0.15489l-1.93607,-7.26005z" fill="#000000" stroke="none" stroke-width="0" stroke-linecap="butt"/><path d="M231.52442,190.68263l-3.76463,6.50264l-0.52022,-0.30118l3.76463,-6.50264z" fill="#000000" stroke="none" stroke-width="0" stroke-linecap="butt"/><path d="M235.97086,166.39735v-7.51377h0.6011v7.51377z" fill="#000000" stroke="none" stroke-width="0" stroke-linecap="butt"/><path d="M240.36976,199.94967v-7.51377h0.6011v7.51377z" fill="#000000" stroke="none" stroke-width="0" stroke-linecap="butt"/></g></g></g></svg>