<svg version="1.1" xmlns="http://www.w3.org/2000/svg" xmlns:xlink="http://www.w3.org/1999/xlink" width="143.5" height="191.5" viewBox="0,0,143.5,191.5"><defs><radialGradient cx="240.5" cy="178.81684" r="30.75" gradientUnits="userSpaceOnUse" id="color-1"><stop offset="0" stop-color="#000000"/><stop offset="1" stop-color="#ffffff"/></radialGradient></defs><g transform="translate(-168.25,-84.25)"><g data-paper-data="{&quot;isPaintingLayer&quot;:true}" fill-rule="nonzero" stroke-linejoin="miter" stroke-miterlimit="10" stroke-dasharray="" stroke-dashoffset="0" style="mix-blend-mode: normal"><g stroke-linecap="butt"><path d="M172.5,272.16667c0,0 -4,-5.34526 -4,-10.89999c0,-16.66422 0,-97.96444 0,-160.66667c0,-6.28323 4.33334,-11.76667 4.33334,-11.76667c0,0 5.11759,-4.33334 11.16666,-4.33334c44.09971,0 96.02357,0 113,0c5.65881,0 11.16666,5.33334 11.16666,5.33334c0,0 3.33334,4.28019 3.33334,10.43334c0,62.31197 0,141.44139 0,159.66666c0,6.07509 -2.66667,10.9 -2.66667,10.9c0,0 -6.17452,4.66666 -11.83333,4.66666c-16.97643,0 -69.10355,0 -113.33334,0c-5.91898,0 -11.16666,-3.33333 -11.16666,-3.33333z" fill="#ffffff" stroke="#000000" stroke-width="0.5"/><text transform="translate(179.86375,114.12607) scale(0.5,0.5)" font-size="40" xml:space="preserve" fill="#000000" fill-rule="nonzero" stroke="none" stroke-width="1" stroke-linecap="butt" stroke-linejoin="miter" stroke-miterlimit="10" stroke-dasharray="" stroke-dashoffset="0" font-family="Serif" font-weight="normal" text-anchor="start" style="mix-blend-mode: normal"><tspan x="0" dy="0">K</tspan></text><text transform="translate(296.62446,246.74571) rotate(-180) scale(0.5,0.5)" font-size="40" xml:space="preserve" data-paper-data="{&quot;origRot&quot;:-45}" fill="#000000" fill-rule="nonzero" stroke="none" stroke-width="1" stroke-linecap="butt" stroke-linejoin="miter" stroke-miterlimit="10" stroke-dasharray="" stroke-dashoffset="0" font-family="Serif" font-weight="normal" text-anchor="start" style="mix-blend-mode: normal"><tspan x="0" dy="0">K</tspan></text><path d="M183.66917,136.82316l2.15667,-4.33968c0,0 0.31255,-2.44868 0.66529,-5.13339c0.04855,-0.05715 -1.33569,0.03692 -1.32652,-0.02801c0.01091,0.08339 -0.04874,-1.67331 -0.05372,-1.67722c-0.07022,-0.05524 1.71908,0.03261 1.73061,-0.05345c0.20502,-1.53001 0.28882,-3.03789 0.42939,-4.11746c0.02682,-0.20598 0.83621,0.07948 0.86414,0.28531c0.12903,0.95075 0.16491,2.66162 0.21073,3.8193c1.39782,-0.03935 1.34468,0.0264 1.64855,0.0233c0.05922,0.02965 -0.04753,1.83969 -0.06355,1.82971c-0.03767,-0.00343 -0.44721,-0.02361 -1.35862,-0.03043c-0.04976,0.01948 0.63031,5.21008 0.63031,5.21008l1.73789,4.28394z" fill="#000000" stroke="#000000" stroke-width="0.5"/><path d="M179.69333,126.73794c0,-1.02079 0.51294,-3.08107 2.71178,-3.11115c0.00138,0.066 0.07739,1.09606 0.03426,1.11145c-2.35066,-0.01024 1.99296,-0.2095 -0.00652,-0.00004c-0.16585,-0.08165 0.0072,-1.05791 -0.05348,-1.12649c2.14418,0.16687 2.72684,2.19943 2.72684,3.12622c0,0.06521 -0.00231,0.12987 -0.00684,0.19393c-0.09942,1.40421 -1.27008,2.51251 -2.6996,2.51251c-1.49473,0 -2.70644,-1.21171 -2.70644,-2.70644z" fill="#000000" stroke="none" stroke-width="0"/><path d="M184.16795,119.39819c0,-1.02079 0.51294,-3.08107 2.71178,-3.11115c0.00138,0.066 0.07739,1.09606 0.03426,1.11145c-2.35066,-0.01024 1.99296,-0.2095 -0.00652,-0.00004c-0.16585,-0.08165 0.0072,-1.05791 -0.05348,-1.12649c2.14418,0.16687 2.72684,2.19943 2.72684,3.12622c0,1.49473 -1.21171,2.70644 -2.70644,2.70644c-1.49473,0 -2.70644,-1.21171 -2.70644,-2.70644z" fill="#000000" stroke="none" stroke-width="0"/><path d="M189.63436,126.5671c0,-1.02079 0.51294,-3.08107 2.71178,-3.11115c0.00138,0.066 0.07739,1.09606 0.03426,1.11145c-2.35066,-0.01024 1.99296,-0.2095 -0.00652,-0.00004c-0.16585,-0.08165 0.0072,-1.05791 -0.05348,-1.12649c2.14418,0.16687 2.72684,2.19943 2.72684,3.12622c0,1.49473 -1.21171,2.70644 -2.70644,2.70644c-1.49473,0 -2.70644,-1.21171 -2.70644,-2.70644z" fill="#000000" stroke="none" stroke-width="0"/><path d="M292.43806,222.47729l-2.15667,4.33968c0,0 -0.31254,2.44867 -0.66528,5.13339c-0.04855,0.05715 1.33569,-0.03691 1.32651,0.02801c-0.01091,-0.08339 0.04875,1.67332 0.05372,1.67723c0.07022,0.05524 -1.71909,-0.03262 -1.73062,0.05344c-0.20502,1.53002 -0.28881,3.0379 -0.42939,4.11746c-0.02682,0.20599 -0.8362,-0.07948 -0.86414,-0.28531c-0.12904,-0.95075 -0.1649,-2.66161 -0.21073,-3.8193c-1.39783,0.03935 -1.34468,-0.0264 -1.64855,-0.02329c-0.05922,-0.02966 0.04753,-1.83969 0.06355,-1.82971c0.03767,0.00342 0.44721,0.02361 1.35863,0.03043c0.04976,-0.01947 -0.63031,-5.21008 -0.63031,-5.21008l-1.73789,-4.28394z" fill="#000000" stroke="#000000" stroke-width="0.5"/><path d="M296.41391,232.56251c0,1.02079 -0.51294,3.08107 -2.71178,3.11115c-0.00138,-0.066 -0.07739,-1.09606 -0.03426,-1.11145c2.35066,0.01023 -1.99295,0.2095 0.00652,0.00004c0.16585,0.08165 -0.00719,1.05791 0.05349,1.12649c-2.14418,-0.16687 -2.72684,-2.19943 -2.72684,-3.12623c0,-0.0652 0.00231,-0.12988 0.00684,-0.19393c0.09942,-1.40421 1.27008,-2.51251 2.6996,-2.51251c1.49473,0 2.70644,1.21171 2.70644,2.70644z" fill="#000000" stroke="none" stroke-width="0"/><path d="M291.93928,239.90226c0,1.02079 -0.51293,3.08107 -2.71178,3.11116c-0.00138,-0.066 -0.07739,-1.09606 -0.03426,-1.11146c2.35066,0.01024 -1.99296,0.20951 0.00652,0.00004c0.16584,0.08165 -0.0072,1.05791 0.05349,1.12648c-2.14418,-0.16687 -2.72685,-2.19943 -2.72685,-3.12622c0,-1.49472 1.21172,-2.70644 2.70644,-2.70644c1.49473,0 2.70644,1.21172 2.70644,2.70644z" fill="#000000" stroke="none" stroke-width="0"/><path d="M286.47287,232.73335c0,1.0208 -0.51294,3.08107 -2.71177,3.11116c-0.00138,-0.066 -0.0774,-1.09606 -0.03427,-1.11145c2.35066,0.01023 -1.99296,0.2095 0.00652,0.00004c0.16584,0.08165 -0.0072,1.05791 0.05348,1.12648c-2.14418,-0.16687 -2.72685,-2.19943 -2.72685,-3.12623c0,-1.49472 1.21172,-2.70644 2.70644,-2.70644c1.49473,0 2.70644,1.21172 2.70644,2.70644z" fill="#000000" stroke="none" stroke-width="0"/></g><g stroke="none" stroke-width="0" stroke-linecap="butt"><path d="M197.25,178.81684c0,-23.61017 19.13983,-42.75 42.75,-42.75c23.61018,0 42.75,19.13983 42.75,42.75c0,23.61018 -19.13982,42.75 -42.75,42.75c-23.61017,0 -42.75,-19.13983 -42.75,-42.75z" fill="#02005e"/><path d="M209.75,178.81684c0,-16.98275 13.76725,-30.75 30.75,-30.75c16.98275,0 30.75,13.76725 30.75,30.75c0,16.98275 -13.76725,30.75 -30.75,30.75c-16.98275,0 -30.75,-13.76725 -30.75,-30.75z" fill="url(#color-1)"/><path d="M224.5,178.81684c0,-8.56042 6.93958,-15.5 15.5,-15.5c8.56042,0 15.5,6.93958 15.5,15.5c0,8.56042 -6.93958,15.5 -15.5,15.5c-8.56042,0 -15.5,-6.93958 -15.5,-15.5z" fill="#02005e"/></g><g><path d="M249.24507,227.23877l-0.5,22.5h-23.5c0,0 -9.6595,-15.95708 -5,-16.5c9.5,-1.10694 5,-13 5,-13c0,0 10.70524,0 15,0c3.23298,0 9,7 9,7z" fill="#ffb89a" stroke="#000000" stroke-width="0.5" stroke-linecap="butt"/><path d="M281.15618,209.23877c0,0 -6.85095,5.04285 -9.27289,10.33289c-1.44816,3.16309 1.89953,5.77208 0.3167,9.22933c-2.21997,4.84889 -7.30327,7.39926 -8.49502,10.00228c-1.94262,4.2431 -1.54879,11.9355 -1.54879,11.9355h-27c0,0 -0.51011,-7.43845 1.3755,-11.55701c1.40514,-3.06912 7.09456,-6.94336 9.78784,-12.82605c1.12073,-2.4479 -2.75788,-3.89728 -1.72807,-6.14659c2.5669,-5.60665 9.56474,-10.97036 9.56474,-10.97036z" fill="#cf8000" stroke="none" stroke-width="0" stroke-linecap="butt"/><path d="M272.15618,208.73877c0,0 -6.85095,5.04285 -9.27289,10.33289c-1.44816,3.16309 1.89953,5.77208 0.3167,9.22933c-2.21997,4.84889 -7.30327,7.39926 -8.49502,10.00228c-1.94262,4.2431 -1.54879,11.9355 -1.54879,11.9355h-7c0,0 -0.51011,-7.43845 1.3755,-11.55701c1.40514,-3.06912 7.09456,-6.94336 9.78784,-12.82605c1.12073,-2.4479 -2.75788,-3.89728 -1.72807,-6.14659c2.5669,-5.60665 9.56474,-10.97036 9.56474,-10.97036z" fill="#825000" stroke="none" stroke-width="0" stroke-linecap="butt"/><path d="M225.14506,240.63877c0,-0.82843 0.91782,-1.5 2.05,-1.5c1.13218,0 2.05,0.67157 2.05,1.5c0,0.82843 -0.91782,1.5 -2.05,1.5c-1.13218,0 -2.05,-0.67157 -2.05,-1.5z" fill="#000000" stroke="#000000" stroke-width="0.5" stroke-linecap="butt"/><path d="M223.69507,242.77877l5.4,1.4l2.2,0.8" fill="none" stroke="#000000" stroke-width="0.5" stroke-linecap="round"/><path d="M230.49507,226.97877l-4.2,1.8" fill="none" stroke="#000000" stroke-width="0.5" stroke-linecap="round"/><path d="M233.32522,228.57411c0.2237,0.33491 -0.61967,-0.10107 -1.84824,0.83702c-1.45453,1.39044 -2.24911,3.4166 -2.53221,3.6575c-1.74857,1.48795 -2.57289,-0.80412 -3.33541,-1.82082c0,0 -0.45,-0.6 0.15,-1.05c0.6,-0.45 1.05,0.15 1.05,0.15c0.76348,1.01797 0.88558,2.13349 1.06459,1.57918c0.36318,-1.12458 2.37107,-3.3937 3.52494,-3.85202c0.13333,-0.03334 1.50975,-0.12453 1.92633,0.49914z" fill="#000000" stroke="none" stroke-width="0.5" stroke-linecap="butt"/><path d="M262.26244,249.6033l2.24547,12.57461c0,0 -7.78808,-6.35226 -11.67643,-3.59274c-5.69524,4.04184 -13.01891,4.04184 -18.41284,0.44909c-6.85945,-4.56889 -15.71827,3.14365 -15.71827,3.14365l3.59275,-12.57461z" fill="#ffe54a" stroke="#000000" stroke-width="1" stroke-linecap="butt"/><g fill="#000000" stroke-width="0" stroke-linecap="butt"><path d="M243.88973,252.05617l-0.79072,1.59108c0,0 -0.11459,0.89777 -0.24392,1.88208c-0.0178,0.02095 0.48972,-0.01353 0.48635,0.01027c-0.004,-0.03057 0.01788,0.6135 0.0197,0.61493c0.02574,0.02026 -0.63028,-0.01196 -0.6345,0.01959c-0.07516,0.56096 -0.10589,1.1138 -0.15743,1.50961c-0.00983,0.07552 -0.30658,-0.02914 -0.31682,-0.1046c-0.04731,-0.34858 -0.06046,-0.97584 -0.07726,-1.40029c-0.51249,0.01442 -0.49301,-0.00968 -0.60442,-0.00855c-0.02171,-0.01087 0.01743,-0.6745 0.0233,-0.67084c0.01381,0.00126 0.16397,0.00866 0.49812,0.01116c0.01825,-0.00714 -0.2311,-1.9102 -0.2311,-1.9102l-0.63717,-1.57065z" stroke="#000000"/><path d="M245.22944,255.73691c0,0.37426 -0.18806,1.12963 -0.99424,1.14066c-0.0005,-0.0242 -0.02837,-0.40186 -0.01256,-0.4075c0.86184,0.00376 -0.73069,0.07681 0.00239,0.00002c0.0608,0.02993 -0.00264,0.38787 0.01961,0.41301c-0.78613,-0.06118 -0.99976,-0.80639 -0.99976,-1.14619c0,-0.02391 0.00085,-0.04762 0.00251,-0.0711c0.03645,-0.51484 0.46566,-0.92118 0.98977,-0.92118c0.54802,0 0.99227,0.44425 0.99227,0.99227z" stroke="none"/><path d="M243.70686,258.44478c0,0.37425 -0.18806,1.12963 -0.99424,1.14066c-0.0005,-0.0242 -0.02838,-0.40186 -0.01256,-0.4075c0.86183,0.00375 -0.73069,0.07681 0.00239,0.00001c0.06081,0.02994 -0.00264,0.38787 0.01961,0.41301c-0.78613,-0.06118 -0.99975,-0.80638 -0.99975,-1.14618c0,-0.54802 0.44425,-0.99228 0.99228,-0.99228c0.54802,0 0.99228,0.44426 0.99228,0.99228z" stroke="none"/><path d="M241.65212,255.76585c0,0.37425 -0.18806,1.12963 -0.99424,1.14066c-0.00051,-0.0242 -0.02838,-0.40186 -0.01256,-0.4075c0.86183,0.00375 -0.73068,0.07681 0.0024,0.00001c0.0608,0.02994 -0.00264,0.38787 0.0196,0.41301c-0.78613,-0.06118 -0.99975,-0.80638 -0.99975,-1.14618c0,-0.54802 0.44425,-0.99228 0.99227,-0.99228c0.54802,0 0.99228,0.44426 0.99228,0.99228z" stroke="none"/></g></g><g><path d="M237.61149,132.76123l0.5,-22.5h23.5c0,0 9.6595,15.95708 5,16.5c-9.5,1.10694 -5,13 -5,13c0,0 -10.70524,0 -15,0c-3.23298,0 -9,-7 -9,-7z" fill="#ffb89a" stroke="#000000" stroke-width="0.5" stroke-linecap="butt"/><path d="M205.70038,150.76123c0,0 6.85095,-5.04285 9.27289,-10.33289c1.44816,-3.16309 -1.89953,-5.77208 -0.3167,-9.22933c2.21997,-4.84889 7.30327,-7.39926 8.49502,-10.00228c1.94262,-4.2431 1.54879,-11.9355 1.54879,-11.9355h27c0,0 0.51011,7.43845 -1.3755,11.55701c-1.40514,3.06912 -7.09456,6.94336 -9.78784,12.82605c-1.12073,2.4479 2.75788,3.89728 1.72807,6.14659c-2.5669,5.60665 -9.56474,10.97036 -9.56474,10.97036z" fill="#cf8000" stroke="none" stroke-width="0" stroke-linecap="butt"/><path d="M214.70038,151.26123c0,0 6.85095,-5.04285 9.27289,-10.33289c1.44816,-3.16309 -1.89953,-5.77208 -0.3167,-9.22933c2.21997,-4.84889 7.30327,-7.39926 8.49502,-10.00228c1.94262,-4.2431 1.54879,-11.9355 1.54879,-11.9355h7c0,0 0.51011,7.43845 -1.3755,11.55701c-1.40514,3.06912 -7.09456,6.94336 -9.78784,12.82605c-1.12073,2.4479 2.75788,3.89728 1.72807,6.14659c-2.5669,5.60665 -9.56474,10.97036 -9.56474,10.97036z" fill="#825000" stroke="none" stroke-width="0" stroke-linecap="butt"/><path d="M261.71149,119.36123c0,0.82843 -0.91782,1.5 -2.05,1.5c-1.13218,0 -2.05,-0.67157 -2.05,-1.5c0,-0.82843 0.91782,-1.5 2.05,-1.5c1.13218,0 2.05,0.67157 2.05,1.5z" fill="#000000" stroke="#000000" stroke-width="0.5" stroke-linecap="butt"/><path d="M263.16149,117.22123l-5.4,-1.4l-2.2,-0.8" fill="none" stroke="#000000" stroke-width="0.5" stroke-linecap="round"/><path d="M260.56149,131.22123l-4.2,1.8" fill="none" stroke="#000000" stroke-width="0.5" stroke-linecap="round"/><path d="M253.53134,131.42589c-0.2237,-0.33491 0.61967,0.10107 1.84824,-0.83702c1.45453,-1.39044 2.24911,-3.4166 2.53221,-3.6575c1.74857,-1.48795 2.57289,0.80412 3.33541,1.82082c0,0 0.45,0.6 -0.15,1.05c-0.6,0.45 -1.05,-0.15 -1.05,-0.15c-0.76348,-1.01797 -0.88558,-2.13349 -1.06459,-1.57918c-0.36318,1.12458 -2.37107,3.3937 -3.52494,3.85202c-0.13333,0.03334 -1.50975,0.12453 -1.92633,-0.49914z" fill="#000000" stroke="none" stroke-width="0.5" stroke-linecap="butt"/><path d="M224.59411,110.3967l-2.24547,-12.57461c0,0 7.78808,6.35226 11.67643,3.59274c5.69524,-4.04184 13.01891,-4.04184 18.41284,-0.44909c6.85945,4.56889 15.71827,-3.14365 15.71827,-3.14365l-3.59275,12.57461z" fill="#ffe54a" stroke="#000000" stroke-width="1" stroke-linecap="butt"/><path d="M242.96682,107.94383l0.79072,-1.59108c0,0 0.11459,-0.89777 0.24392,-1.88208c0.0178,-0.02095 -0.48972,0.01354 -0.48635,-0.01027c0.004,0.03058 -0.01787,-0.6135 -0.0197,-0.61493c-0.02574,-0.02026 0.63028,0.01196 0.63451,-0.01959c0.07517,-0.56095 0.10589,-1.1138 0.15743,-1.50961c0.00983,-0.07552 0.30658,0.02914 0.31682,0.1046c0.04731,0.34858 0.06046,0.97585 0.07726,1.40029c0.51249,-0.01442 0.49301,0.00968 0.60442,0.00855c0.02171,0.01087 -0.01742,0.6745 -0.0233,0.67084c-0.01381,-0.00126 -0.16396,-0.00866 -0.49812,-0.01116c-0.01824,0.00714 0.2311,1.9102 0.2311,1.9102l0.63717,1.57064z" fill="#000000" stroke="#000000" stroke-width="0" stroke-linecap="butt"/><path d="M241.62711,104.26309c0,-0.37426 0.18806,-1.12963 0.99424,-1.14066c0.0005,0.0242 0.02837,0.40185 0.01256,0.40749c-0.86183,-0.00375 0.73069,-0.07681 -0.00239,-0.00001c-0.06081,-0.02993 0.00263,-0.38787 -0.01961,-0.41301c0.78613,0.06118 0.99976,0.80639 0.99976,1.14619c0,0.02391 -0.00085,0.04762 -0.00251,0.0711c-0.03645,0.51483 -0.46566,0.92117 -0.98977,0.92117c-0.54802,0 -0.99227,-0.44425 -0.99227,-0.99227z" fill="#000000" stroke="none" stroke-width="0" stroke-linecap="butt"/><path d="M243.14969,101.55522c0,-0.37426 0.18806,-1.12963 0.99423,-1.14066c0.00051,0.0242 0.02838,0.40186 0.01257,0.4075c-0.86184,-0.00375 0.73068,-0.07681 -0.0024,-0.00002c-0.0608,-0.02993 0.00264,-0.38786 -0.0196,-0.41301c0.78613,0.06118 0.99975,0.80638 0.99975,1.14618c0,0.54802 -0.44425,0.99228 -0.99227,0.99228c-0.54802,0 -0.99228,-0.44426 -0.99228,-0.99228z" fill="#000000" stroke="none" stroke-width="0" stroke-linecap="butt"/><path d="M245.20443,104.23415c0,-0.37425 0.18806,-1.12963 0.99424,-1.14066c0.0005,0.0242 0.02837,0.40186 0.01256,0.4075c-0.86183,-0.00375 0.73069,-0.07681 -0.00239,-0.00002c-0.06081,-0.02993 0.00264,-0.38786 -0.01961,-0.41301c0.78613,0.06118 0.99975,0.80639 0.99975,1.14618c0,0.54802 -0.44425,0.99228 -0.99228,0.99228c-0.54802,0 -0.99228,-0.44426 -0.99228,-0.99228z" fill="#000000" stroke="none" stroke-width="0" stroke-linecap="butt"/></g><g stroke-linecap="butt"><g><g stroke="#000000" stroke-width="0.5"><path d="M283.06343,161.16805c0,0 0,-25.02751 0,-31.52124c0,-2.90408 3.36019,-6.30425 3.36019,-6.30425v37.82549z" fill="#d0d0d0"/><path d="M286.29492,161.23957v-37.82549c0,0 3.36019,3.40017 3.36019,6.30425c0,6.49373 0,31.52124 0,31.52124z" data-paper-data="{&quot;index&quot;:null}" fill="#dedede"/><path d="M278.99584,164.32018v-2.88944h14.325v2.88944z" fill="#dedede"/><path d="M283.59398,176.92867v-12.6085h5.48241v12.6085z" fill="#b06c00"/></g><path d="M289.82522,174.7325c0,5.00726 -2.30021,9.06646 -5.13766,9.06646c-2.83745,0 -5.13765,-4.05919 -5.13765,-9.06646c0,-1.42074 -0.60856,-3.57991 -0.03274,-7.23416c0.45374,-2.87945 4.18062,-4.05039 4.58501,-3.31596c1.45687,2.64585 -1.87372,4.667 -0.47573,6.61237c1.65584,2.30419 6.19877,-1.06951 6.19877,3.93775z" fill="#ffb89a" stroke="#000000" stroke-width="0.5"/><g fill="#000000" stroke-width="0"><path d="M285.08585,167.55685c0,-0.17756 0.08922,-0.53594 0.4717,-0.54118c0.00023,0.01148 0.01346,0.19065 0.00596,0.19333c-0.40888,-0.00178 0.34667,-0.03644 -0.00113,-0.00001c-0.02885,-0.0142 0.00124,-0.18402 -0.00931,-0.19594c0.37297,0.02902 0.47433,0.38258 0.47433,0.5438c0,0.01135 -0.0004,0.02259 -0.00119,0.03373c-0.01729,0.24426 -0.22093,0.43704 -0.46958,0.43704c-0.26,0 -0.47077,-0.21077 -0.47077,-0.47077z" stroke="none"/><path d="M285.72146,169.30313l0.37515,-0.75487c0,0 0.05437,-0.42593 0.11572,-0.89293c0.00844,-0.00994 -0.23234,0.00642 -0.23074,-0.00487c0.0019,0.01451 -0.00847,-0.29107 -0.00934,-0.29174c-0.01221,-0.00961 0.29903,0.00567 0.30104,-0.0093c0.03566,-0.26613 0.05023,-0.52843 0.07469,-0.71622c0.00466,-0.03583 0.14545,0.01383 0.15031,0.04963c0.02245,0.16538 0.02868,0.46298 0.03665,0.66435c0.24315,-0.00684 0.2339,0.00459 0.28676,0.00405c0.0103,0.00516 -0.00826,0.32001 -0.01105,0.31827c-0.00655,-0.0006 -0.07778,-0.00411 -0.23632,-0.00529c-0.00865,0.00339 0.10964,0.90627 0.10964,0.90627l0.3023,0.74517z" stroke="#000000"/><path d="M285.80822,166.27213c0,-0.17756 0.08922,-0.53594 0.4717,-0.54118c0.00024,0.01148 0.01346,0.19066 0.00597,0.19334c-0.40889,-0.00178 0.34666,-0.03644 -0.00114,-0.00001c-0.02884,-0.0142 0.00125,-0.18402 -0.0093,-0.19595c0.37297,0.02902 0.47432,0.38258 0.47432,0.54379c0,0.26 -0.21077,0.47078 -0.47077,0.47078c-0.26,0 -0.47078,-0.21078 -0.47078,-0.47078z" stroke="none"/><path d="M286.78307,167.54312c0,-0.17756 0.08922,-0.53594 0.4717,-0.54118c0.00023,0.01148 0.01346,0.19066 0.00596,0.19334c-0.40888,-0.00178 0.34666,-0.03644 -0.00114,-0.00001c-0.02885,-0.0142 0.00125,-0.18401 -0.0093,-0.19594c0.37297,0.02902 0.47432,0.38258 0.47432,0.54379c0,0.26 -0.21077,0.47077 -0.47078,0.47077c-0.26,0 -0.47078,-0.21077 -0.47078,-0.47077z" stroke="none"/></g></g><g><g stroke="#000000" stroke-width="0.5"><path d="M197.25325,200.64014c0,0 0,25.02751 0,31.52124c0,2.90408 -3.36019,6.30425 -3.36019,6.30425l0,-37.82549z" fill="#d0d0d0"/><path d="M194.02176,200.56862l0,37.82549c0,0 -3.36019,-3.40017 -3.36019,-6.30425c0,-6.49373 0,-31.52124 0,-31.52124z" data-paper-data="{&quot;index&quot;:null}" fill="#dedede"/><path d="M201.32084,197.48801l0,2.88944l-14.325,0l0,-2.88944z" fill="#dedede"/><path d="M196.7227,184.87952l0,12.6085l-5.48241,0v-12.6085z" fill="#b06c00"/></g><path d="M190.49146,187.07569c0,-5.00726 2.30021,-9.06646 5.13766,-9.06646c2.83745,0 5.13765,4.05919 5.13765,9.06646c0,1.42074 0.60856,3.57991 0.03274,7.23416c-0.45374,2.87945 -4.18062,4.05039 -4.58501,3.31596c-1.45687,-2.64585 1.87372,-4.667 0.47573,-6.61237c-1.65584,-2.30419 -6.19877,1.06951 -6.19877,-3.93775z" fill="#ffb89a" stroke="#000000" stroke-width="0.5"/><g fill="#000000" stroke-width="0"><path d="M195.23083,194.25134c0,0.17756 -0.08922,0.53594 -0.4717,0.54117c-0.00023,-0.01148 -0.01346,-0.19065 -0.00596,-0.19333c0.40888,0.00178 -0.34667,0.03644 0.00114,0c0.02885,0.0142 -0.00124,0.18402 0.00931,0.19595c-0.37297,-0.02902 -0.47432,-0.38258 -0.47433,-0.54379c0,-0.01135 0.0004,-0.02259 0.00119,-0.03373c0.01729,-0.24426 0.22093,-0.43704 0.46958,-0.43704c0.26,0 0.47077,0.21077 0.47077,0.47077z" stroke="none"/><path d="M194.59522,192.50506l-0.37514,0.75487c0,0 -0.05437,0.42593 -0.11572,0.89292c-0.00844,0.00994 0.23234,-0.00642 0.23074,0.00487c-0.0019,-0.01451 0.00848,0.29107 0.00934,0.29175c0.01221,0.00961 -0.29903,-0.00567 -0.30103,0.00929c-0.03566,0.26614 -0.05024,0.52843 -0.07469,0.71622c-0.00467,0.03583 -0.14545,-0.01383 -0.15031,-0.04963c-0.02245,-0.16538 -0.02868,-0.46298 -0.03665,-0.66435c-0.24315,0.00684 -0.23391,-0.00459 -0.28676,-0.00405c-0.0103,-0.00516 0.00826,-0.32001 0.01105,-0.31828c0.00655,0.0006 0.07779,0.00411 0.23633,0.00529c0.00865,-0.00338 -0.10964,-0.90627 -0.10964,-0.90627l-0.3023,-0.74517z" stroke="#000000"/><path d="M194.50846,195.53606c0,0.17756 -0.08922,0.53594 -0.4717,0.54118c-0.00024,-0.01148 -0.01347,-0.19066 -0.00597,-0.19333c0.40889,0.00178 -0.34666,0.03644 0.00114,0.00001c0.02884,0.0142 -0.00125,0.18401 0.0093,0.19594c-0.37297,-0.02902 -0.47432,-0.38258 -0.47432,-0.54379c0,-0.26 0.21077,-0.47077 0.47077,-0.47077c0.26,0 0.47077,0.21077 0.47077,0.47078z" stroke="none"/><path d="M193.53361,194.26507c0,0.17756 -0.08922,0.53594 -0.47171,0.54118c-0.00024,-0.01148 -0.01346,-0.19066 -0.00596,-0.19333c0.40888,0.00178 -0.34667,0.03644 0.00113,0.00001c0.02885,0.0142 -0.00125,0.18401 0.00931,0.19594c-0.37297,-0.02902 -0.47432,-0.38258 -0.47432,-0.54379c0,-0.26 0.21077,-0.47078 0.47078,-0.47078c0.26,0 0.47078,0.21078 0.47078,0.47077z" stroke="none"/></g></g></g></g></g></svg>