<svg version="1.1" xmlns="http://www.w3.org/2000/svg" xmlns:xlink="http://www.w3.org/1999/xlink" width="143.5" height="191.5" viewBox="0,0,143.5,191.5"><g transform="translate(-168.69204,-86.12564)"><g data-paper-data="{&quot;isPaintingLayer&quot;:true}" fill-rule="nonzero" stroke-linecap="butt" stroke-linejoin="miter" stroke-miterlimit="10" stroke-dasharray="" stroke-dashoffset="0" style="mix-blend-mode: normal"><path d="M172.94204,274.04231c0,0 -4,-5.34526 -4,-10.89999c0,-16.66422 0,-97.96444 0,-160.66667c0,-6.28323 4.33334,-11.76667 4.33334,-11.76667c0,0 5.11759,-4.33334 11.16666,-4.33334c44.09971,0 96.02357,0 113,0c5.65881,0 11.16666,5.33334 11.16666,5.33334c0,0 3.33334,4.28019 3.33334,10.43334c0,62.31197 0,141.44139 0,159.66666c0,6.07509 -2.66667,10.9 -2.66667,10.9c0,0 -6.17452,4.66666 -11.83333,4.66666c-16.97643,0 -69.10355,0 -113.33334,0c-5.91898,0 -11.16666,-3.33333 -11.16666,-3.33333z" fill="#ffffff" stroke="#000000" stroke-width="0.5"/><text transform="translate(181.4718,115.70195) scale(0.5,0.5)" font-size="40" xml:space="preserve" fill="#ff0000" fill-rule="nonzero" stroke="none" stroke-width="1" stroke-linecap="butt" stroke-linejoin="miter" stroke-miterlimit="10" stroke-dasharray="" stroke-dashoffset="0" font-family="Serif" font-weight="normal" text-anchor="start" style="mix-blend-mode: normal"><tspan x="0" dy="0">2</tspan></text><text transform="translate(298.23251,248.32159) rotate(-180) scale(0.5,0.5)" font-size="40" xml:space="preserve" data-paper-data="{&quot;origRot&quot;:-45}" fill="#ff0000" fill-rule="nonzero" stroke="none" stroke-width="1" stroke-linecap="butt" stroke-linejoin="miter" stroke-miterlimit="10" stroke-dasharray="" stroke-dashoffset="0" font-family="Serif" font-weight="normal" text-anchor="start" style="mix-blend-mode: normal"><tspan x="0" dy="0">2</tspan></text><path d="M188.78365,135.57056l-8.39025,-8.55449l8.39025,-8.55449l8.39025,8.55449z" data-paper-data="{&quot;origRot&quot;:0}" fill="#ff0000" stroke="none" stroke-width="0"/><path d="M290.9244,244.09904l-8.39024,-8.55449l8.39024,-8.55449l8.39025,8.55449z" data-paper-data="{&quot;origRot&quot;:0}" fill="#ff0000" stroke="none" stroke-width="0"/><path d="M241.154,136.37122l-8.90461,-9.07892l8.90461,-9.07892l8.90461,9.07892z" data-paper-data="{&quot;origRot&quot;:0}" fill="none" stroke="#ff0000" stroke-width="1.5"/><path d="M240.62853,245.25008l-8.90461,-9.07892l8.90461,-9.07891l8.9046,9.07891z" data-paper-data="{&quot;origRot&quot;:0}" fill="none" stroke="#ff0000" stroke-width="1.5"/></g></g></svg>