<svg version="1.1" xmlns="http://www.w3.org/2000/svg" xmlns:xlink="http://www.w3.org/1999/xlink" width="143.5" height="191.5" viewBox="0,0,143.5,191.5"><defs><radialGradient cx="239.99997" cy="179.65478" r="30.75" gradientUnits="userSpaceOnUse" id="color-1"><stop offset="0" stop-color="#ff0000"/><stop offset="1" stop-color="#fbff00"/></radialGradient></defs><g transform="translate(-168.25,-84.25)"><g data-paper-data="{&quot;isPaintingLayer&quot;:true}" fill-rule="nonzero" stroke-linejoin="miter" stroke-miterlimit="10" stroke-dasharray="" stroke-dashoffset="0" style="mix-blend-mode: normal"><path d="M172.5,272.16667c0,0 -4,-5.34526 -4,-10.89999c0,-16.66422 0,-97.96444 0,-160.66667c0,-6.28323 4.33334,-11.76667 4.33334,-11.76667c0,0 5.11759,-4.33334 11.16666,-4.33334c44.09971,0 96.02357,0 113,0c5.65881,0 11.16666,5.33334 11.16666,5.33334c0,0 3.33334,4.28019 3.33334,10.43334c0,62.31197 0,141.44139 0,159.66666c0,6.07509 -2.66667,10.9 -2.66667,10.9c0,0 -6.17452,4.66666 -11.83333,4.66666c-16.97643,0 -69.10355,0 -113.33334,0c-5.91898,0 -11.16666,-3.33333 -11.16666,-3.33333z" fill="#ffffff" stroke="#000000" stroke-width="0.5" stroke-linecap="butt"/><text transform="translate(180.20578,114.29803) scale(0.5,0.5)" font-size="40" xml:space="preserve" fill="#ff0000" fill-rule="nonzero" stroke="none" stroke-width="1" stroke-linecap="butt" stroke-linejoin="miter" stroke-miterlimit="10" stroke-dasharray="" stroke-dashoffset="0" font-family="Serif" font-weight="normal" text-anchor="start" style="mix-blend-mode: normal"><tspan x="0" dy="0">K</tspan></text><text transform="translate(297.46811,247.66321) rotate(-180) scale(0.5,0.5)" font-size="40" xml:space="preserve" data-paper-data="{&quot;origRot&quot;:-45}" fill="#ff0000" fill-rule="nonzero" stroke="none" stroke-width="1" stroke-linecap="butt" stroke-linejoin="miter" stroke-miterlimit="10" stroke-dasharray="" stroke-dashoffset="0" font-family="Serif" font-weight="normal" text-anchor="start" style="mix-blend-mode: normal"><tspan x="0" dy="0">K</tspan></text><path d="M188.01923,134.91222l-8.39025,-8.55449l8.39025,-8.55449l8.39025,8.55449z" data-paper-data="{&quot;origRot&quot;:0}" fill="#ff0000" stroke="#000000" stroke-width="0.5" stroke-linecap="butt"/><path d="M290.15998,243.44068l-8.39024,-8.55449l8.39024,-8.55449l8.39025,8.55449z" data-paper-data="{&quot;origRot&quot;:0}" fill="#ff0000" stroke="#000000" stroke-width="0.5" stroke-linecap="butt"/><g stroke="none" stroke-width="0" stroke-linecap="butt"><path d="M197.25,179.65478c0,-23.61017 19.13983,-42.75 42.75,-42.75c23.61018,0 42.75,19.13983 42.75,42.75c0,23.61018 -19.13982,42.75 -42.75,42.75c-23.61017,0 -42.75,-19.13983 -42.75,-42.75z" fill="#b60000"/><path d="M209.24997,179.65478c0,-16.98275 13.76725,-30.75 30.75,-30.75c16.98275,0 30.75,13.76725 30.75,30.75c0,16.98275 -13.76725,30.75 -30.75,30.75c-16.98275,0 -30.75,-13.76725 -30.75,-30.75z" fill="url(#color-1)"/><path d="M224.49997,179.65478c0,-8.56042 6.93958,-15.5 15.5,-15.5c8.56042,0 15.5,6.93958 15.5,15.5c0,8.56042 -6.93958,15.5 -15.5,15.5c-8.56042,0 -15.5,-6.93958 -15.5,-15.5z" fill="#b60000"/></g><g><path d="M245.34143,226.31965l-0.5,22.5h-23.5c0,0 -9.6595,-15.95708 -5,-16.5c9.5,-1.10694 5,-13 5,-13c0,0 10.70524,0 15,0c3.23298,0 9,7 9,7z" fill="#ffb89a" stroke="#000000" stroke-width="0.5" stroke-linecap="butt"/><path d="M277.63266,207.20606c0,0 -6.85095,5.04285 -9.27289,10.33289c-1.44816,3.16309 1.89953,5.77208 0.3167,9.22933c-2.21997,4.84889 -7.30327,7.39926 -8.49502,10.00228c-1.94262,4.2431 -1.54879,11.9355 -1.54879,11.9355h-27c0,0 -0.51011,-7.43845 1.3755,-11.55701c1.40514,-3.06912 7.09456,-6.94336 9.78784,-12.82605c1.12073,-2.4479 -2.75788,-3.89728 -1.72807,-6.14659c2.5669,-5.60665 9.56474,-10.97036 9.56474,-10.97036z" fill="#cf8000" stroke="none" stroke-width="0" stroke-linecap="butt"/><path d="M268.26417,207.57416c0,0 -6.85095,5.04285 -9.27289,10.33289c-1.44816,3.16309 1.89953,5.77208 0.3167,9.22933c-2.21997,4.84889 -7.30327,7.39926 -8.49502,10.00228c-1.94262,4.2431 -1.54879,11.9355 -1.54879,11.9355h-7c0,0 -0.51011,-7.43845 1.3755,-11.55701c1.40514,-3.06912 7.09456,-6.94336 9.78784,-12.82605c1.12073,-2.4479 -2.75788,-3.89728 -1.72807,-6.14659c2.5669,-5.60665 9.56474,-10.97036 9.56474,-10.97036z" fill="#825000" stroke="none" stroke-width="0" stroke-linecap="butt"/><path d="M221.24143,239.71965c0,-0.82843 0.91782,-1.5 2.05,-1.5c1.13218,0 2.05,0.67157 2.05,1.5c0,0.82843 -0.91782,1.5 -2.05,1.5c-1.13218,0 -2.05,-0.67157 -2.05,-1.5z" fill="#000000" stroke="#000000" stroke-width="0.5" stroke-linecap="butt"/><path d="M219.79144,241.85965l5.4,1.4l2.2,0.8" fill="none" stroke="#000000" stroke-width="0.5" stroke-linecap="round"/><path d="M222.46203,226.06992l4.3043,1.53396" fill="none" stroke="#000000" stroke-width="0.5" stroke-linecap="round"/><path d="M229.9537,229.16708c0.09244,0.392 -0.54519,-0.31141 -2.02426,0.13777c-1.84896,0.79393 -3.30199,2.41423 -3.65146,2.54091c-2.15853,0.78244 -2.12917,-1.65317 -2.48796,-2.87234c0,0 -0.21174,-0.71949 0.50775,-0.93123c0.71949,-0.21174 0.93123,0.50775 0.93123,0.50775c0.35924,1.2207 0.08349,2.30848 0.44506,1.85178c0.73355,-0.92655 3.40824,-2.35013 4.64953,-2.37596c0.13657,0.0154 1.45796,0.41135 1.63011,1.14133z" fill="#000000" stroke="none" stroke-width="0.5" stroke-linecap="butt"/><path d="M258.2273,248.55267l2.24547,12.57461c0,0 -7.78808,-6.35226 -11.67643,-3.59274c-5.69524,4.04184 -13.01891,4.04184 -18.41284,0.44909c-6.85945,-4.56889 -15.71827,3.14365 -15.71827,3.14365l3.59275,-12.57461z" fill="#ffe54a" stroke="#000000" stroke-width="1" stroke-linecap="butt"/><path d="M238.99102,251.02313l3.47734,3.5454l-3.47734,3.5454l-3.47733,-3.5454z" data-paper-data="{&quot;origRot&quot;:0}" fill="#ff0000" stroke="#000000" stroke-width="0.5" stroke-linecap="butt"/></g><g><path d="M237.62312,133.68034l0.5,-22.5h23.5c0,0 9.6595,15.95708 5,16.5c-9.5,1.10694 -5,13 -5,13c0,0 -10.70524,0 -15,0c-3.23298,0 -9,-7 -9,-7z" fill="#ffb89a" stroke="#000000" stroke-width="0.5" stroke-linecap="butt"/><path d="M205.3319,152.79394c0,0 6.85095,-5.04285 9.27289,-10.33289c1.44816,-3.16309 -1.89953,-5.77208 -0.3167,-9.22933c2.21997,-4.84889 7.30327,-7.39926 8.49502,-10.00228c1.94262,-4.2431 1.54879,-11.9355 1.54879,-11.9355h27c0,0 0.51011,7.43845 -1.3755,11.55701c-1.40514,3.06912 -7.09456,6.94336 -9.78784,12.82605c-1.12073,2.4479 2.75788,3.89728 1.72807,6.14659c-2.5669,5.60665 -9.56474,10.97036 -9.56474,10.97036z" fill="#cf8000" stroke="none" stroke-width="0" stroke-linecap="butt"/><path d="M214.70038,152.42583c0,0 6.85095,-5.04285 9.27289,-10.33289c1.44816,-3.16309 -1.89953,-5.77208 -0.3167,-9.22933c2.21997,-4.84889 7.30327,-7.39926 8.49502,-10.00228c1.94262,-4.2431 1.54879,-11.9355 1.54879,-11.9355h7c0,0 0.51011,7.43845 -1.3755,11.55701c-1.40514,3.06912 -7.09456,6.94336 -9.78784,12.82605c-1.12073,2.4479 2.75788,3.89728 1.72807,6.14659c-2.5669,5.60665 -9.56474,10.97036 -9.56474,10.97036z" fill="#825000" stroke="none" stroke-width="0" stroke-linecap="butt"/><path d="M261.72312,120.28034c0,0.82843 -0.91782,1.5 -2.05,1.5c-1.13218,0 -2.05,-0.67157 -2.05,-1.5c0,-0.82843 0.91782,-1.5 2.05,-1.5c1.13218,0 2.05,0.67157 2.05,1.5z" fill="#000000" stroke="#000000" stroke-width="0.5" stroke-linecap="butt"/><path d="M263.17311,118.14034l-5.4,-1.4l-2.2,-0.8" fill="none" stroke="#000000" stroke-width="0.5" stroke-linecap="round"/><path d="M260.50252,133.93007l-4.3043,-1.53396" fill="none" stroke="#000000" stroke-width="0.5" stroke-linecap="round"/><path d="M253.01085,130.83291c-0.09244,-0.392 0.54519,0.31141 2.02426,-0.13777c1.84896,-0.79393 3.30199,-2.41423 3.65146,-2.54091c2.15853,-0.78244 2.12917,1.65317 2.48796,2.87234c0,0 0.21174,0.71949 -0.50775,0.93123c-0.71949,0.21174 -0.93123,-0.50775 -0.93123,-0.50775c-0.35924,-1.2207 -0.08349,-2.30848 -0.44506,-1.85178c-0.73355,0.92655 -3.40824,2.35013 -4.64953,2.37596c-0.13657,-0.0154 -1.45796,-0.41135 -1.63011,-1.14133z" fill="#000000" stroke="none" stroke-width="0.5" stroke-linecap="butt"/><path d="M224.73726,111.44733l-2.24547,-12.57461c0,0 7.78808,6.35226 11.67643,3.59274c5.69524,-4.04184 13.01891,-4.04184 18.41284,-0.44909c6.85945,4.56889 15.71827,-3.14365 15.71827,-3.14365l-3.59275,12.57461z" fill="#ffe54a" stroke="#000000" stroke-width="1" stroke-linecap="butt"/><path d="M243.97353,108.97686l-3.47734,-3.54541l3.47734,-3.54541l3.47733,3.54541z" data-paper-data="{&quot;origRot&quot;:0}" fill="#ff0000" stroke="#000000" stroke-width="0.5" stroke-linecap="butt"/></g><g stroke="#000000" stroke-linecap="butt"><path d="M197.34491,199.73604c0,0 0,25.02751 0,31.52124c0,2.90408 -3.36019,6.30425 -3.36019,6.30425v-37.82549z" fill="#d0d0d0" stroke-width="0.5"/><path d="M194.11342,199.33119v37.82549c0,0 -3.36019,-3.40017 -3.36019,-6.30425c0,-6.49373 0,-31.52124 0,-31.52124z" data-paper-data="{&quot;index&quot;:null}" fill="#dedede" stroke-width="0.5"/><path d="M201.4125,196.58391v2.88944h-14.325v-2.88944z" fill="#dedede" stroke-width="0.5"/><path d="M196.81436,183.97542v12.6085h-5.48241v-12.6085z" fill="#513200" stroke-width="0.5"/><path d="M190.58312,186.17159c0,-5.00726 2.30021,-9.06646 5.13766,-9.06646c2.83745,0 5.13765,4.05919 5.13765,9.06646c0,1.42074 0.60856,3.57991 0.03274,7.23416c-0.45374,2.87945 -4.18062,4.05039 -4.58501,3.31596c-1.45687,-2.64585 1.87372,-4.667 0.47573,-6.61237c-1.65584,-2.30419 -6.19877,1.06951 -6.19877,-3.93775z" fill="#ffb89a" stroke-width="0.5"/><path d="M194.05147,191.78219l1.70234,1.73567l-1.70234,1.73566l-1.70233,-1.73566z" data-paper-data="{&quot;origRot&quot;:0}" fill="#ff0000" stroke-width="0"/></g><g stroke="#000000" stroke-linecap="butt"><path d="M282.82176,160.26396c0,0 0,-25.02751 0,-31.52124c0,-2.90408 3.36019,-6.30425 3.36019,-6.30425v37.82549z" fill="#d0d0d0" stroke-width="0.5"/><path d="M286.05325,160.33548v-37.82549c0,0 3.36019,3.40017 3.36019,6.30425c0,6.49373 0,31.52124 0,31.52124z" data-paper-data="{&quot;index&quot;:null}" fill="#dedede" stroke-width="0.5"/><path d="M278.75417,163.41609v-2.88944h14.325v2.88944z" fill="#dedede" stroke-width="0.5"/><path d="M283.35231,176.02458v-12.6085h5.48241v12.6085z" fill="#513200" stroke-width="0.5"/><path d="M289.58355,173.82841c0,5.00726 -2.30021,9.06646 -5.13766,9.06646c-2.83745,0 -5.13765,-4.05919 -5.13765,-9.06646c0,-1.42074 -0.60856,-3.57991 -0.03274,-7.23416c0.45374,-2.87945 4.18062,-4.05039 4.58501,-3.31596c1.45687,2.64585 -1.87372,4.667 -0.47573,6.61237c1.65584,2.30419 6.19877,-1.06951 6.19877,3.93775z" fill="#ffb89a" stroke-width="0.5"/><path d="M286.1152,168.21781l-1.70234,-1.73567l1.70234,-1.73566l1.70233,1.73566z" data-paper-data="{&quot;origRot&quot;:0}" fill="#ff0000" stroke-width="0"/></g></g></g></svg>