<svg version="1.1" xmlns="http://www.w3.org/2000/svg" xmlns:xlink="http://www.w3.org/1999/xlink" width="143.5" height="191.5" viewBox="0,0,143.5,191.5"><defs><radialGradient cx="240.62516" cy="180" r="27.56727" gradientUnits="userSpaceOnUse" id="color-1"><stop offset="0" stop-color="#ff0000"/><stop offset="1" stop-color="#fbff00"/></radialGradient></defs><g transform="translate(-168.9829,-85.34216)"><g data-paper-data="{&quot;isPaintingLayer&quot;:true}" fill-rule="nonzero" stroke-linejoin="miter" stroke-miterlimit="10" stroke-dasharray="" stroke-dashoffset="0" style="mix-blend-mode: normal"><path d="M173.2329,273.25883c0,0 -4,-5.34526 -4,-10.89999c0,-16.66422 0,-97.96444 0,-160.66667c0,-6.28323 4.33334,-11.76667 4.33334,-11.76667c0,0 5.11759,-4.33334 11.16666,-4.33334c44.09971,0 96.02357,0 113,0c5.65881,0 11.16666,5.33334 11.16666,5.33334c0,0 3.33334,4.28019 3.33334,10.43334c0,62.31197 0,141.44139 0,159.66666c0,6.07509 -2.66667,10.9 -2.66667,10.9c0,0 -6.17452,4.66666 -11.83333,4.66666c-16.97643,0 -69.10355,0 -113.33334,0c-5.91898,0 -11.16666,-3.33333 -11.16666,-3.33333z" fill="#ffffff" stroke="#000000" stroke-width="0.5" stroke-linecap="butt"/><text transform="translate(183.33297,115.57995) scale(0.5,0.5)" font-size="40" xml:space="preserve" fill="#ff0000" fill-rule="nonzero" stroke="none" stroke-width="1" stroke-linecap="butt" stroke-linejoin="miter" stroke-miterlimit="10" stroke-dasharray="" stroke-dashoffset="0" font-family="Serif" font-weight="normal" text-anchor="start" style="mix-blend-mode: normal"><tspan x="0" dy="0">Q</tspan></text><text transform="translate(298.23253,248.32155) rotate(-180) scale(0.5,0.5)" font-size="40" xml:space="preserve" data-paper-data="{&quot;origRot&quot;:-45}" fill="#ff0000" fill-rule="nonzero" stroke="none" stroke-width="1" stroke-linecap="butt" stroke-linejoin="miter" stroke-miterlimit="10" stroke-dasharray="" stroke-dashoffset="0" font-family="Serif" font-weight="normal" text-anchor="start" style="mix-blend-mode: normal"><tspan x="0" dy="0">Q</tspan></text><path d="M190.52284,135.57056l-8.39025,-8.55449l8.39025,-8.55449l8.39025,8.55449z" data-paper-data="{&quot;origRot&quot;:0}" fill="#ff0000" stroke="#000000" stroke-width="0.5" stroke-linecap="butt"/><path d="M290.9244,244.09902l-8.39024,-8.55449l8.39024,-8.55449l8.39025,8.55449z" data-paper-data="{&quot;origRot&quot;:0}" fill="#ff0000" stroke="#000000" stroke-width="0.5" stroke-linecap="butt"/><g stroke="none" stroke-width="0" stroke-linecap="butt"><path d="M202.29996,180c0,-23.61017 17.15879,-42.75 38.32523,-42.75c21.16645,0 38.32523,19.13983 38.32523,42.75c0,23.61018 -17.15878,42.75 -38.32523,42.75c-21.16644,0 -38.32523,-19.13983 -38.32523,-42.75z" fill="#b60000"/><path d="M213.05789,180c0,-16.98275 12.34229,-30.75 27.56727,-30.75c15.22498,0 27.56727,13.76725 27.56727,30.75c0,16.98275 -12.34229,30.75 -27.56727,30.75c-15.22498,0 -27.56727,-13.76725 -27.56727,-30.75z" fill="url(#color-1)"/><path d="M226.72946,180c0,-8.56042 6.22131,-15.5 13.8957,-15.5c7.67439,0 13.8957,6.93958 13.8957,15.5c0,8.56042 -6.22131,15.5 -13.8957,15.5c-7.67439,0 -13.8957,-6.93958 -13.8957,-15.5z" fill="#b60000"/></g><g><path d="M237.40734,137.1939l-1.66071,-24.85714h23.5c0,0 9.6595,15.95708 5,16.5c-6.91235,0.80543 -6.41276,7.32129 -5.62774,10.81117c0.29387,1.30644 -0.15104,2.18883 -1.37277,2.18883c-3.30792,0 -6.1131,-0.875 -9.24949,-0.875c-3.23298,0 -10.58929,-3.76786 -10.58929,-3.76786z" fill="#ffb89a" stroke="#000000" stroke-width="0.5" stroke-linecap="butt"/><path d="M203.01592,154.00423c0,0 6.85095,-5.04285 9.27289,-10.33289c1.44816,-3.16309 -1.89953,-5.77208 -0.3167,-9.22933c2.21997,-4.84889 7.30327,-7.39926 8.49502,-10.00228c1.94262,-4.2431 1.54879,-11.9355 1.54879,-11.9355h27c0,0 0.51011,7.43845 -1.3755,11.55701c-1.40514,3.06912 -7.09456,6.94336 -9.78784,12.82605c-1.12073,2.4479 2.75788,3.89728 1.72807,6.14659c-2.5669,5.60665 -9.56474,10.97036 -9.56474,10.97036z" fill="#573600" stroke="none" stroke-width="0" stroke-linecap="butt"/><path d="M212.51592,154.11534c0,0 6.85095,-5.04285 9.27289,-10.33289c1.44816,-3.16309 -1.89953,-5.77208 -0.3167,-9.22933c2.21997,-4.84889 7.30327,-7.39926 8.49502,-10.00228c1.94262,-4.2431 1.54879,-11.9355 1.54879,-11.9355h7c0,0 0.51011,7.43845 -1.3755,11.55701c-1.40514,3.06912 -7.09456,6.94336 -9.78784,12.82605c-1.12073,2.4479 2.75788,3.89728 1.72807,6.14659c-2.5669,5.60665 -9.56474,10.97036 -9.56474,10.97036z" fill="#825000" stroke="none" stroke-width="0" stroke-linecap="butt"/><path d="M259.22162,121.43677c0,0.82843 -0.91782,1.5 -2.05,1.5c-1.13218,0 -2.05,-0.67157 -2.05,-1.5c0,-0.82843 0.91782,-1.5 2.05,-1.5c1.13218,0 2.05,0.67157 2.05,1.5z" fill="#000000" stroke="#000000" stroke-width="0.5" stroke-linecap="butt"/><path d="M251.94662,119.56995l3.45,-2.575l3.775,-0.1" fill="none" stroke="#000000" stroke-width="0.5" stroke-linecap="round"/><path d="M258.07161,133.29677c0,0 -1.99736,0.97312 -2.95236,0.96028c-0.90009,-0.01211 -2.87264,-1.66028 -2.87264,-1.66028" fill="none" stroke="#000000" stroke-width="0.5" stroke-linecap="round"/><path d="M260.62112,119.09251c0,0 -0.30535,0.875 -1.17073,1.375c-0.58873,0.34015 -1.82927,0 -1.82927,0" fill="none" stroke="#000000" stroke-width="0.5" stroke-linecap="round"/><path d="M221.83495,112.77225c0,0 5.5426,-6.22235 9.43096,-8.98187c5.69524,-4.04184 13.01891,-4.04184 18.41283,-0.44909c6.85945,4.5689 15.71827,-3.14365 15.71827,-3.14365l-3.59275,12.57461z" fill="#ffe54a" stroke="#000000" stroke-width="1" stroke-linecap="butt"/><path d="M238.44704,135.41187l5.33334,4.44047" fill="none" stroke="#000000" stroke-width="0.5" stroke-linecap="round"/><path d="M257.90862,111.57056l-2.95967,-3.01761l2.95967,-3.0176l2.95968,3.0176z" data-paper-data="{&quot;origRot&quot;:0}" fill="#ff0000" stroke="#000000" stroke-width="0.5" stroke-linecap="butt"/></g><g><path d="M245.12539,223.11909l1.66071,24.85714h-23.5c0,0 -9.6595,-15.95708 -5,-16.5c6.91235,-0.80543 6.41276,-7.32129 5.62774,-10.81117c-0.29387,-1.30644 0.15104,-2.18883 1.37277,-2.18883c3.30792,0 6.1131,0.875 9.24949,0.875c3.23298,0 10.58929,3.76786 10.58929,3.76786z" fill="#ffb89a" stroke="#000000" stroke-width="0.5" stroke-linecap="butt"/><path d="M279.51681,206.30876c0,0 -6.85095,5.04285 -9.27289,10.33289c-1.44816,3.16309 1.89953,5.77208 0.3167,9.22933c-2.21997,4.84889 -7.30327,7.39926 -8.49502,10.00228c-1.94262,4.2431 -1.54879,11.9355 -1.54879,11.9355h-27c0,0 -0.51011,-7.43845 1.3755,-11.55701c1.40514,-3.06912 7.09456,-6.94336 9.78784,-12.82605c1.12073,-2.4479 -2.75788,-3.89728 -1.72807,-6.14659c2.5669,-5.60665 9.56474,-10.97036 9.56474,-10.97036z" fill="#573600" stroke="none" stroke-width="0" stroke-linecap="butt"/><path d="M270.01681,206.19765c0,0 -6.85095,5.04285 -9.27289,10.33289c-1.44816,3.16309 1.89953,5.77208 0.3167,9.22933c-2.21997,4.84889 -7.30327,7.39926 -8.49502,10.00228c-1.94262,4.2431 -1.54879,11.9355 -1.54879,11.9355h-7c0,0 -0.51011,-7.43845 1.3755,-11.55701c1.40514,-3.06912 7.09456,-6.94336 9.78784,-12.82605c1.12073,-2.4479 -2.75788,-3.89728 -1.72807,-6.14659c2.5669,-5.60665 9.56474,-10.97036 9.56474,-10.97036z" fill="#825000" stroke="none" stroke-width="0" stroke-linecap="butt"/><path d="M223.31111,238.87622c0,-0.82843 0.91782,-1.5 2.05,-1.5c1.13218,0 2.05,0.67157 2.05,1.5c0,0.82843 -0.91782,1.5 -2.05,1.5c-1.13218,0 -2.05,-0.67157 -2.05,-1.5z" fill="#000000" stroke="#000000" stroke-width="0.5" stroke-linecap="butt"/><path d="M230.58611,240.74304l-3.45,2.575l-3.775,0.1" fill="none" stroke="#000000" stroke-width="0.5" stroke-linecap="round"/><path d="M224.46112,227.01622c0,0 1.99736,-0.97312 2.95236,-0.96028c0.90009,0.01211 2.87264,1.66028 2.87264,1.66028" fill="none" stroke="#000000" stroke-width="0.5" stroke-linecap="round"/><path d="M221.91161,241.22048c0,0 0.30535,-0.875 1.17073,-1.375c0.58873,-0.34015 1.82927,0 1.82927,0" fill="none" stroke="#000000" stroke-width="0.5" stroke-linecap="round"/><path d="M260.69778,247.54074c0,0 -5.5426,6.22235 -9.43096,8.98187c-5.69524,4.04184 -13.01891,4.04184 -18.41283,0.44909c-6.85945,-4.5689 -15.71827,3.14365 -15.71827,3.14365l3.59275,-12.57461z" fill="#ffe54a" stroke="#000000" stroke-width="1" stroke-linecap="butt"/><path d="M238.75235,220.46065l5.33334,4.44047" fill="none" stroke="#000000" stroke-width="0.5" stroke-linecap="round"/><path d="M224.6241,248.74243l2.95967,3.01761l-2.95967,3.01761l-2.95967,-3.01761z" data-paper-data="{&quot;origRot&quot;:0}" fill="#ff0000" stroke="#000000" stroke-width="0.5" stroke-linecap="butt"/></g><g stroke-linecap="butt"><g><g stroke="none"><path d="M278.64181,148.50723c0,-0.00641 0.00012,-0.0128 0.00036,-0.01916c0.00004,-0.14826 0.05443,-0.35074 0.32215,-0.44843c0.0126,-0.00479 0.02544,-0.00908 0.03851,-0.01285c0.2729,-0.0827 0.43798,0.04654 0.52706,0.16513c0.00177,0.00217 0.00351,0.00436 0.00524,0.00656l0.36075,0.45094l-0.14181,0.11345l0.0439,0.1317l-0.04162,0.01387c0.20454,1.16496 -0.07523,2.37758 0.00636,3.57304l0.09455,0.1891c0.03658,0.06948 0.05728,0.14862 0.05728,0.2326c0,0.08845 -0.02297,0.17154 -0.06326,0.24362c0.03286,0.15892 0.07502,0.31731 0.12852,0.47503c0.0303,0.09091 0.06061,0.18182 0.09091,0.27273l0.11445,0.47579c0,0 0.01522,0.16488 -0.06674,0.31363c0.2932,1.04875 0.55612,2.03247 0.91001,2.66226c1.52659,3.05318 1.88121,6.12907 1.8857,9.53063c0.00131,1.11988 0.00042,2.23976 0.00042,3.35964l-0.01493,0.21207c0,0 0.12127,0.48507 -0.3638,0.60634c-0.48507,0.12127 -0.60634,-0.3638 -0.60634,-0.3638l-0.01493,-0.4546c0,-1.11949 0.00089,-2.23899 -0.00042,-3.35848c-0.00331,-3.29502 -0.31098,-6.1463 -1.78013,-9.08458c-0.17751,-0.49453 -0.67411,-0.69914 -0.88612,-1.22361c-0.63347,-1.5671 -0.38036,-4.7145 -2.05694,-5.55279c0,0 -0.0229,-0.01145 -0.05574,-0.03435l-0.43921,-0.0732l0.00095,-0.00569c-0.29642,0.02678 -0.59915,-0.12915 -1.03646,-0.49334l-0.18182,-0.22727c0,0 -0.10957,0.18765 -0.10957,-0.31235c0,-0.37476 0.50023,-0.36321 0.75083,-0.33391c0.06436,-0.20177 0.25334,-0.34791 0.47645,-0.34791c0.09704,0 0.18762,0.02764 0.26429,0.07548l0.18651,0.11191c0.2655,-0.14349 0.63357,-0.31839 0.88915,-0.37082l0.30649,-0.30649v0c0.09048,-0.09048 0.21548,-0.14645 0.35355,-0.14645c0.01609,0 0.032,0.00076 0.0477,0.00225c-0.00149,-0.0157 -0.00225,-0.03161 -0.00225,-0.0477zM278.41431,150.19176c0.00706,-0.0056 0.0144,-0.01112 0.02201,-0.01657c-0.00361,-0.03607 -0.0076,-0.07209 -0.01202,-0.10804c-0.00787,0.0138 -0.01582,0.02757 -0.02388,0.04128c0.00463,0.02777 0.00926,0.05555 0.01389,0.08332z" fill="#00ab25" stroke-width="0.5"/><g stroke-width="0"><path d="M281.05331,154.90044c0.90826,-1.38775 2.76954,-1.77644 4.15728,-0.86819c1.38775,0.90826 1.77644,2.76954 0.86819,4.15728c-0.90826,1.38775 -2.76954,1.77644 -4.15728,0.86819c-1.38775,-0.90826 -1.77644,-2.76954 -0.86819,-4.15728z" fill="#00ab25"/><path d="M280.7806,155.09389l7.07385,-5.10805l0.08854,0.05795l-1.9386,8.469z" fill="#00ab25"/><path d="M278.63791,149.17095l-6.69453,1.02084l-4.2104,-5.30392l6.69454,-1.02084z" data-paper-data="{&quot;origRot&quot;:0}" fill="#f7d300"/><path d="M277.77693,149.5569l-1.02084,-6.69453l5.30392,-4.2104l1.02084,6.69454z" data-paper-data="{&quot;origRot&quot;:0}" fill="#f7d300"/><path d="M277.1547,147.14715l-6.13928,-2.82074l2.70121,-6.19281l6.13929,2.82075z" data-paper-data="{&quot;origRot&quot;:0}" fill="#ff0000"/></g></g><path d="M287.62224,173.60247c0,5.00726 -2.30021,9.06646 -5.13766,9.06646c-2.83745,0 -5.13765,-4.05919 -5.13765,-9.06646c0,-1.42074 -0.60856,-3.57991 -0.03274,-7.23416c0.45374,-2.87945 4.18062,-4.05039 4.58501,-3.31596c1.45687,2.64585 -1.87372,4.667 -0.47573,6.61237c1.65584,2.30419 6.19877,-1.06951 6.19877,3.93775z" fill="#ffb89a" stroke="#000000" stroke-width="0.5"/></g><g><g stroke="none"><path d="M202.63416,211.4953c0,0.00641 -0.00012,0.0128 -0.00036,0.01916c-0.00004,0.14826 -0.05443,0.35074 -0.32215,0.44843c-0.0126,0.00479 -0.02544,0.00908 -0.03851,0.01285c-0.2729,0.0827 -0.43798,-0.04654 -0.52706,-0.16513c-0.00177,-0.00217 -0.00351,-0.00436 -0.00524,-0.00656l-0.36075,-0.45094l0.14181,-0.11345l-0.0439,-0.1317l0.04162,-0.01387c-0.20454,-1.16496 0.07523,-2.37758 -0.00636,-3.57304l-0.09455,-0.1891c-0.03658,-0.06948 -0.05728,-0.14862 -0.05728,-0.2326c0,-0.08845 0.02297,-0.17154 0.06326,-0.24362c-0.03286,-0.15892 -0.07502,-0.31731 -0.12852,-0.47503c-0.0303,-0.09091 -0.06061,-0.18182 -0.09091,-0.27273l-0.11445,-0.47579c0,0 -0.01522,-0.16488 0.06674,-0.31363c-0.2932,-1.04875 -0.55612,-2.03247 -0.91001,-2.66226c-1.52659,-3.05318 -1.88121,-6.12907 -1.8857,-9.53063c-0.00131,-1.11988 -0.00042,-2.23976 -0.00042,-3.35964l0.01493,-0.21207c0,0 -0.12127,-0.48507 0.3638,-0.60634c0.48507,-0.12127 0.60634,0.3638 0.60634,0.3638l0.01493,0.4546c0,1.11949 -0.00089,2.23899 0.00042,3.35848c0.00331,3.29502 0.31098,6.1463 1.78013,9.08458c0.17751,0.49453 0.67411,0.69914 0.88612,1.22361c0.63347,1.5671 0.38036,4.7145 2.05694,5.55279c0,0 0.0229,0.01145 0.05574,0.03435l0.43921,0.0732l-0.00095,0.00569c0.29642,-0.02678 0.59915,0.12915 1.03646,0.49334l0.18182,0.22727c0,0 0.10957,-0.18765 0.10957,0.31235c0,0.37476 -0.50023,0.36321 -0.75083,0.33391c-0.06436,0.20177 -0.25334,0.34791 -0.47645,0.34791c-0.09704,0 -0.18762,-0.02764 -0.26429,-0.07548l-0.18651,-0.11191c-0.2655,0.14349 -0.63357,0.31839 -0.88915,0.37082l-0.30649,0.30649v0c-0.09048,0.09048 -0.21548,0.14645 -0.35355,0.14645c-0.01609,0 -0.032,-0.00076 -0.0477,-0.00225c0.00149,0.0157 0.00225,0.03161 0.00225,0.0477zM202.86167,209.81077c-0.00706,0.0056 -0.0144,0.01112 -0.02201,0.01657c0.00361,0.03607 0.0076,0.07209 0.01202,0.10804c0.00787,-0.0138 0.01582,-0.02757 0.02388,-0.04128c-0.00463,-0.02777 -0.00926,-0.05555 -0.01389,-0.08332z" fill="#00ab25" stroke-width="0.5"/><g stroke-width="0"><path d="M200.22267,205.10209c-0.90826,1.38775 -2.76954,1.77644 -4.15728,0.86819c-1.38775,-0.90826 -1.77644,-2.76954 -0.86819,-4.15728c0.90826,-1.38775 2.76954,-1.77644 4.15728,-0.86819c1.38775,0.90826 1.77644,2.76954 0.86819,4.15728z" fill="#00ab25"/><path d="M200.49537,204.90864l-7.07385,5.10805l-0.08854,-0.05795l1.9386,-8.469z" fill="#00ab25"/><path d="M202.63806,210.83158l6.69453,-1.02084l4.2104,5.30392l-6.69454,1.02084z" data-paper-data="{&quot;origRot&quot;:0}" fill="#f7d300"/><path d="M203.49905,210.44563l1.02084,6.69453l-5.30392,4.2104l-1.02084,-6.69454z" data-paper-data="{&quot;origRot&quot;:0}" fill="#f7d300"/><path d="M204.12127,212.85538l6.13928,2.82074l-2.70121,6.19281l-6.13929,-2.82075z" data-paper-data="{&quot;origRot&quot;:0}" fill="#ff0000"/></g></g><path d="M193.65374,186.40006c0,-5.00726 2.30021,-9.06646 5.13766,-9.06646c2.83745,0 5.13765,4.05919 5.13765,9.06646c0,1.42074 0.60856,3.57991 0.03274,7.23416c-0.45374,2.87945 -4.18062,4.05039 -4.58501,3.31596c-1.45687,-2.64585 1.87372,-4.667 0.47573,-6.61237c-1.65584,-2.30419 -6.19877,1.06951 -6.19877,-3.93775z" fill="#ffb89a" stroke="#000000" stroke-width="0.5"/></g></g></g></g></svg>