<svg version="1.1" xmlns="http://www.w3.org/2000/svg" xmlns:xlink="http://www.w3.org/1999/xlink" width="143.5" height="191.5" viewBox="0,0,143.5,191.5"><defs><radialGradient cx="240" cy="179.68224" r="30.75" gradientUnits="userSpaceOnUse" id="color-1"><stop offset="0" stop-color="#ff0000"/><stop offset="1" stop-color="#fbff00"/></radialGradient></defs><g transform="translate(-167.63945,-84.35176)"><g data-paper-data="{&quot;isPaintingLayer&quot;:true}" fill-rule="nonzero" stroke-linejoin="miter" stroke-miterlimit="10" stroke-dasharray="" stroke-dashoffset="0" style="mix-blend-mode: normal"><path d="M171.88945,272.26843c0,0 -4,-5.34526 -4,-10.89999c0,-16.66422 0,-97.96444 0,-160.66667c0,-6.28323 4.33334,-11.76667 4.33334,-11.76667c0,0 5.11759,-4.33334 11.16666,-4.33334c44.09971,0 96.02357,0 113,0c5.65881,0 11.16666,5.33334 11.16666,5.33334c0,0 3.33334,4.28019 3.33334,10.43334c0,62.31197 0,141.44139 0,159.66666c0,6.07509 -2.66667,10.9 -2.66667,10.9c0,0 -6.17452,4.66666 -11.83333,4.66666c-16.97643,0 -69.10355,0 -113.33334,0c-5.91898,0 -11.16666,-3.33333 -11.16666,-3.33333z" fill="#ffffff" stroke="#000000" stroke-width="0.5" stroke-linecap="butt"/><text transform="translate(181.59377,115.57995) scale(0.5,0.5)" font-size="40" xml:space="preserve" fill="#ff0000" fill-rule="nonzero" stroke="none" stroke-width="1" stroke-linecap="butt" stroke-linejoin="miter" stroke-miterlimit="10" stroke-dasharray="" stroke-dashoffset="0" font-family="Serif" font-weight="normal" text-anchor="start" style="mix-blend-mode: normal"><tspan x="0" dy="0">K</tspan></text><text transform="translate(298.23251,248.32155) rotate(-180) scale(0.5,0.5)" font-size="40" xml:space="preserve" data-paper-data="{&quot;origRot&quot;:-45}" fill="#ff0000" fill-rule="nonzero" stroke="none" stroke-width="1" stroke-linecap="butt" stroke-linejoin="miter" stroke-miterlimit="10" stroke-dasharray="" stroke-dashoffset="0" font-family="Serif" font-weight="normal" text-anchor="start" style="mix-blend-mode: normal"><tspan x="0" dy="0">K</tspan></text><path d="M182.18815,128.27436c0,0 -3.96298,-4.43397 0.21349,-6.7756c3.48333,-2.32165 6.42655,2.92795 6.42655,2.92795c0,0 3.08613,-5.38656 6.28693,-2.92795c3.97679,2.72809 0.42292,6.91522 0.42292,6.91522l-6.64004,7.0589l0.06981,-0.06981z" data-paper-data="{&quot;origRot&quot;:0}" fill="#ff0000" stroke="#000000" stroke-width="0.5" stroke-linecap="butt"/><g stroke="none" stroke-width="0" stroke-linecap="butt"><path d="M197.25003,179.68224c0,-23.61017 19.13983,-42.75 42.75,-42.75c23.61018,0 42.75,19.13983 42.75,42.75c0,23.61018 -19.13982,42.75 -42.75,42.75c-23.61017,0 -42.75,-19.13983 -42.75,-42.75z" fill="#b60000"/><path d="M209.25,179.68224c0,-16.98275 13.76725,-30.75 30.75,-30.75c16.98275,0 30.75,13.76725 30.75,30.75c0,16.98275 -13.76725,30.75 -30.75,30.75c-16.98275,0 -30.75,-13.76725 -30.75,-30.75z" fill="url(#color-1)"/><path d="M224.5,179.68224c0,-8.56042 6.93958,-15.5 15.5,-15.5c8.56042,0 15.5,6.93958 15.5,15.5c0,8.56042 -6.93958,15.5 -15.5,15.5c-8.56042,0 -15.5,-6.93958 -15.5,-15.5z" fill="#b60000"/></g><path d="M296.8755,234.05052c0,0 3.96298,4.43397 -0.21349,6.7756c-3.48333,2.32164 -6.42655,-2.92795 -6.42655,-2.92795c0,0 -3.08614,5.38656 -6.28694,2.92795c-3.97679,-2.72809 -0.42292,-6.91522 -0.42292,-6.91522l6.64004,-7.0589l-0.06981,0.06981z" data-paper-data="{&quot;origRot&quot;:0}" fill="#ff0000" stroke="#000000" stroke-width="0.5" stroke-linecap="butt"/><g><path d="M245.34038,226.29667l-0.5,22.5h-23.5c0,0 -9.6595,-15.95708 -5,-16.5c9.5,-1.10694 5,-13 5,-13c0,0 10.70524,0 15,0c3.23298,0 9,7 9,7z" fill="#ffb89a" stroke="#000000" stroke-width="0.5" stroke-linecap="butt"/><path d="M277.76313,207.31459c0,0 -6.85095,5.04285 -9.27289,10.33289c-1.44816,3.16309 1.89953,5.77208 0.3167,9.22933c-2.21997,4.84889 -7.30327,7.39926 -8.49502,10.00228c-1.94262,4.2431 -1.54879,11.9355 -1.54879,11.9355h-27c0,0 -0.51011,-7.43845 1.3755,-11.55701c1.40514,-3.06912 7.09456,-6.94336 9.78784,-12.82605c1.12073,-2.4479 -2.75788,-3.89728 -1.72807,-6.14659c2.5669,-5.60665 9.56474,-10.97036 9.56474,-10.97036z" fill="#cf8000" stroke="none" stroke-width="0" stroke-linecap="butt"/><path d="M268.26313,207.55118c0,0 -6.85095,5.04285 -9.27289,10.33289c-1.44816,3.16309 1.89953,5.77208 0.3167,9.22933c-2.21997,4.84889 -7.30327,7.39926 -8.49502,10.00228c-1.94262,4.2431 -1.54879,11.9355 -1.54879,11.9355h-7c0,0 -0.51011,-7.43845 1.3755,-11.55701c1.40514,-3.06912 7.09456,-6.94336 9.78784,-12.82605c1.12073,-2.4479 -2.75788,-3.89728 -1.72807,-6.14659c2.5669,-5.60665 9.56474,-10.97036 9.56474,-10.97036z" fill="#825000" stroke="none" stroke-width="0" stroke-linecap="butt"/><path d="M221.24038,239.69667c0,-0.82843 0.91782,-1.5 2.05,-1.5c1.13218,0 2.05,0.67157 2.05,1.5c0,0.82843 -0.91782,1.5 -2.05,1.5c-1.13218,0 -2.05,-0.67157 -2.05,-1.5z" fill="#000000" stroke="#000000" stroke-width="0.5" stroke-linecap="butt"/><path d="M219.79039,241.83667l5.4,1.4l2.2,0.8" fill="none" stroke="#000000" stroke-width="0.5" stroke-linecap="round"/><path d="M222.46098,226.04694l4.3043,1.53396" fill="none" stroke="#000000" stroke-width="0.5" stroke-linecap="round"/><path d="M229.95265,229.1441c0.09244,0.392 -0.54519,-0.31141 -2.02426,0.13777c-1.84896,0.79393 -3.30198,2.41423 -3.65146,2.54091c-2.15854,0.78244 -2.12917,-1.65317 -2.48796,-2.87234c0,0 -0.21174,-0.71949 0.50775,-0.93123c0.71949,-0.21174 0.93123,0.50775 0.93123,0.50775c0.35924,1.2207 0.08349,2.30848 0.44506,1.85178c0.73355,-0.92655 3.40823,-2.35013 4.64952,-2.37596c0.13657,0.0154 1.45796,0.41135 1.63011,1.14132z" fill="#000000" stroke="none" stroke-width="0.5" stroke-linecap="butt"/><path d="M258.35776,248.6612l2.24547,12.57461c0,0 -7.78808,-6.35226 -11.67643,-3.59274c-5.69524,4.04184 -13.01891,4.04184 -18.41284,0.44909c-6.85945,-4.56889 -15.71827,3.14365 -15.71827,3.14365l3.59275,-12.57461z" fill="#ffe54a" stroke="#000000" stroke-width="1" stroke-linecap="butt"/><path d="M241.38768,255.76606c0,0 1.41838,1.55756 -0.07641,2.38012c-1.24671,0.81555 -2.30012,-1.02852 -2.30012,-1.02852c0,0 -1.10455,1.89218 -2.25014,1.02852c-1.42333,-0.95831 -0.15136,-2.42916 -0.15136,-2.42916l2.37652,-2.47963l-0.02499,0.02452z" data-paper-data="{&quot;origRot&quot;:0}" fill="#ff0000" stroke="none" stroke-width="0" stroke-linecap="butt"/></g><g><path d="M237.62315,133.7078l0.5,-22.5h23.5c0,0 9.6595,15.95708 5,16.5c-9.5,1.10694 -5,13 -5,13c0,0 -10.70524,0 -15,0c-3.23298,0 -9,-7 -9,-7z" fill="#ffb89a" stroke="#000000" stroke-width="0.5" stroke-linecap="butt"/><path d="M205.20041,152.68988c0,0 6.85095,-5.04285 9.27289,-10.33289c1.44816,-3.16309 -1.89953,-5.77208 -0.3167,-9.22933c2.21997,-4.84889 7.30327,-7.39926 8.49502,-10.00228c1.94262,-4.2431 1.54879,-11.9355 1.54879,-11.9355h27c0,0 0.51011,7.43845 -1.3755,11.55701c-1.40514,3.06912 -7.09456,6.94336 -9.78784,12.82605c-1.12073,2.4479 2.75788,3.89728 1.72807,6.14659c-2.5669,5.60665 -9.56474,10.97036 -9.56474,10.97036z" fill="#cf8000" stroke="none" stroke-width="0" stroke-linecap="butt"/><path d="M214.70041,152.45329c0,0 6.85095,-5.04285 9.27289,-10.33289c1.44816,-3.16309 -1.89953,-5.77208 -0.3167,-9.22933c2.21997,-4.84889 7.30327,-7.39926 8.49502,-10.00228c1.94262,-4.2431 1.54879,-11.9355 1.54879,-11.9355h7c0,0 0.51011,7.43845 -1.3755,11.55701c-1.40514,3.06912 -7.09456,6.94336 -9.78784,12.82605c-1.12073,2.4479 2.75788,3.89728 1.72807,6.14659c-2.5669,5.60665 -9.56474,10.97036 -9.56474,10.97036z" fill="#825000" stroke="none" stroke-width="0" stroke-linecap="butt"/><path d="M261.72315,120.3078c0,0.82843 -0.91782,1.5 -2.05,1.5c-1.13218,0 -2.05,-0.67157 -2.05,-1.5c0,-0.82843 0.91782,-1.5 2.05,-1.5c1.13218,0 2.05,0.67157 2.05,1.5z" fill="#000000" stroke="#000000" stroke-width="0.5" stroke-linecap="butt"/><path d="M263.17314,118.1678l-5.4,-1.4l-2.2,-0.8" fill="none" stroke="#000000" stroke-width="0.5" stroke-linecap="round"/><path d="M260.50255,133.95753l-4.3043,-1.53396" fill="none" stroke="#000000" stroke-width="0.5" stroke-linecap="round"/><path d="M253.01088,130.86037c-0.09244,-0.392 0.54519,0.31141 2.02426,-0.13777c1.84896,-0.79393 3.30199,-2.41423 3.65146,-2.54091c2.15853,-0.78244 2.12917,1.65317 2.48796,2.87234c0,0 0.21174,0.71949 -0.50775,0.93123c-0.71949,0.21174 -0.93123,-0.50775 -0.93123,-0.50775c-0.35924,-1.2207 -0.08349,-2.30848 -0.44506,-1.85178c-0.73355,0.92655 -3.40824,2.35013 -4.64953,2.37596c-0.13657,-0.0154 -1.45796,-0.41135 -1.63011,-1.14133z" fill="#000000" stroke="none" stroke-width="0.5" stroke-linecap="butt"/><path d="M224.60577,111.34327l-2.24547,-12.57461c0,0 7.78808,6.35226 11.67643,3.59274c5.69524,-4.04184 13.01891,-4.04184 18.41284,-0.44909c6.85945,4.56889 15.71827,-3.14365 15.71827,-3.14365l-3.59275,12.57461z" fill="#ffe54a" stroke="#000000" stroke-width="1" stroke-linecap="butt"/><path d="M241.57585,104.23841c0,0 -1.41838,-1.55756 0.07641,-2.38012c1.24671,-0.81555 2.30012,1.02852 2.30012,1.02852c0,0 1.10455,-1.89218 2.25014,-1.02852c1.42333,0.95831 0.15136,2.42916 0.15136,2.42916l-2.37652,2.47963l0.02499,-0.02452z" data-paper-data="{&quot;origRot&quot;:0}" fill="#ff0000" stroke="none" stroke-width="0" stroke-linecap="butt"/></g><g stroke-linecap="butt"><g><path d="M283.06343,161.16805c0,0 0,-25.02751 0,-31.52124c0,-2.90408 3.36019,-6.30425 3.36019,-6.30425v37.82549z" fill="#d0d0d0" stroke="#000000" stroke-width="0.5"/><path d="M286.29492,161.23957v-37.82549c0,0 3.36019,3.40017 3.36019,6.30425c0,6.49373 0,31.52124 0,31.52124z" data-paper-data="{&quot;index&quot;:null}" fill="#dedede" stroke="#000000" stroke-width="0.5"/><path d="M278.99584,164.32018v-2.88944h14.325v2.88944z" fill="#dedede" stroke="#000000" stroke-width="0.5"/><path d="M283.59398,176.92867v-12.6085h5.48241v12.6085z" fill="#513200" stroke="#000000" stroke-width="0.5"/><path d="M285.02179,167.74952c0,0 -0.82502,-0.90597 0.04444,-1.38442c0.72516,-0.47438 1.3379,0.59824 1.3379,0.59824c0,0 0.64247,-1.1006 1.30881,-0.59824c0.8279,0.5574 0.08805,1.41295 0.08805,1.41295l-1.38234,1.4423l0.01454,-0.01426z" data-paper-data="{&quot;origRot&quot;:0}" fill="#ff0000" stroke="none" stroke-width="0"/></g><path d="M289.82522,174.7325c0,5.00726 -2.30021,9.06646 -5.13766,9.06646c-2.83745,0 -5.13765,-4.05919 -5.13765,-9.06646c0,-1.42074 -0.60856,-3.57991 -0.03274,-7.23416c0.45374,-2.87945 4.18062,-4.05039 4.58501,-3.31596c1.45687,2.64585 -1.87372,4.667 -0.47573,6.61237c1.65584,2.30419 6.19877,-1.06951 6.19877,3.93775z" fill="#ffb89a" stroke="#000000" stroke-width="0.5"/><g><path d="M197.41992,200.64014c0,0 0,25.02751 0,31.52124c0,2.90408 -3.36019,6.30425 -3.36019,6.30425v-37.82549z" fill="#d0d0d0" stroke="#000000" stroke-width="0.5"/><path d="M194.18843,200.56862v37.82549c0,0 -3.36019,-3.40017 -3.36019,-6.30425c0,-6.49373 0,-31.52124 0,-31.52124z" data-paper-data="{&quot;index&quot;:null}" fill="#dedede" stroke="#000000" stroke-width="0.5"/><path d="M201.48751,197.48801v2.88944h-14.325v-2.88944z" fill="#dedede" stroke="#000000" stroke-width="0.5"/><path d="M196.88937,184.87952v12.6085h-5.48241v-12.6085z" fill="#513200" stroke="#000000" stroke-width="0.5"/><path d="M195.46156,194.05867c0,0 0.82502,0.90597 -0.04444,1.38442c-0.72516,0.47437 -1.3379,-0.59825 -1.3379,-0.59825c0,0 -0.64247,1.1006 -1.30882,0.59825c-0.8279,-0.55741 -0.08804,-1.41295 -0.08804,-1.41295l1.38234,-1.44229l-0.01454,0.01425z" data-paper-data="{&quot;origRot&quot;:0}" fill="#ff0000" stroke="none" stroke-width="0"/></g><path d="M190.65813,187.07569c0,-5.00726 2.30021,-9.06646 5.13766,-9.06646c2.83745,0 5.13765,4.05919 5.13765,9.06646c0,1.42074 0.60856,3.57991 0.03274,7.23416c-0.45374,2.87945 -4.18062,4.05039 -4.58501,3.31596c-1.45687,-2.64585 1.87372,-4.667 0.47573,-6.61237c-1.65584,-2.30419 -6.19877,1.06951 -6.19877,-3.93775z" fill="#ffb89a" stroke="#000000" stroke-width="0.5"/></g></g></g></svg>