<svg version="1.1" xmlns="http://www.w3.org/2000/svg" xmlns:xlink="http://www.w3.org/1999/xlink" width="143.5" height="191.5" viewBox="0,0,143.5,191.5"><g transform="translate(-168.25,-84.25)"><g data-paper-data="{&quot;isPaintingLayer&quot;:true}" fill-rule="nonzero" stroke-linecap="butt" stroke-linejoin="miter" stroke-miterlimit="10" stroke-dasharray="" stroke-dashoffset="0" style="mix-blend-mode: normal"><path d="M172.5,272.16667c0,0 -4,-5.34526 -4,-10.89999c0,-16.66422 0,-97.96444 0,-160.66667c0,-6.28323 4.33334,-11.76667 4.33334,-11.76667c0,0 5.11759,-4.33334 11.16666,-4.33334c44.09971,0 96.02357,0 113,0c5.65881,0 11.16666,5.33334 11.16666,5.33334c0,0 3.33334,4.28019 3.33334,10.43334c0,62.31197 0,141.44139 0,159.66666c0,6.07509 -2.66667,10.9 -2.66667,10.9c0,0 -6.17452,4.66666 -11.83333,4.66666c-16.97643,0 -69.10355,0 -113.33334,0c-5.91898,0 -11.16666,-3.33333 -11.16666,-3.33333z" fill="#ffffff" stroke="#000000" stroke-width="0.5"/><text transform="translate(181.4718,115.70191) scale(0.5,0.5)" font-size="40" xml:space="preserve" fill="#000000" fill-rule="nonzero" stroke="none" stroke-width="1" stroke-linecap="butt" stroke-linejoin="miter" stroke-miterlimit="10" stroke-dasharray="" stroke-dashoffset="0" font-family="Serif" font-weight="normal" text-anchor="start" style="mix-blend-mode: normal"><tspan x="0" dy="0">3</tspan></text><text transform="translate(298.23251,248.32155) rotate(-180) scale(0.5,0.5)" font-size="40" xml:space="preserve" data-paper-data="{&quot;origRot&quot;:-45}" fill="#000000" fill-rule="nonzero" stroke="none" stroke-width="1" stroke-linecap="butt" stroke-linejoin="miter" stroke-miterlimit="10" stroke-dasharray="" stroke-dashoffset="0" font-family="Serif" font-weight="normal" text-anchor="start" style="mix-blend-mode: normal"><tspan x="0" dy="0">3</tspan></text><g fill="#000000" stroke="#000000"><path d="M195.29957,128.05446c0,0 3.96298,4.43397 -0.21349,6.7756c-3.48333,2.32165 -6.42655,-2.92795 -6.42655,-2.92795c0,0 -3.08613,5.38656 -6.28693,2.92795c-3.97679,-2.72809 -0.42292,-6.91522 -0.42292,-6.91522l6.64004,-7.0589l-0.06981,0.06981z" data-paper-data="{&quot;origRot&quot;:0}" stroke-width="1.5"/><path d="M185.16318,137.94299l1.68521,-4.15409c0,0 1.02125,-8.64654 1.58939,-12.83275c0.02709,-0.19959 -0.01956,-0.10685 0.00645,0.09289c0.42605,3.27208 1.67842,12.616 1.67842,12.616l2.09131,4.20815z" stroke-width="0.5"/></g><g data-paper-data="{&quot;origRot&quot;:0}" fill="#000000" stroke="#000000"><path d="M283.76406,234.27041c0,0 -3.96298,-4.43397 0.21349,-6.7756c3.48333,-2.32164 6.42655,2.92795 6.42655,2.92795c0,0 3.08614,-5.38656 6.28694,-2.92795c3.97679,2.72809 0.42292,6.91522 0.42292,6.91522l-6.64004,7.0589l0.06981,-0.06981z" data-paper-data="{&quot;origRot&quot;:0}" stroke-width="1.5"/><path d="M293.90045,224.38188l-1.68521,4.15409c0,0 -1.02125,8.64654 -1.58939,12.83275c-0.02709,0.19959 0.01955,0.10686 -0.00646,-0.09288c-0.42606,-3.27208 -1.67842,-12.616 -1.67842,-12.616l-2.0913,-4.20815z" stroke-width="0.5"/></g><g fill="none" stroke="#000000" stroke-width="1.5"><path d="M247.18049,128.44388c0,0 4.18642,4.68397 -0.22553,7.15763c-3.67973,2.45255 -6.7889,-3.09304 -6.7889,-3.09304c0,0 -3.26013,5.69027 -6.64141,3.09304c-4.20101,-2.88191 -0.44676,-7.30512 -0.44676,-7.30512l7.01443,-7.4569l-0.07375,0.07375z" data-paper-data="{&quot;origRot&quot;:0}"/><path d="M236.47258,138.88996c0,0 3.57375,-7.31031 3.60123,-7.09931c1.53155,2.84824 3.84709,7.02557 3.84709,7.02557z"/></g><g data-paper-data="{&quot;origRot&quot;:0}" fill="none" stroke="#000000" stroke-width="1.5"><path d="M233.72432,234.97477c0,0 -4.18642,-4.68397 0.22553,-7.15763c3.67973,-2.45255 6.7889,3.09303 6.7889,3.09303c0,0 3.26013,-5.69027 6.6414,-3.09303c4.20101,2.8819 0.44677,7.30512 0.44677,7.30512l-7.01443,7.4569l0.07374,-0.07375z" data-paper-data="{&quot;origRot&quot;:0}"/><path d="M244.43223,224.5287c0,0 -3.57375,7.31031 -3.60123,7.09931c-1.53154,-2.84823 -3.84709,-7.02557 -3.84709,-7.02557z"/></g><g fill="none" stroke="#000000" stroke-width="1.5"><path d="M246.92535,175.94744c0,0 4.18642,4.68397 -0.22553,7.15763c-3.67973,2.45255 -6.7889,-3.09304 -6.7889,-3.09304c0,0 -3.26013,5.69027 -6.64141,3.09304c-4.20101,-2.88191 -0.44676,-7.30512 -0.44676,-7.30512l7.01443,-7.4569l-0.07375,0.07375z" data-paper-data="{&quot;origRot&quot;:0}"/><path d="M236.21744,186.39352c0,0 3.57375,-7.31031 3.60123,-7.09931c1.53155,2.84824 3.84709,7.02557 3.84709,7.02557z"/></g></g></g></svg>