<svg version="1.1" xmlns="http://www.w3.org/2000/svg" xmlns:xlink="http://www.w3.org/1999/xlink" width="143.5" height="191.5" viewBox="0,0,143.5,191.5"><defs><linearGradient x1="240.18864" y1="150.8353" x2="240.18864" y2="209.1647" gradientUnits="userSpaceOnUse" id="color-1"><stop offset="0" stop-color="#a6a6a6"/><stop offset="1" stop-color="#000000"/></linearGradient><linearGradient x1="240.65114" y1="181.4171" x2="240.65114" y2="194.82527" gradientUnits="userSpaceOnUse" id="color-2"><stop offset="0" stop-color="#000000"/><stop offset="1" stop-color="#ff0000"/></linearGradient><linearGradient x1="240.65069" y1="195.17307" x2="240.65069" y2="208.58124" gradientUnits="userSpaceOnUse" id="color-3"><stop offset="0" stop-color="#ff4600"/><stop offset="1" stop-color="#000000"/></linearGradient><radialGradient cx="240.72098" cy="195.09859" r="2.73653" gradientUnits="userSpaceOnUse" id="color-4"><stop offset="0" stop-color="#000000"/><stop offset="1" stop-color="#000cff"/></radialGradient></defs><g transform="translate(-168.25,-84.25)"><g data-paper-data="{&quot;isPaintingLayer&quot;:true}" fill-rule="nonzero" stroke-linejoin="miter" stroke-miterlimit="10" stroke-dasharray="" stroke-dashoffset="0" style="mix-blend-mode: normal"><path d="M172.5,272.16667c0,0 -4,-5.34526 -4,-10.89999c0,-16.66422 0,-97.96444 0,-160.66667c0,-6.28323 4.33334,-11.76667 4.33334,-11.76667c0,0 5.11759,-4.33334 11.16666,-4.33334c44.09971,0 96.02357,0 113,0c5.65881,0 11.16666,5.33334 11.16666,5.33334c0,0 3.33334,4.28019 3.33334,10.43334c0,62.31197 0,141.44139 0,159.66666c0,6.07509 -2.66667,10.9 -2.66667,10.9c0,0 -6.17452,4.66666 -11.83333,4.66666c-16.97643,0 -69.10355,0 -113.33334,0c-5.91898,0 -11.16666,-3.33333 -11.16666,-3.33333z" fill="#ffffff" stroke="#000000" stroke-width="0.5" stroke-linecap="butt"/><g><path d="M240.76399,151.11065l-0.23816,-0.23816l22.65237,24.08131c0,0 12.12399,14.28432 -1.44277,23.59115c-10.91947,8.3875 -21.44776,-9.98865 -21.44776,-9.98865c0,0 -10.04076,17.9089 -21.92407,9.98864c-14.24795,-7.9884 -0.72831,-23.11483 -0.72831,-23.11483z" data-paper-data="{&quot;origRot&quot;:0}" fill="none" stroke="#000000" stroke-width="1.5" stroke-linecap="butt"/><path d="M228.16183,208.92655l7.13445,-14.35602c0,0 4.27241,-31.87659 5.7259,-43.03924c0.08873,-0.68141 -0.0704,-0.99779 0.02201,-0.31688c1.9382,14.28116 5.42218,43.77869 5.42218,43.77869l5.74908,14.17161z" fill="url(#color-1)" stroke="#000000" stroke-width="0.5" stroke-linecap="butt"/><g><path d="M242.44242,197.8936l-0.88254,-1.08846" data-paper-data="{&quot;index&quot;:null}" fill="none" stroke="#855d08" stroke-width="3.5" stroke-linecap="round"/><path d="M239.67583,198.20256l0.00263,-1.08183" data-paper-data="{&quot;index&quot;:null,&quot;origRot&quot;:0}" fill="none" stroke="#855d08" stroke-width="3.5" stroke-linecap="round"/><path d="M235.51425,194.82527l5.1369,-13.40816h0.17413l4.96277,13.40816z" fill="url(#color-2)" stroke="#000000" stroke-width="0.5" stroke-linecap="butt"/><path d="M245.78758,195.17307l-5.13689,13.40816h-0.17414c0,0 -0.07755,-0.20953 -0.12719,-0.34364c-0.14892,-0.40233 -4.83557,-13.06452 -4.83557,-13.06452z" data-paper-data="{&quot;origRot&quot;:0}" fill="url(#color-3)" stroke="#000000" stroke-width="0" stroke-linecap="butt"/><path d="M245.58043,195.13296c-0.8639,1.23929 -2.26031,2.73533 -5.04855,2.73533c-2.42389,0 -5.04685,-2.65033 -5.04804,-2.69617c-0.00039,-0.01528 -0.00051,-0.02388 -0.00051,-0.03916c0,-0.11458 -0.02285,-0.18928 0.02838,-0.29176c0.14812,-0.29629 2.69558,-2.44357 5.02017,-2.44357c0,0 1.20676,0.04208 2.37505,0.48697c0,0 3.26873,1.39449 2.6735,2.24836z" fill="#ffffff" stroke="#000000" stroke-width="0.5" stroke-linecap="butt"/><path d="M237.98445,195.09859c0,-1.51135 1.22519,-2.73653 2.73654,-2.73653c1.51135,0 2.73653,1.22518 2.73653,2.73653c0,1.51135 -1.22519,2.73654 -2.73653,2.73654c-1.51135,0 -2.73654,-1.22519 -2.73654,-2.73654z" fill="url(#color-4)" stroke="#000000" stroke-width="0.5" stroke-linecap="butt"/><path d="M240.73373,197.76282c0,0 0.08983,-0.9684 -0.82134,-1.83061c-0.63664,-0.60244 -1.97105,-0.69357 -1.97105,-0.69357c0,0 1.25676,0.02724 1.98772,-0.73301c0.65786,-0.68422 0.71513,-2.03639 0.71513,-2.03639c0,0 0.00303,1.40199 0.67504,2.0379c0.71917,0.68053 2.01297,0.63124 2.01297,0.63124c0,0 -1.23962,0.03672 -1.93684,0.76189c-0.6916,0.71931 -0.66164,1.86255 -0.66164,1.86255z" data-paper-data="{&quot;origRot&quot;:0}" fill="#0090ff" stroke="#000000" stroke-width="0.5" stroke-linecap="butt"/></g><path d="M212.20547,185.82555l28.57856,-34.05611l-27.86409,40.48629" fill="none" stroke="#000000" stroke-width="0.5" stroke-linecap="round"/><path d="M217.68303,197.49513l23.101,-45.72568l-12.6222,47.86908" fill="none" stroke="#000000" stroke-width="0.5" stroke-linecap="round"/><path d="M235.26942,194.27495l6.22907,-42.74366" fill="none" stroke="#000000" stroke-width="0.5" stroke-linecap="round"/><path d="M267.9324,190.82555l-26.43516,-38.58105l26.19701,31.91272" data-paper-data="{&quot;index&quot;:null}" fill="none" stroke="#000000" stroke-width="0.5" stroke-linecap="round"/><path d="M254.11943,199.87543l-12.6222,-47.63093l22.14839,44.29676" data-paper-data="{&quot;index&quot;:null}" fill="none" stroke="#000000" stroke-width="0.5" stroke-linecap="round"/><path d="M246.71996,195.29025l-5.69903,-43.2839" data-paper-data="{&quot;index&quot;:null}" fill="none" stroke="#000000" stroke-width="0.5" stroke-linecap="round"/></g><text transform="translate(181.4718,115.70191) scale(0.5,0.5)" font-size="40" xml:space="preserve" fill="#000000" fill-rule="nonzero" stroke="none" stroke-width="1" stroke-linecap="butt" stroke-linejoin="miter" stroke-miterlimit="10" stroke-dasharray="" stroke-dashoffset="0" font-family="Serif" font-weight="normal" text-anchor="start" style="mix-blend-mode: normal"><tspan x="0" dy="0">A</tspan></text><text transform="translate(298.23251,248.32155) rotate(-180) scale(0.5,0.5)" font-size="40" xml:space="preserve" data-paper-data="{&quot;origRot&quot;:-45}" fill="#000000" fill-rule="nonzero" stroke="none" stroke-width="1" stroke-linecap="butt" stroke-linejoin="miter" stroke-miterlimit="10" stroke-dasharray="" stroke-dashoffset="0" font-family="Serif" font-weight="normal" text-anchor="start" style="mix-blend-mode: normal"><tspan x="0" dy="0">A</tspan></text><g fill="#000000" stroke="#000000" stroke-linecap="butt"><path d="M195.29957,128.05446c0,0 3.96298,4.43397 -0.21349,6.7756c-3.48333,2.32165 -6.42655,-2.92795 -6.42655,-2.92795c0,0 -3.08613,5.38656 -6.28693,2.92795c-3.97679,-2.72809 -0.42292,-6.91522 -0.42292,-6.91522l6.64004,-7.0589l-0.06981,0.06981z" data-paper-data="{&quot;origRot&quot;:0}" stroke-width="1.5"/><path d="M185.16318,137.94299l1.68521,-4.15409c0,0 1.02125,-8.64654 1.58939,-12.83275c0.02709,-0.19959 -0.01956,-0.10685 0.00645,0.09289c0.42605,3.27208 1.67842,12.616 1.67842,12.616l2.09131,4.20815z" stroke-width="0.5"/></g><g data-paper-data="{&quot;origRot&quot;:0}" fill="#000000" stroke="#000000" stroke-linecap="butt"><path d="M283.76406,234.27041c0,0 -3.96298,-4.43397 0.21349,-6.7756c3.48333,-2.32164 6.42655,2.92795 6.42655,2.92795c0,0 3.08614,-5.38656 6.28694,-2.92795c3.97679,2.72809 0.42292,6.91522 0.42292,6.91522l-6.64004,7.0589l0.06981,-0.06981z" data-paper-data="{&quot;origRot&quot;:0}" stroke-width="1.5"/><path d="M293.90045,224.38188l-1.68521,4.15409c0,0 -1.02125,8.64654 -1.58939,12.83275c-0.02709,0.19959 0.01955,0.10686 -0.00646,-0.09288c-0.42606,-3.27208 -1.67842,-12.616 -1.67842,-12.616l-2.0913,-4.20815z" stroke-width="0.5"/></g></g></g></svg>