<svg version="1.1" xmlns="http://www.w3.org/2000/svg" xmlns:xlink="http://www.w3.org/1999/xlink" width="143.5" height="191.5" viewBox="0,0,143.5,191.5"><defs><radialGradient cx="240.50002" cy="180" r="30.75" gradientUnits="userSpaceOnUse" id="color-1"><stop offset="0" stop-color="#000000"/><stop offset="1" stop-color="#ffffff"/></radialGradient></defs><g transform="translate(-168.61781,-84.25)"><g data-paper-data="{&quot;isPaintingLayer&quot;:true}" fill-rule="nonzero" stroke-linejoin="miter" stroke-miterlimit="10" stroke-dasharray="" stroke-dashoffset="0" style="mix-blend-mode: normal"><path d="M172.86781,272.16667c0,0 -4,-5.34526 -4,-10.89999c0,-16.66422 0,-97.96444 0,-160.66667c0,-6.28323 4.33334,-11.76667 4.33334,-11.76667c0,0 5.11759,-4.33334 11.16666,-4.33334c44.09971,0 96.02357,0 113,0c5.65881,0 11.16666,5.33334 11.16666,5.33334c0,0 3.33334,4.28019 3.33334,10.43334c0,62.31197 0,141.44139 0,159.66666c0,6.07509 -2.66667,10.9 -2.66667,10.9c0,0 -6.17452,4.66666 -11.83333,4.66666c-16.97643,0 -69.10355,0 -113.33334,0c-5.91898,0 -11.16666,-3.33333 -11.16666,-3.33333z" fill="#ffffff" stroke="#000000" stroke-width="0.5" stroke-linecap="butt"/><text transform="translate(183.22553,116.30634) scale(0.5,0.5)" font-size="40" xml:space="preserve" fill="#000000" fill-rule="nonzero" stroke="none" stroke-width="1" stroke-linecap="butt" stroke-linejoin="miter" stroke-miterlimit="10" stroke-dasharray="" stroke-dashoffset="0" font-family="Serif" font-weight="normal" text-anchor="start" style="mix-blend-mode: normal"><tspan x="0" dy="0">J</tspan></text><text transform="translate(295.30967,248.32155) rotate(-180) scale(0.5,0.5)" font-size="40" xml:space="preserve" data-paper-data="{&quot;origRot&quot;:-45}" fill="#000000" fill-rule="nonzero" stroke="none" stroke-width="1" stroke-linecap="butt" stroke-linejoin="miter" stroke-miterlimit="10" stroke-dasharray="" stroke-dashoffset="0" font-family="Serif" font-weight="normal" text-anchor="start" style="mix-blend-mode: normal"><tspan x="0" dy="0">J</tspan></text><g fill="#000000" stroke="#000000" stroke-linecap="butt"><path d="M195.29959,128.65889c0,0 3.96298,4.43397 -0.21349,6.7756c-3.48333,2.32165 -6.42655,-2.92795 -6.42655,-2.92795c0,0 -3.08613,5.38656 -6.28693,2.92795c-3.97679,-2.72809 -0.42292,-6.91522 -0.42292,-6.91522l6.64004,-7.0589l-0.06981,0.06981z" data-paper-data="{&quot;origRot&quot;:0}" stroke-width="1.5"/><path d="M185.1632,138.54742l1.68521,-4.15409c0,0 1.02125,-8.64654 1.58939,-12.83275c0.02709,-0.19959 -0.01956,-0.10685 0.00645,0.09289c0.42605,3.27208 1.67842,12.616 1.67842,12.616l2.09131,4.20815z" stroke-width="0.5"/></g><g data-paper-data="{&quot;origRot&quot;:0}" fill="#000000" stroke="#000000" stroke-linecap="butt"><path d="M283.76408,234.27041c0,0 -3.96298,-4.43397 0.21349,-6.7756c3.48333,-2.32164 6.42655,2.92795 6.42655,2.92795c0,0 3.08614,-5.38656 6.28694,-2.92795c3.97679,2.72809 0.42292,6.91522 0.42292,6.91522l-6.64004,7.0589l0.06981,-0.06981z" data-paper-data="{&quot;origRot&quot;:0}" stroke-width="1.5"/><path d="M293.90047,224.38188l-1.68521,4.15409c0,0 -1.02125,8.64654 -1.58939,12.83275c-0.02709,0.19959 0.01955,0.10686 -0.00646,-0.09288c-0.42606,-3.27208 -1.67842,-12.616 -1.67842,-12.616l-2.0913,-4.20815z" stroke-width="0.5"/></g><path d="M197.25002,180c0,-23.61017 19.13983,-42.75 42.75,-42.75c23.61018,0 42.75,19.13983 42.75,42.75c0,23.61018 -19.13982,42.75 -42.75,42.75c-23.61017,0 -42.75,-19.13983 -42.75,-42.75z" fill="#02005e" stroke="none" stroke-width="0" stroke-linecap="butt"/><path d="M209.75002,180c0,-16.98275 13.76725,-30.75 30.75,-30.75c16.98275,0 30.75,13.76725 30.75,30.75c0,16.98275 -13.76725,30.75 -30.75,30.75c-16.98275,0 -30.75,-13.76725 -30.75,-30.75z" fill="url(#color-1)" stroke="none" stroke-width="0" stroke-linecap="butt"/><path d="M224.50002,180c0,-8.56042 6.93958,-15.5 15.5,-15.5c8.56042,0 15.5,6.93958 15.5,15.5c0,8.56042 -6.93958,15.5 -15.5,15.5c-8.56042,0 -15.5,-6.93958 -15.5,-15.5z" fill="#02005e" stroke="none" stroke-width="0" stroke-linecap="butt"/><g><path d="M249.26544,228.41547l-0.5,22.5h-23.5c0,0 -9.6595,-15.95708 -5,-16.5c9.5,-1.10694 5,-13 5,-13c0,0 10.70524,0 15,0c3.23298,0 9,7 9,7z" fill="#ffb89a" stroke="#000000" stroke-width="0.5" stroke-linecap="butt"/><path d="M272.29255,220.24836c-1.44816,3.16309 1.89953,5.77208 0.3167,9.22933c-2.21997,4.84889 -7.30327,7.39926 -8.49502,10.00228c-1.94262,4.2431 -1.54879,11.9355 -1.54879,11.9355h-27c0,0 -0.51011,-7.43845 1.3755,-11.55701c1.40514,-3.06912 7.09456,-6.94336 9.78784,-12.82605c1.12073,-2.4479 -2.75788,-3.89728 -1.72807,-6.14659c2.5669,-5.60665 29.71378,-5.9275 27.29184,-0.63746z" fill="#ffca00" stroke="none" stroke-width="0" stroke-linecap="butt"/><path d="M262.9835,217.00226c-1.44816,3.16309 1.70858,9.01818 0.12575,12.47543c-2.21997,4.84889 -7.30327,7.39926 -8.49502,10.00228c-1.94262,4.2431 -1.54879,11.9355 -1.54879,11.9355h-7c0,0 -0.51011,-7.43845 1.3755,-11.55701c1.40514,-3.06912 7.09456,-6.94336 9.78784,-12.82605c1.12073,-2.4479 -2.94882,-7.71622 -1.91902,-9.96553c3.52164,-0.06919 2.83969,-0.77193 7.67373,-0.06462z" fill="#d28200" stroke="none" stroke-width="0" stroke-linecap="butt"/><path d="M225.16544,241.81547c0,-0.82843 0.91782,-1.5 2.05,-1.5c1.13218,0 2.05,0.67157 2.05,1.5c0,0.82843 -0.91782,1.5 -2.05,1.5c-1.13218,0 -2.05,-0.67157 -2.05,-1.5z" fill="#000000" stroke="#000000" stroke-width="0.5" stroke-linecap="butt"/><path d="M223.71545,243.95547l5.4,1.4l2.2,0.8" fill="none" stroke="#000000" stroke-width="0.5" stroke-linecap="round"/><path d="M230.51544,228.15547l-4.2,1.8" fill="none" stroke="#000000" stroke-width="0.5" stroke-linecap="round"/><path d="M262.28282,250.78l2.24547,12.57461c0,0 -7.78808,-6.35226 -11.67643,-3.59274c-5.69524,4.04184 -13.01891,4.04184 -18.41284,0.44909c-6.85945,-4.56889 -15.71827,3.14365 -15.71827,3.14365l3.59275,-12.57461z" fill="#02005e" stroke="#000000" stroke-width="1" stroke-linecap="butt"/><path d="M240.62005,257.96212c0,0 -1.41838,-1.55756 0.07641,-2.38012c1.24671,-0.81555 2.30012,1.02852 2.30012,1.02852c0,0 1.10455,-1.89218 2.25014,-1.02852c1.42333,0.95831 0.15136,2.42916 0.15136,2.42916l-2.37652,2.47963l0.02499,-0.02452z" data-paper-data="{&quot;origRot&quot;:0}" fill="#ffffff" stroke="none" stroke-width="0" stroke-linecap="butt"/><path d="M244.24794,254.4885l-0.60315,1.45924c0,0 -0.36551,3.03733 -0.56885,4.50786c-0.00969,0.07011 0.007,0.03754 -0.00231,-0.03263c-0.15249,-1.14941 -0.60072,-4.43172 -0.60072,-4.43172l-0.7485,-1.47823z" fill="#ffffff" stroke="none" stroke-width="0" stroke-linecap="butt"/></g><g><path d="M237.30946,134.54882l0.5,-22.5h23.5c0,0 9.6595,15.95708 5,16.5c-9.5,1.10694 -5,13 -5,13c0,0 -10.70524,0 -15,0c-3.23298,0 -9,-7 -9,-7z" fill="#ffb89a" stroke="#000000" stroke-width="0.5" stroke-linecap="butt"/><path d="M214.28235,142.71593c1.44816,-3.16309 -1.89953,-5.77208 -0.3167,-9.22933c2.21997,-4.84889 7.30327,-7.39926 8.49502,-10.00228c1.94262,-4.2431 1.54879,-11.9355 1.54879,-11.9355h27c0,0 0.51011,7.43845 -1.3755,11.55701c-1.40514,3.06912 -7.09456,6.94336 -9.78784,12.82605c-1.12073,2.4479 2.75788,3.89728 1.72807,6.14659c-2.5669,5.60665 -29.71378,5.9275 -27.29184,0.63746z" fill="#ffca00" stroke="none" stroke-width="0" stroke-linecap="butt"/><path d="M223.5914,145.96203c1.44816,-3.16309 -1.70858,-9.01818 -0.12575,-12.47543c2.21997,-4.84889 7.30327,-7.39926 8.49502,-10.00228c1.94262,-4.2431 1.54879,-11.9355 1.54879,-11.9355h7c0,0 0.51011,7.43845 -1.3755,11.55701c-1.40514,3.06912 -7.09456,6.94336 -9.78784,12.82605c-1.12073,2.4479 2.94882,7.71622 1.91902,9.96553c-3.52164,0.06919 -2.83969,0.77193 -7.67373,0.06462z" fill="#d28200" stroke="none" stroke-width="0" stroke-linecap="butt"/><path d="M261.40945,121.14882c0,0.82843 -0.91782,1.5 -2.05,1.5c-1.13218,0 -2.05,-0.67157 -2.05,-1.5c0,-0.82843 0.91782,-1.5 2.05,-1.5c1.13218,0 2.05,0.67157 2.05,1.5z" fill="#000000" stroke="#000000" stroke-width="0.5" stroke-linecap="butt"/><path d="M262.85945,119.00882l-5.4,-1.4l-2.2,-0.8" fill="none" stroke="#000000" stroke-width="0.5" stroke-linecap="round"/><path d="M260.25946,133.00882l-4.2,1.8" fill="none" stroke="#000000" stroke-width="0.5" stroke-linecap="round"/><path d="M224.29208,112.18429l-2.24547,-12.57461c0,0 7.78808,6.35226 11.67643,3.59274c5.69524,-4.04184 13.01891,-4.04184 18.41284,-0.44909c6.85945,4.56889 15.71827,-3.14365 15.71827,-3.14365l-3.59275,12.57461z" fill="#02005e" stroke="#000000" stroke-width="1" stroke-linecap="butt"/><path d="M245.95485,105.00217c0,0 1.41838,1.55756 -0.07641,2.38012c-1.24671,0.81555 -2.30012,-1.02852 -2.30012,-1.02852c0,0 -1.10455,1.89218 -2.25014,1.02852c-1.42333,-0.95831 -0.15136,-2.42916 -0.15136,-2.42916l2.37652,-2.47963l-0.02499,0.02452z" data-paper-data="{&quot;origRot&quot;:0}" fill="#ffffff" stroke="none" stroke-width="0" stroke-linecap="butt"/><path d="M242.32696,108.47579l0.60315,-1.45924c0,0 0.36551,-3.03733 0.56885,-4.50786c0.00969,-0.07011 -0.007,-0.03754 0.00231,0.03263c0.10015,0.75485 0.32784,2.42962 0.47236,3.49047c0.07554,0.55449 0.12836,0.94125 0.12836,0.94125l0.7485,1.47823z" fill="#ffffff" stroke="none" stroke-width="0" stroke-linecap="butt"/></g><g stroke-linecap="butt"><path d="M196.007,177.79728c0,1.2613 -1.02249,2.28379 -2.2838,2.28379c-1.2613,0 -2.28379,-1.02249 -2.28379,-2.28379c0,-1.2613 1.02249,-2.2838 2.28379,-2.2838c1.2613,0 2.2838,1.0225 2.2838,2.2838z" fill="#e4ce00" stroke="none" stroke-width="0"/><path d="M195.66347,183.53581v41.01748h-3.69352v-41.01748z" fill="#e4ce00" stroke="#02005e" stroke-width="0"/><path d="M190.58277,229.61961c0,0 -1.91568,-2.14336 0.1032,-3.27529c1.68382,-1.12227 3.10656,1.41536 3.10656,1.41536c0,0 1.49181,-2.60384 3.03906,-1.41536c1.92236,1.31874 0.20444,3.34278 0.20444,3.34278l-3.20976,3.41223l0.03375,-0.03375z" data-paper-data="{&quot;origRot&quot;:0}" fill="#000000" stroke="#000000" stroke-width="1.5"/><path d="M195.48264,224.83955l-0.81462,2.00806c0,0 -0.49367,4.17969 -0.7683,6.20327c-0.01309,0.09648 0.00946,0.05165 -0.00312,-0.0449c-0.20595,-1.5817 -0.81134,-6.09849 -0.81134,-6.09849l-1.01093,-2.0342z" fill="#000000" stroke="#000000" stroke-width="0.5"/><path d="M190.23524,186.35634c0,-5.00726 2.30021,-9.06646 5.13766,-9.06646c2.83745,0 5.13765,4.05919 5.13765,9.06646c0,1.42074 0.60856,3.57991 0.03274,7.23416c-0.45374,2.87945 -4.18062,4.05039 -4.58501,3.31596c-1.45687,-2.64585 1.87372,-4.667 0.47573,-6.61237c-1.65584,-2.30419 -6.19877,1.06951 -6.19877,-3.93775z" fill="#ffb89a" stroke="#000000" stroke-width="0.5"/><g><path d="M283.79513,182.3208c0,-1.2613 1.0225,-2.28379 2.2838,-2.28379c1.2613,0 2.28379,1.02249 2.28379,2.28379c0,1.2613 -1.02249,2.2838 -2.28379,2.2838c-1.2613,0 -2.2838,-1.0225 -2.2838,-2.2838z" fill="#e4ce00" stroke="none" stroke-width="0"/><path d="M284.13865,176.58228v-41.01749h3.69353v41.01749z" fill="#e4ce00" stroke="#02005e" stroke-width="0"/><path d="M289.21935,130.49848c0,0 1.91568,2.14336 -0.1032,3.27529c-1.68382,1.12227 -3.10656,-1.41536 -3.10656,-1.41536c0,0 -1.49181,2.60384 -3.03906,1.41536c-1.92235,-1.31874 -0.20444,-3.34277 -0.20444,-3.34277l3.20975,-3.41223l-0.03374,0.03374z" data-paper-data="{&quot;origRot&quot;:0}" fill="#000000" stroke="#000000" stroke-width="1.5"/><path d="M284.31948,135.27853l0.81462,-2.00806c0,0 0.49367,-4.17968 0.7683,-6.20327c0.0131,-0.09648 -0.00946,-0.05165 0.00312,0.0449c0.20595,1.5817 0.81134,6.0985 0.81134,6.0985l1.01092,2.0342z" fill="#000000" stroke="#000000" stroke-width="0.5"/><path d="M289.56688,173.76174c0,5.00726 -2.30021,9.06646 -5.13766,9.06646c-2.83745,0 -5.13765,-4.05919 -5.13765,-9.06646c0,-1.42074 -0.60856,-3.57991 -0.03274,-7.23416c0.45374,-2.87945 4.18062,-4.05039 4.58501,-3.31596c1.45687,2.64585 -1.87372,4.667 -0.47573,6.61237c1.65584,2.30419 6.19877,-1.06951 6.19877,3.93775z" fill="#ffb89a" stroke="#000000" stroke-width="0.5"/></g></g></g></g></svg>