<svg version="1.1" xmlns="http://www.w3.org/2000/svg" xmlns:xlink="http://www.w3.org/1999/xlink" width="143.5" height="191.5" viewBox="0,0,143.5,191.5"><defs><radialGradient cx="240.00003" cy="179.33333" r="27.56727" gradientUnits="userSpaceOnUse" id="color-1"><stop offset="0" stop-color="#000000"/><stop offset="1" stop-color="#ffffff"/></radialGradient><linearGradient x1="273.13945" y1="138.70317" x2="276.01845" y2="145.08787" gradientUnits="userSpaceOnUse" id="color-2"><stop offset="0" stop-color="#ff0000"/><stop offset="1" stop-color="#000000"/></linearGradient><linearGradient x1="273.11314" y1="138.7093" x2="276.4808" y2="146.17771" gradientUnits="userSpaceOnUse" id="color-3"><stop offset="0" stop-color="#ff0000"/><stop offset="1" stop-color="#000000"/></linearGradient><linearGradient x1="281.17778" y1="141.26565" x2="284.42982" y2="148.47762" gradientUnits="userSpaceOnUse" id="color-4"><stop offset="0" stop-color="#000000"/><stop offset="1" stop-color="#00ab24"/></linearGradient><linearGradient x1="281.56144" y1="143.54978" x2="282.95018" y2="146.62956" gradientUnits="userSpaceOnUse" id="color-5"><stop offset="0" stop-color="#000000"/><stop offset="1" stop-color="#00ab24"/></linearGradient><linearGradient x1="273.0824" y1="153.75282" x2="269.83035" y2="146.54084" gradientUnits="userSpaceOnUse" id="color-6"><stop offset="0" stop-color="#00ab24"/><stop offset="1" stop-color="#000000"/></linearGradient><linearGradient x1="272.69873" y1="151.46869" x2="271.31" y2="148.38891" gradientUnits="userSpaceOnUse" id="color-7"><stop offset="0" stop-color="#00ab24"/><stop offset="1" stop-color="#000000"/></linearGradient><linearGradient x1="207.63955" y1="221.35984" x2="204.76054" y2="214.97514" gradientUnits="userSpaceOnUse" id="color-8"><stop offset="0" stop-color="#ff0000"/><stop offset="1" stop-color="#000000"/></linearGradient><linearGradient x1="207.66585" y1="221.35371" x2="204.29818" y2="213.8853" gradientUnits="userSpaceOnUse" id="color-9"><stop offset="0" stop-color="#ff0000"/><stop offset="1" stop-color="#000000"/></linearGradient><linearGradient x1="199.60121" y1="218.79736" x2="196.34917" y2="211.58539" gradientUnits="userSpaceOnUse" id="color-10"><stop offset="0" stop-color="#000000"/><stop offset="1" stop-color="#00ab24"/></linearGradient><linearGradient x1="199.21755" y1="216.51323" x2="197.8288" y2="213.43345" gradientUnits="userSpaceOnUse" id="color-11"><stop offset="0" stop-color="#000000"/><stop offset="1" stop-color="#00ab24"/></linearGradient><linearGradient x1="207.6966" y1="206.31019" x2="210.94864" y2="213.52217" gradientUnits="userSpaceOnUse" id="color-12"><stop offset="0" stop-color="#00ab24"/><stop offset="1" stop-color="#000000"/></linearGradient><linearGradient x1="208.08026" y1="208.59432" x2="209.46899" y2="211.6741" gradientUnits="userSpaceOnUse" id="color-13"><stop offset="0" stop-color="#00ab24"/><stop offset="1" stop-color="#000000"/></linearGradient></defs><g transform="translate(-168.50002,-83.25)"><g data-paper-data="{&quot;isPaintingLayer&quot;:true}" fill-rule="nonzero" stroke-linejoin="miter" stroke-miterlimit="10" stroke-dasharray="" stroke-dashoffset="0" style="mix-blend-mode: normal"><path d="M172.75003,271.16667c0,0 -4,-5.34526 -4,-10.89999c0,-16.66422 0,-97.96444 0,-160.66667c0,-6.28323 4.33334,-11.76667 4.33334,-11.76667c0,0 5.11759,-4.33334 11.16666,-4.33334c44.09971,0 96.02357,0 113,0c5.65881,0 11.16666,5.33334 11.16666,5.33334c0,0 3.33334,4.28019 3.33334,10.43334c0,62.31197 0,141.44139 0,159.66666c0,6.07509 -2.66667,10.9 -2.66667,10.9c0,0 -6.17452,4.66666 -11.83333,4.66666c-16.97643,0 -69.10355,0 -113.33334,0c-5.91898,0 -11.16666,-3.33333 -11.16666,-3.33333z" fill="#ffffff" stroke="#121212" stroke-width="0.5" stroke-linecap="butt"/><g stroke="none" stroke-width="0" stroke-linecap="butt"><path d="M201.6748,179.33333c0,-23.61017 17.15879,-42.75 38.32523,-42.75c21.16645,0 38.32523,19.13983 38.32523,42.75c0,23.61018 -17.15878,42.75 -38.32523,42.75c-21.16644,0 -38.32523,-19.13983 -38.32523,-42.75z" fill="#020084"/><path d="M212.43276,179.33333c0,-16.98275 12.34229,-30.75 27.56727,-30.75c15.22498,0 27.56727,13.76725 27.56727,30.75c0,16.98275 -12.34229,30.75 -27.56727,30.75c-15.22498,0 -27.56727,-13.76725 -27.56727,-30.75z" fill="url(#color-1)"/><path d="M226.10429,179.33333c0,-8.56042 6.22131,-15.5 13.8957,-15.5c7.67439,0 13.8957,6.93958 13.8957,15.5c0,8.56042 -6.22131,15.5 -13.8957,15.5c-7.67439,0 -13.8957,-6.93958 -13.8957,-15.5z" fill="#020084"/></g><text transform="translate(181.47185,115.70191) scale(0.5,0.5)" font-size="40" xml:space="preserve" fill="#000000" fill-rule="nonzero" stroke="none" stroke-width="1" stroke-linecap="butt" stroke-linejoin="miter" stroke-miterlimit="10" stroke-dasharray="" stroke-dashoffset="0" font-family="Serif" font-weight="normal" text-anchor="start" style="mix-blend-mode: normal"><tspan x="0" dy="0">Q</tspan></text><text transform="translate(298.23251,248.32155) rotate(-180) scale(0.5,0.5)" font-size="40" xml:space="preserve" data-paper-data="{&quot;origRot&quot;:-45}" fill="#000000" fill-rule="nonzero" stroke="none" stroke-width="1" stroke-linecap="butt" stroke-linejoin="miter" stroke-miterlimit="10" stroke-dasharray="" stroke-dashoffset="0" font-family="Serif" font-weight="normal" text-anchor="start" style="mix-blend-mode: normal"><tspan x="0" dy="0">Q</tspan></text><g data-paper-data="{&quot;origRot&quot;:0}" fill="#000000" stroke="#000000" stroke-linecap="butt"><path d="M283.7641,234.27041c0,0 -3.96298,-4.43397 0.21349,-6.7756c3.48333,-2.32164 6.42655,2.92795 6.42655,2.92795c0,0 3.08614,-5.38656 6.28694,-2.92795c3.97679,2.72809 0.42292,6.91522 0.42292,6.91522l-6.64004,7.0589l0.06981,-0.06981z" data-paper-data="{&quot;origRot&quot;:0}" stroke-width="1.5"/><path d="M293.90047,224.38188l-1.68521,4.15409c0,0 -1.02125,8.64654 -1.58939,12.83275c-0.02709,0.19959 0.01955,0.10686 -0.00646,-0.09288c-0.42606,-3.27208 -1.67842,-12.616 -1.67842,-12.616l-2.0913,-4.20815z" stroke-width="0.5"/></g><g><path d="M244.49762,222.92164l1.66071,24.85714h-23.5c0,0 -9.6595,-15.95708 -5,-16.5c6.91235,-0.80543 6.41276,-7.32129 5.62774,-10.81117c-0.29387,-1.30644 0.15104,-2.18883 1.37277,-2.18883c3.30792,0 6.1131,0.875 9.24949,0.875c3.23298,0 10.58929,3.76786 10.58929,3.76786z" fill="#ffb89a" stroke="#000000" stroke-width="0.5" stroke-linecap="butt"/><path d="M279.08332,206.77878c0,0 -6.85095,5.04285 -9.27289,10.33289c-1.44816,3.16309 1.89953,5.77208 0.3167,9.22933c-2.21997,4.84889 -7.30327,7.39926 -8.49502,10.00228c-1.94262,4.2431 -1.54879,11.9355 -1.54879,11.9355h-27c0,0 -0.51011,-7.43845 1.3755,-11.55701c1.40514,-3.06912 7.09456,-6.94336 9.78784,-12.82605c1.12073,-2.4479 -2.75788,-3.89728 -1.72807,-6.14659c2.5669,-5.60665 9.56474,-10.97036 9.56474,-10.97036z" fill="#573600" stroke="none" stroke-width="0" stroke-linecap="butt"/><path d="M269.58332,206.77878c0,0 -6.85095,5.04285 -9.27289,10.33289c-1.44816,3.16309 1.89953,5.77208 0.3167,9.22933c-2.21997,4.84889 -7.30327,7.39926 -8.49502,10.00228c-1.94262,4.2431 -1.54879,11.9355 -1.54879,11.9355h-7c0,0 -0.51011,-7.43845 1.3755,-11.55701c1.40514,-3.06912 7.09456,-6.94336 9.78784,-12.82605c1.12073,-2.4479 -2.75788,-3.89728 -1.72807,-6.14659c2.5669,-5.60665 9.56474,-10.97036 9.56474,-10.97036z" fill="#825000" stroke="none" stroke-width="0" stroke-linecap="butt"/><path d="M222.68334,238.67878c0,-0.82843 0.91782,-1.5 2.05,-1.5c1.13218,0 2.05,0.67157 2.05,1.5c0,0.82843 -0.91782,1.5 -2.05,1.5c-1.13218,0 -2.05,-0.67157 -2.05,-1.5z" fill="#000000" stroke="#000000" stroke-width="0.5" stroke-linecap="butt"/><path d="M229.95833,241.01878l-3.45,2.575l-3.775,0.1" fill="none" stroke="#000000" stroke-width="0.5" stroke-linecap="round"/><path d="M223.83333,226.81878c0,0 1.99736,-0.97312 2.95236,-0.96028c0.90009,0.01211 2.87264,1.66028 2.87264,1.66028" fill="none" stroke="#000000" stroke-width="0.5" stroke-linecap="round"/><path d="M221.28383,241.49622c0,0 0.30535,-0.875 1.17073,-1.375c0.58873,-0.34015 1.82927,0 1.82927,0" fill="none" stroke="#000000" stroke-width="0.5" stroke-linecap="round"/><path d="M260.06998,247.92758c0,0 -5.5426,6.22235 -9.43096,8.98187c-5.69524,4.04184 -13.01891,4.04184 -18.41283,0.44909c-6.85945,-4.5689 -15.71827,3.14365 -15.71827,3.14365l3.59275,-12.57461z" fill="#ffe54a" stroke="#000000" stroke-width="1" stroke-linecap="butt"/><path d="M224.74798,249.08395l-0.60315,1.45924c0,0 -0.36551,3.03733 -0.56885,4.50786c-0.00969,0.07011 0.007,0.03754 -0.00231,-0.03263c-0.15249,-1.14941 -0.60072,-4.43172 -0.60072,-4.43172l-0.7485,-1.47823z" fill="#000000" stroke="none" stroke-width="0" stroke-linecap="butt"/><path d="M221.12009,252.55757c0,0 -1.41838,-1.55756 0.07641,-2.38012c1.24671,-0.81555 2.30012,1.02852 2.30012,1.02852c0,0 1.10455,-1.89218 2.25014,-1.02852c1.42333,0.95831 0.15136,2.42916 0.15136,2.42916c0,0 -0.76417,0.79733 -1.15447,1.20456c-0.40156,0.41898 -1.22205,1.27507 -1.22205,1.27507l0.02499,-0.02452z" data-paper-data="{&quot;origRot&quot;:0}" fill="#000000" stroke="none" stroke-width="0" stroke-linecap="butt"/><path d="M238.42998,220.34637l5.33333,4.44047" fill="none" stroke="#000000" stroke-width="0.5" stroke-linecap="round"/></g><g><path d="M236.89329,135.68549l-1.66071,-24.85714h23.5c0,0 9.6595,15.95708 5,16.5c-6.91235,0.80543 -6.41276,7.32129 -5.62774,10.81117c0.29387,1.30644 -0.15104,2.18883 -1.37277,2.18883c-3.30792,0 -6.1131,-0.875 -9.24949,-0.875c-3.23298,0 -10.58929,-3.76786 -10.58929,-3.76786z" fill="#ffb89a" stroke="#000000" stroke-width="0.5" stroke-linecap="butt"/><path d="M202.30758,152.30154c0,0 6.85095,-5.04285 9.27289,-10.33289c1.44816,-3.16309 -1.89953,-5.77208 -0.3167,-9.22933c2.21997,-4.84889 7.30327,-7.39926 8.49502,-10.00228c1.94262,-4.2431 1.54879,-11.9355 1.54879,-11.9355h27c0,0 0.51011,7.43845 -1.3755,11.55701c-1.40514,3.06912 -7.09456,6.94336 -9.78784,12.82605c-1.12073,2.4479 2.75788,3.89728 1.72807,6.14659c-2.5669,5.60665 -9.56474,10.97036 -9.56474,10.97036z" fill="#573600" stroke="none" stroke-width="0" stroke-linecap="butt"/><path d="M211.80758,152.30154c0,0 6.85095,-5.04285 9.27289,-10.33289c1.44816,-3.16309 -1.89953,-5.77208 -0.3167,-9.22933c2.21997,-4.84889 7.30327,-7.39926 8.49502,-10.00228c1.94262,-4.2431 1.54879,-11.9355 1.54879,-11.9355h7c0,0 0.51011,7.43845 -1.3755,11.55701c-1.40514,3.06912 -7.09456,6.94336 -9.78784,12.82605c-1.12073,2.4479 2.75788,3.89728 1.72807,6.14659c-2.5669,5.60665 -9.56474,10.97036 -9.56474,10.97036z" fill="#825000" stroke="none" stroke-width="0" stroke-linecap="butt"/><path d="M258.70757,119.92836c0,0.82843 -0.91782,1.5 -2.05,1.5c-1.13218,0 -2.05,-0.67157 -2.05,-1.5c0,-0.82843 0.91782,-1.5 2.05,-1.5c1.13218,0 2.05,0.67157 2.05,1.5z" fill="#000000" stroke="#000000" stroke-width="0.5" stroke-linecap="butt"/><path d="M251.43256,118.06154l3.45,-2.575l3.775,-0.1" fill="none" stroke="#000000" stroke-width="0.5" stroke-linecap="round"/><path d="M257.55753,131.78836c0,0 -1.99736,0.97312 -2.95236,0.96028c-0.90009,-0.01211 -2.87264,-1.66028 -2.87264,-1.66028" fill="none" stroke="#000000" stroke-width="0.5" stroke-linecap="round"/><path d="M260.10706,117.5841c0,0 -0.30535,0.875 -1.17073,1.375c-0.58873,0.34015 -1.82927,0 -1.82927,0" fill="none" stroke="#000000" stroke-width="0.5" stroke-linecap="round"/><path d="M221.32089,111.15273c0,0 5.5426,-6.22235 9.43096,-8.98187c5.69524,-4.04184 13.01891,-4.04184 18.41283,-0.44909c6.85945,4.5689 15.71827,-3.14365 15.71827,-3.14365l-3.59275,12.57461z" fill="#ffe54a" stroke="#000000" stroke-width="1" stroke-linecap="butt"/><path d="M256.64288,109.99636l0.60315,-1.45924c0,0 0.36551,-3.03733 0.56885,-4.50786c0.00969,-0.07011 -0.007,-0.03754 0.00231,0.03263c0.15249,1.14941 0.60072,4.43172 0.60072,4.43172l0.7485,1.47823z" fill="#000000" stroke="none" stroke-width="0" stroke-linecap="butt"/><path d="M260.2708,106.52274c0,0 1.41838,1.55756 -0.07641,2.38012c-1.24671,0.81555 -2.30012,-1.02852 -2.30012,-1.02852c0,0 -1.10455,1.89218 -2.25014,1.02852c-1.42333,-0.95831 -0.15136,-2.42916 -0.15136,-2.42916c0,0 0.76417,-0.79733 1.15447,-1.20456c0.40156,-0.41898 1.22205,-1.27507 1.22205,-1.27507l-0.02499,0.02452z" data-paper-data="{&quot;origRot&quot;:0}" fill="#000000" stroke="none" stroke-width="0" stroke-linecap="butt"/><path d="M242.96093,138.26076l-5.33334,-4.44047" fill="none" stroke="#000000" stroke-width="0.5" stroke-linecap="round"/></g><g stroke-linecap="butt"><g><path d="M288.13124,155.26127c0,0 0.19544,3.19942 -2.3535,2.79499c-2.24904,-0.18136 -1.74066,-3.38521 -1.74066,-3.38521c0,0 -3.10475,1.24787 -3.63757,-0.86134c-0.77108,-2.4824 2.13091,-3.06663 2.13091,-3.06663l5.16677,-0.76825l-0.05285,0.00621z" data-paper-data="{&quot;origRot&quot;:0}" fill="#00ab25" stroke="none" stroke-width="0"/><path d="M278.44184,148.50723c0,-0.00641 0.00012,-0.0128 0.00036,-0.01916c0.00004,-0.14826 0.05443,-0.35074 0.32215,-0.44843c0.0126,-0.00479 0.02544,-0.00908 0.03851,-0.01285c0.2729,-0.0827 0.43798,0.04654 0.52706,0.16513c0.00177,0.00217 0.00351,0.00436 0.00524,0.00656l0.36075,0.45094l-0.14181,0.11345l0.0439,0.1317l-0.04162,0.01387c0.20454,1.16496 -0.07523,2.37758 0.00636,3.57304l0.09455,0.1891c0.03658,0.06948 0.05728,0.14862 0.05728,0.2326c0,0.08845 -0.02297,0.17154 -0.06326,0.24362c0.03286,0.15892 0.07502,0.31731 0.12852,0.47503c0.0303,0.09091 0.06061,0.18182 0.09091,0.27273l0.11445,0.47579c0,0 0.01522,0.16488 -0.06674,0.31363c0.2932,1.04875 0.55612,2.03247 0.91001,2.66226c1.52659,3.05318 1.88121,6.12907 1.8857,9.53063c0.00131,1.11988 0.00042,2.23976 0.00042,3.35964l-0.01493,0.21207c0,0 0.12127,0.48507 -0.3638,0.60634c-0.48507,0.12127 -0.60634,-0.3638 -0.60634,-0.3638l-0.01493,-0.4546c0,-1.11949 0.00089,-2.23899 -0.00042,-3.35848c-0.00331,-3.29502 -0.31098,-6.1463 -1.78013,-9.08458c-0.17751,-0.49453 -0.67411,-0.69914 -0.88612,-1.22361c-0.63347,-1.5671 -0.38036,-4.7145 -2.05694,-5.55279c0,0 -0.0229,-0.01145 -0.05574,-0.03435l-0.43921,-0.0732l0.00095,-0.00569c-0.29642,0.02678 -0.59915,-0.12915 -1.03646,-0.49334l-0.18182,-0.22727c0,0 -0.10957,0.18765 -0.10957,-0.31235c0,-0.37476 0.50023,-0.36321 0.75083,-0.33391c0.06436,-0.20177 0.25334,-0.34791 0.47645,-0.34791c0.09704,0 0.18762,0.02764 0.26429,0.07548l0.18651,0.11191c0.2655,-0.14349 0.63357,-0.31839 0.88915,-0.37082l0.30649,-0.30649v0c0.09048,-0.09048 0.21548,-0.14645 0.35355,-0.14645c0.01609,0 0.032,0.00076 0.0477,0.00225c-0.00149,-0.0157 -0.00225,-0.03161 -0.00225,-0.0477zM278.21434,150.19176c0.00706,-0.0056 0.0144,-0.01112 0.02201,-0.01657c-0.00361,-0.03607 -0.0076,-0.07209 -0.01202,-0.10804c-0.00787,0.0138 -0.01582,0.02757 -0.02388,0.04128c0.00463,0.02777 0.00926,0.05555 0.01389,0.08332z" fill="#00ab25" stroke="none" stroke-width="0.5"/><path d="M287.42228,173.60247c0,5.00726 -2.30021,9.06646 -5.13766,9.06646c-2.83745,0 -5.13765,-4.05919 -5.13765,-9.06646c0,-1.42074 -0.60856,-3.57991 -0.03274,-7.23416c0.45374,-2.87945 4.18062,-4.05039 4.58501,-3.31596c1.45687,2.64585 -1.87372,4.667 -0.47573,6.61237c1.65584,2.30419 6.19877,-1.06951 6.19877,3.93775z" fill="#ffb89a" stroke="#000000" stroke-width="0.5"/><path d="M273.29786,151.11379l-9.85358,-8.77644l0.05664,-0.14967l13.13866,0.09569z" fill="#020084" stroke="none" stroke-width="0"/><path d="M273.47641,143.64765l8.77644,-9.85357l0.14967,0.05664l-0.0957,13.13866z" fill="#020084" stroke="none" stroke-width="0"/><path d="M275.46357,148.19919c-0.40974,-0.90868 -0.00528,-1.97749 0.90341,-2.38723c0.90868,-0.40974 1.97749,-0.00528 2.38723,0.90341c0.40974,0.90868 0.00528,1.97749 -0.90341,2.38723c-0.90868,0.40974 -1.97749,0.00527 -2.38723,-0.90341z" fill="#ffda00" stroke="none" stroke-width="NaN"/><path d="M283.32085,158.80358c0,0.93365 -0.43746,1.24296 -0.80279,1.97361l-0.24546,0.24546c-0.03973,0.09378 -0.11217,0.19346 -0.24428,0.24515c-0.08508,0.043 -0.19279,0.06361 -0.32316,0.0258c-0.13351,-0.02448 -0.22064,-0.09108 -0.2775,-0.1676c-0.10222,-0.11327 -0.11789,-0.24532 -0.10697,-0.35119c-0.00758,-0.76291 -0.30694,-2.31006 0.00015,-2.97123c0.00069,-0.0015 0.00141,-0.003 0.00215,-0.00453c0.06448,-0.23229 0.16477,-0.47279 0.29116,-0.7129c0.48305,-1.73336 1.51539,-3.7864 2.73934,-3.3743c0.07186,-0.03164 0.14442,-0.05912 0.21736,-0.08208v-0.07619h0.75c0.27614,0 0.5,0.22386 0.5,0.5c0,0.23795 -0.16622,0.43708 -0.38888,0.48761l-0.73442,0.1836c0.07678,0.0879 0.1233,0.20291 0.1233,0.32879c0,0.10506 -0.03241,0.20256 -0.08777,0.28304l-0.49621,0.74431l-0.10512,-0.07008c-0.1505,0.74637 -0.49893,1.52941 -0.8182,2.17488c0.0291,0.15963 -0.02846,0.30355 -0.02846,0.30355l-0.30163,-0.21818c0.01427,0.02081 0.02702,0.04275 0.03806,0.06567c0.29933,0.11166 0.29933,0.46682 0.29933,0.46682zM282.4966,157.91893l-0.00907,-0.00656c0.00022,0.00489 0.00044,0.00977 0.00066,0.01464c0.00276,-0.0027 0.00556,-0.0054 0.00841,-0.00808z" fill="#00ab25" stroke="none" stroke-width="0.5"/><g stroke="#000000" stroke-width="0.5"><path d="M277.42082,140.55627c0,0 2.60437,1.1562 1.2413,3.00163c-1.06425,1.70019 -3.38383,-0.01314 -3.38383,-0.01314c0,0 -0.28707,2.9607 -2.16944,2.51722c-2.2744,-0.40835 -1.54677,-2.93727 -1.54677,-2.93727l1.51003,-4.39118l-0.01674,0.04424z" data-paper-data="{&quot;origRot&quot;:0}" fill="url(#color-2)"/><path d="M274.94092,146.87208l-0.0821,-2.14643c0,0 -1.25696,-3.97797 -1.83333,-5.91841c-0.02748,-0.09252 -0.02959,-0.04282 0.02111,0.03931c0.83058,1.34533 3.21802,5.18009 3.21802,5.18009l1.74234,1.42621z" fill="url(#color-3)"/><path d="M284.14306,147.71352c0,0 -1.1562,2.60437 -3.00164,1.2413c-1.70018,-1.06424 0.01314,-3.38383 0.01314,-3.38383c0,0 -2.96071,-0.28707 -2.51723,-2.16943c0.40835,-2.27439 2.93727,-1.54677 2.93727,-1.54677l4.39118,1.51003l-0.04424,-0.01674z" data-paper-data="{&quot;origRot&quot;:0}" fill="url(#color-4)"/><path d="M277.82723,145.23361l2.14643,-0.0821c0,0 3.97796,-1.25697 5.91841,-1.83334c0.09252,-0.02748 0.04282,-0.0296 -0.03931,0.02112c-1.34533,0.83058 -5.18009,3.21802 -5.18009,3.21802l-1.42621,1.74233z" fill="url(#color-5)"/><path d="M270.1171,147.30495c0,0 1.1562,-2.60436 3.00164,-1.24129c1.70018,1.06424 -0.01314,3.38382 -0.01314,3.38382c0,0 2.96071,0.28708 2.51722,2.16944c-0.40835,2.27439 -2.93727,1.54677 -2.93727,1.54677l-4.39118,-1.51003l0.04425,0.01674z" data-paper-data="{&quot;origRot&quot;:0}" fill="url(#color-6)"/><path d="M276.43294,149.78486l-2.14643,0.0821c0,0 -3.97796,1.25697 -5.91841,1.83334c-0.09252,0.02748 -0.04282,0.0296 0.03931,-0.02111c1.34533,-0.83058 5.18009,-3.21802 5.18009,-3.21802l1.42622,-1.74233z" fill="url(#color-7)"/></g></g><g><path d="M192.64773,204.80174c0,0 -0.19544,-3.19942 2.3535,-2.79499c2.24904,0.18136 1.74066,3.38521 1.74066,3.38521c0,0 3.10475,-1.24787 3.63757,0.86134c0.77108,2.4824 -2.13091,3.06663 -2.13091,3.06663l-5.16677,0.76825l0.05285,-0.00621z" data-paper-data="{&quot;origRot&quot;:0}" fill="#00ab25" stroke="none" stroke-width="0"/><path d="M202.33715,211.55578c0,0.00641 -0.00012,0.0128 -0.00036,0.01916c-0.00004,0.14826 -0.05443,0.35074 -0.32215,0.44843c-0.0126,0.00479 -0.02544,0.00908 -0.03851,0.01285c-0.2729,0.0827 -0.43798,-0.04654 -0.52706,-0.16513c-0.00177,-0.00217 -0.00351,-0.00436 -0.00524,-0.00656l-0.36075,-0.45094l0.14181,-0.11345l-0.0439,-0.1317l0.04162,-0.01387c-0.20454,-1.16496 0.07523,-2.37758 -0.00636,-3.57304l-0.09455,-0.1891c-0.03658,-0.06948 -0.05728,-0.14862 -0.05728,-0.2326c0,-0.08845 0.02297,-0.17154 0.06326,-0.24362c-0.03286,-0.15892 -0.07502,-0.31731 -0.12852,-0.47503c-0.0303,-0.09091 -0.06061,-0.18182 -0.09091,-0.27273l-0.11445,-0.47579c0,0 -0.01522,-0.16488 0.06674,-0.31363c-0.2932,-1.04875 -0.55612,-2.03247 -0.91001,-2.66226c-1.52659,-3.05318 -1.88121,-6.12907 -1.8857,-9.53063c-0.00131,-1.11988 -0.00042,-2.23976 -0.00042,-3.35964l0.01493,-0.21207c0,0 -0.12127,-0.48507 0.3638,-0.60634c0.48507,-0.12127 0.60634,0.3638 0.60634,0.3638l0.01493,0.4546c0,1.11949 -0.00089,2.23899 0.00042,3.35848c0.00331,3.29502 0.31098,6.1463 1.78013,9.08458c0.17751,0.49453 0.67411,0.69914 0.88612,1.22361c0.63347,1.5671 0.38036,4.7145 2.05694,5.55279c0,0 0.0229,0.01145 0.05574,0.03435l0.43921,0.0732l-0.00095,0.00569c0.29642,-0.02678 0.59915,0.12915 1.03646,0.49334l0.18182,0.22727c0,0 0.10957,-0.18765 0.10957,0.31235c0,0.37476 -0.50023,0.36321 -0.75083,0.33391c-0.06436,0.20177 -0.25334,0.34791 -0.47645,0.34791c-0.09704,0 -0.18762,-0.02764 -0.26429,-0.07548l-0.18651,-0.11191c-0.2655,0.14349 -0.63357,0.31839 -0.88915,0.37082l-0.30649,0.30649v0c-0.09048,0.09048 -0.21548,0.14645 -0.35355,0.14645c-0.01609,0 -0.032,-0.00076 -0.0477,-0.00225c0.00149,0.0157 0.00225,0.03161 0.00225,0.0477zM202.56464,209.87125c-0.00706,0.0056 -0.0144,0.01112 -0.02201,0.01657c0.00361,0.03607 0.0076,0.07209 0.01202,0.10804c0.00787,-0.0138 0.01582,-0.02757 0.02388,-0.04128c-0.00463,-0.02777 -0.00926,-0.05555 -0.01389,-0.08332z" fill="#00ab25" stroke="none" stroke-width="0.5"/><path d="M193.35671,186.46054c0,-5.00726 2.30021,-9.06646 5.13766,-9.06646c2.83745,0 5.13765,4.05919 5.13765,9.06646c0,1.42074 0.60856,3.57991 0.03274,7.23416c-0.45374,2.87945 -4.18062,4.05039 -4.58501,3.31596c-1.45687,-2.64585 1.87372,-4.667 0.47573,-6.61237c-1.65584,-2.30419 -6.19877,1.06951 -6.19877,-3.93775z" fill="#ffb89a" stroke="#000000" stroke-width="0.5"/><path d="M207.48113,208.94922l9.85358,8.77644l-0.05664,0.14967l-13.13866,-0.09569z" fill="#020084" stroke="none" stroke-width="0"/><path d="M207.30258,216.41536l-8.77644,9.85357l-0.14967,-0.05664l0.0957,-13.13866z" fill="#020084" stroke="none" stroke-width="0"/><path d="M205.31542,211.86382c0.40974,0.90868 0.00528,1.97749 -0.90341,2.38723c-0.90868,0.40974 -1.97749,0.00528 -2.38723,-0.90341c-0.40974,-0.90868 -0.00528,-1.97749 0.90341,-2.38723c0.90868,-0.40974 1.97749,-0.00527 2.38723,0.90341z" fill="#ffda00" stroke="none" stroke-width="NaN"/><path d="M197.45815,201.25943c0,-0.93365 0.43746,-1.24296 0.80279,-1.97361l0.24546,-0.24546c0.03973,-0.09378 0.11217,-0.19346 0.24428,-0.24515c0.08508,-0.043 0.19279,-0.06361 0.32316,-0.0258c0.13351,0.02448 0.22064,0.09108 0.2775,0.1676c0.10222,0.11327 0.11789,0.24532 0.10697,0.35119c0.00758,0.76291 0.30694,2.31006 -0.00015,2.97123c-0.00069,0.0015 -0.00141,0.003 -0.00215,0.00453c-0.06448,0.23229 -0.16477,0.47279 -0.29116,0.7129c-0.48305,1.73336 -1.51539,3.7864 -2.73934,3.3743c-0.07186,0.03164 -0.14442,0.05912 -0.21736,0.08208v0.07619h-0.75c-0.27614,0 -0.5,-0.22386 -0.5,-0.5c0,-0.23795 0.16622,-0.43708 0.38888,-0.48761l0.73442,-0.1836c-0.07678,-0.0879 -0.1233,-0.20291 -0.1233,-0.32879c0,-0.10506 0.03241,-0.20256 0.08777,-0.28304l0.49621,-0.74431l0.10512,0.07008c0.1505,-0.74637 0.49893,-1.52941 0.8182,-2.17488c-0.0291,-0.15963 0.02846,-0.30355 0.02846,-0.30355l0.30163,0.21818c-0.01427,-0.02081 -0.02702,-0.04275 -0.03806,-0.06567c-0.29933,-0.11166 -0.29933,-0.46682 -0.29933,-0.46682zM198.28239,202.14408l0.00907,0.00656c-0.00022,-0.00489 -0.00044,-0.00977 -0.00066,-0.01464c-0.00276,0.0027 -0.00556,0.0054 -0.00841,0.00808z" fill="#00ab25" stroke="none" stroke-width="0.5"/><g stroke="#000000" stroke-width="0.5"><path d="M203.35817,219.50674c0,0 -2.60437,-1.1562 -1.2413,-3.00163c1.06425,-1.70019 3.38383,0.01314 3.38383,0.01314c0,0 0.28707,-2.9607 2.16944,-2.51722c2.2744,0.40835 1.54677,2.93727 1.54677,2.93727l-1.51003,4.39118l0.01674,-0.04424z" data-paper-data="{&quot;origRot&quot;:0}" fill="url(#color-8)"/><path d="M205.83807,213.19093l0.0821,2.14643c0,0 1.25696,3.97797 1.83333,5.91841c0.02748,0.09252 0.02959,0.04282 -0.02111,-0.03931c-0.83058,-1.34533 -3.21802,-5.18009 -3.21802,-5.18009l-1.74234,-1.42621z" fill="url(#color-9)"/><path d="M196.63593,212.34949c0,0 1.1562,-2.60437 3.00164,-1.2413c1.70018,1.06424 -0.01314,3.38383 -0.01314,3.38383c0,0 2.96071,0.28707 2.51723,2.16943c-0.40835,2.27439 -2.93727,1.54677 -2.93727,1.54677l-4.39118,-1.51003l0.04424,0.01674z" data-paper-data="{&quot;origRot&quot;:0}" fill="url(#color-10)"/><path d="M202.95175,214.8294l-2.14643,0.0821c0,0 -3.97796,1.25697 -5.91841,1.83334c-0.09252,0.02748 -0.04282,0.0296 0.03931,-0.02112c1.34533,-0.83058 5.18009,-3.21802 5.18009,-3.21802l1.42621,-1.74233z" fill="url(#color-11)"/><path d="M210.66187,212.75806c0,0 -1.1562,2.60436 -3.00164,1.24129c-1.70018,-1.06424 0.01314,-3.38382 0.01314,-3.38382c0,0 -2.96071,-0.28708 -2.51722,-2.16944c0.40835,-2.27439 2.93727,-1.54677 2.93727,-1.54677l4.39118,1.51003l-0.04425,-0.01674z" data-paper-data="{&quot;origRot&quot;:0}" fill="url(#color-12)"/><path d="M204.34605,210.27815l2.14643,-0.0821c0,0 3.97796,-1.25697 5.91841,-1.83334c0.09252,-0.02748 0.04282,-0.0296 -0.03931,0.02111c-1.34533,0.83058 -5.18009,3.21802 -5.18009,3.21802l-1.42622,1.74233z" fill="url(#color-13)"/></g></g></g><g data-paper-data="{&quot;origRot&quot;:0}" fill="#000000" stroke="#000000" stroke-linecap="butt"><path d="M196.87554,126.92465c0,0 3.96298,4.43397 -0.21349,6.7756c-3.48333,2.32164 -6.42655,-2.92795 -6.42655,-2.92795c0,0 -3.08614,5.38656 -6.28694,2.92795c-3.97679,-2.72809 -0.42292,-6.91522 -0.42292,-6.91522l6.64004,-7.0589l-0.06981,0.06981z" data-paper-data="{&quot;origRot&quot;:0}" stroke-width="1.5"/><path d="M186.73916,136.81318l1.68521,-4.15409c0,0 1.02125,-8.64654 1.58939,-12.83275c0.02709,-0.19959 -0.01955,-0.10686 0.00646,0.09288c0.42606,3.27208 1.67842,12.616 1.67842,12.616l2.0913,4.20815z" stroke-width="0.5"/></g></g></g></svg>