<svg version="1.1" xmlns="http://www.w3.org/2000/svg" xmlns:xlink="http://www.w3.org/1999/xlink" width="143.5" height="191.5" viewBox="0,0,143.5,191.5"><g transform="translate(-168.25,-84.25)"><g data-paper-data="{&quot;isPaintingLayer&quot;:true}" fill-rule="nonzero" stroke-linecap="butt" stroke-linejoin="miter" stroke-miterlimit="10" stroke-dasharray="" stroke-dashoffset="0" style="mix-blend-mode: normal"><path d="M172.5,272.16667c0,0 -4,-5.34526 -4,-10.89999c0,-16.66422 0,-97.96444 0,-160.66667c0,-6.28323 4.33334,-11.76667 4.33334,-11.76667c0,0 5.11759,-4.33334 11.16666,-4.33334c44.09971,0 96.02357,0 113,0c5.65881,0 11.16666,5.33334 11.16666,5.33334c0,0 3.33334,4.28019 3.33334,10.43334c0,62.31197 0,141.44139 0,159.66666c0,6.07509 -2.66667,10.9 -2.66667,10.9c0,0 -6.17452,4.66666 -11.83333,4.66666c-16.97643,0 -69.10355,0 -113.33334,0c-5.91898,0 -11.16666,-3.33333 -11.16666,-3.33333z" fill="#ffffff" stroke="#000000" stroke-width="0.5"/><text transform="translate(181.4718,115.70191) scale(0.5,0.5)" font-size="40" xml:space="preserve" fill="#000000" fill-rule="nonzero" stroke="none" stroke-width="1" stroke-linecap="butt" stroke-linejoin="miter" stroke-miterlimit="10" stroke-dasharray="" stroke-dashoffset="0" font-family="Serif" font-weight="normal" text-anchor="start" style="mix-blend-mode: normal"><tspan x="0" dy="0">2</tspan></text><text transform="translate(298.23251,248.32155) rotate(-180) scale(0.5,0.5)" font-size="40" xml:space="preserve" data-paper-data="{&quot;origRot&quot;:-45}" fill="#000000" fill-rule="nonzero" stroke="none" stroke-width="1" stroke-linecap="butt" stroke-linejoin="miter" stroke-miterlimit="10" stroke-dasharray="" stroke-dashoffset="0" font-family="Serif" font-weight="normal" text-anchor="start" style="mix-blend-mode: normal"><tspan x="0" dy="0">2</tspan></text><g><path d="M237.27722,139.56566l2.15667,-4.33968c0,0 0.31255,-2.44867 0.66528,-5.13339c0.04855,-0.05715 -1.33568,0.03691 -1.32651,-0.02801c0.01091,0.08339 -0.04874,-1.67332 -0.05372,-1.67723c-0.07022,-0.05524 1.71909,0.03262 1.73062,-0.05344c0.20502,-1.53002 0.28881,-3.0379 0.42938,-4.11746c0.02682,-0.20598 0.83621,0.07949 0.86414,0.28531c0.12904,0.95075 0.16491,2.66162 0.21073,3.8193c1.39783,-0.03936 1.34469,0.0264 1.64855,0.02329c0.05923,0.02965 -0.04753,1.83969 -0.06355,1.82971c-0.03767,-0.00342 -0.44721,-0.02361 -1.35863,-0.03043c-0.04976,0.01947 0.63031,5.21008 0.63031,5.21008l1.73789,4.28394z" fill="none" stroke="#000000" stroke-width="1"/><path d="M233.30137,129.48044c0,-1.0208 0.51294,-3.08107 2.71178,-3.11115c0.00138,0.066 0.07739,1.09605 0.03426,1.11145c-2.35066,-0.01023 -2.07011,3.66102 -0.07659,3.74361c2.51542,0.09912 2.06955,-3.95311 0.07007,-3.74365c-0.16584,-0.08165 0.0072,-1.05792 -0.05348,-1.12649c2.14418,0.16687 2.72684,2.19943 2.72684,3.12623c0,0.0652 -0.0023,0.12988 -0.00684,0.19393c-0.09942,1.40421 -1.27008,2.51251 -2.6996,2.51251c-1.49473,0 -2.70644,-1.21172 -2.70644,-2.70644z" fill="#000000" stroke="none" stroke-width="0"/><path d="M237.776,122.1407c0,-1.02079 0.51293,-3.08107 2.71177,-3.11115c0.00138,0.066 0.07739,1.09606 0.03426,1.11146c-2.35066,-0.01023 -2.07011,3.66101 -0.07659,3.74361c2.51542,0.09912 2.06955,-3.95311 0.07007,-3.74365c-0.16584,-0.08165 0.0072,-1.05791 -0.05348,-1.12649c2.14418,0.16687 2.72684,2.19943 2.72684,3.12623c0,1.49472 -1.21171,2.70644 -2.70644,2.70644c-1.49473,0 -2.70644,-1.21172 -2.70644,-2.70644z" fill="#000000" stroke="none" stroke-width="0"/><path d="M243.24241,129.30961c0,-1.0208 0.51293,-3.08107 2.71177,-3.11116c0.00138,0.066 0.0774,1.09606 0.03427,1.11145c-2.35066,-0.01023 -2.07011,3.66102 -0.07659,3.74361c2.51542,0.09912 2.06955,-3.95311 0.07007,-3.74365c-0.16584,-0.08165 0.0072,-1.05791 -0.05348,-1.12649c2.14418,0.16687 2.72684,2.19943 2.72684,3.12623c0,1.49472 -1.21171,2.70644 -2.70644,2.70644c-1.49473,0 -2.70644,-1.21171 -2.70644,-2.70644z" fill="#000000" stroke="none" stroke-width="0"/></g><g data-paper-data="{&quot;origRot&quot;:0}"><path d="M244.67944,224.4198l-2.15667,4.33968c0,0 -0.31255,2.44868 -0.66528,5.13339c-0.04855,0.05715 1.33569,-0.03691 1.32651,0.02801c-0.01091,-0.08339 0.04874,1.67332 0.05372,1.67722c0.07022,0.05524 -1.71909,-0.03261 -1.73062,0.05345c-0.20502,1.53002 -0.28881,3.0379 -0.42938,4.11746c-0.02682,0.20599 -0.83621,-0.07948 -0.86414,-0.28531c-0.12903,-0.95075 -0.1649,-2.66162 -0.21073,-3.8193c-1.39782,0.03935 -1.34468,-0.0264 -1.64855,-0.0233c-0.05923,-0.02965 0.04753,-1.83968 0.06355,-1.82971c0.03766,0.00342 0.44721,0.02361 1.35863,0.03043c0.04976,-0.01948 -0.63031,-5.21008 -0.63031,-5.21008l-1.73789,-4.28394z" fill="none" stroke="#000000" stroke-width="1"/><path d="M248.65529,234.50502c0,1.0208 -0.51294,3.08106 -2.71178,3.11115c-0.00138,-0.066 -0.07739,-1.09605 -0.03426,-1.11145c2.35066,0.01024 2.07011,-3.66102 0.07659,-3.74361c-2.51542,-0.09912 -2.06954,3.95311 -0.07007,3.74365c0.16584,0.08165 -0.0072,1.05791 0.05348,1.12649c-2.14418,-0.16687 -2.72685,-2.19943 -2.72684,-3.12622c0,-0.06521 0.0023,-0.12988 0.00684,-0.19393c0.09942,-1.40421 1.27008,-2.51251 2.6996,-2.51251c1.49473,0 2.70644,1.21172 2.70644,2.70644z" fill="#000000" stroke="none" stroke-width="0"/><path d="M244.18067,241.84476c0,1.0208 -0.51293,3.08107 -2.71177,3.11116c-0.00138,-0.066 -0.07739,-1.09606 -0.03426,-1.11146c2.35066,0.01024 2.07011,-3.66101 0.07659,-3.7436c-2.51542,-0.09912 -2.06954,3.95311 -0.07007,3.74364c0.16584,0.08165 -0.00719,1.05791 0.05348,1.12649c-2.14418,-0.16687 -2.72685,-2.19943 -2.72685,-3.12622c0,-1.49473 1.21172,-2.70644 2.70644,-2.70644c1.49473,0 2.70644,1.21171 2.70644,2.70644z" fill="#000000" stroke="none" stroke-width="0"/><path d="M238.71426,234.67585c0,1.0208 -0.51293,3.08107 -2.71177,3.11115c-0.00138,-0.066 -0.07739,-1.09606 -0.03427,-1.11145c2.35066,0.01023 2.07011,-3.66101 0.07659,-3.7436c-2.51542,-0.09913 -2.06954,3.95311 -0.07007,3.74364c0.16584,0.08165 -0.00719,1.05791 0.05349,1.12648c-2.14418,-0.16687 -2.72684,-2.19943 -2.72684,-3.12622c0,-1.49473 1.21171,-2.70644 2.70644,-2.70644c1.49473,0 2.70644,1.21171 2.70644,2.70644z" fill="#000000" stroke="none" stroke-width="0"/></g><g fill="#000000"><path d="M185.27722,138.399l2.15667,-4.33968c0,0 0.31255,-2.44868 0.66529,-5.13339c0.04855,-0.05715 -1.33569,0.03692 -1.32652,-0.02801c0.01091,0.08339 -0.04874,-1.67331 -0.05372,-1.67722c-0.07022,-0.05524 1.71908,0.03261 1.73061,-0.05345c0.20502,-1.53001 0.28882,-3.03789 0.42939,-4.11746c0.02682,-0.20598 0.83621,0.07948 0.86414,0.28531c0.12903,0.95075 0.16491,2.66162 0.21073,3.8193c1.39782,-0.03935 1.34468,0.0264 1.64855,0.0233c0.05922,0.02965 -0.04753,1.83969 -0.06355,1.82971c-0.03767,-0.00343 -0.44721,-0.02361 -1.35862,-0.03043c-0.04976,0.01948 0.63031,5.21008 0.63031,5.21008l1.73789,4.28394z" stroke="#000000" stroke-width="0.5"/><path d="M181.30138,128.31378c0,-1.02079 0.51294,-3.08107 2.71178,-3.11115c0.00138,0.066 0.07739,1.09606 0.03426,1.11145c-2.35066,-0.01024 1.99296,-0.2095 -0.00652,-0.00004c-0.16585,-0.08165 0.0072,-1.05791 -0.05348,-1.12649c2.14418,0.16687 2.72684,2.19943 2.72684,3.12622c0,0.06521 -0.00231,0.12987 -0.00684,0.19393c-0.09942,1.40421 -1.27008,2.51251 -2.6996,2.51251c-1.49473,0 -2.70644,-1.21171 -2.70644,-2.70644z" stroke="none" stroke-width="0"/><path d="M185.776,120.97403c0,-1.02079 0.51294,-3.08107 2.71178,-3.11115c0.00138,0.066 0.07739,1.09606 0.03426,1.11145c-2.35066,-0.01024 1.99296,-0.2095 -0.00652,-0.00004c-0.16585,-0.08165 0.0072,-1.05791 -0.05348,-1.12649c2.14418,0.16687 2.72684,2.19943 2.72684,3.12622c0,1.49473 -1.21171,2.70644 -2.70644,2.70644c-1.49473,0 -2.70644,-1.21171 -2.70644,-2.70644z" stroke="none" stroke-width="0"/><path d="M191.24241,128.14294c0,-1.02079 0.51294,-3.08107 2.71178,-3.11115c0.00138,0.066 0.07739,1.09606 0.03426,1.11145c-2.35066,-0.01024 1.99296,-0.2095 -0.00652,-0.00004c-0.16585,-0.08165 0.0072,-1.05791 -0.05348,-1.12649c2.14418,0.16687 2.72684,2.19943 2.72684,3.12622c0,1.49473 -1.21171,2.70644 -2.70644,2.70644c-1.49473,0 -2.70644,-1.21171 -2.70644,-2.70644z" stroke="none" stroke-width="0"/></g><g data-paper-data="{&quot;origRot&quot;:0}" fill="#000000"><path d="M294.04611,224.05313l-2.15667,4.33968c0,0 -0.31254,2.44867 -0.66528,5.13339c-0.04855,0.05715 1.33569,-0.03691 1.32651,0.02801c-0.01091,-0.08339 0.04875,1.67332 0.05372,1.67723c0.07022,0.05524 -1.71909,-0.03262 -1.73062,0.05344c-0.20502,1.53002 -0.28881,3.0379 -0.42939,4.11746c-0.02682,0.20599 -0.8362,-0.07948 -0.86414,-0.28531c-0.12904,-0.95075 -0.1649,-2.66161 -0.21073,-3.8193c-1.39783,0.03935 -1.34468,-0.0264 -1.64855,-0.02329c-0.05922,-0.02966 0.04753,-1.83969 0.06355,-1.82971c0.03767,0.00342 0.44721,0.02361 1.35863,0.03043c0.04976,-0.01947 -0.63031,-5.21008 -0.63031,-5.21008l-1.73789,-4.28394z" stroke="#000000" stroke-width="0.5"/><path d="M298.02196,234.13835c0,1.02079 -0.51294,3.08107 -2.71178,3.11115c-0.00138,-0.066 -0.07739,-1.09606 -0.03426,-1.11145c2.35066,0.01023 -1.99295,0.2095 0.00652,0.00004c0.16585,0.08165 -0.00719,1.05791 0.05349,1.12649c-2.14418,-0.16687 -2.72684,-2.19943 -2.72684,-3.12623c0,-0.0652 0.00231,-0.12988 0.00684,-0.19393c0.09942,-1.40421 1.27008,-2.51251 2.6996,-2.51251c1.49473,0 2.70644,1.21171 2.70644,2.70644z" stroke="none" stroke-width="0"/><path d="M293.54733,241.4781c0,1.02079 -0.51293,3.08107 -2.71178,3.11116c-0.00138,-0.066 -0.07739,-1.09606 -0.03426,-1.11146c2.35066,0.01024 -1.99296,0.20951 0.00652,0.00004c0.16584,0.08165 -0.0072,1.05791 0.05349,1.12648c-2.14418,-0.16687 -2.72685,-2.19943 -2.72685,-3.12622c0,-1.49472 1.21172,-2.70644 2.70644,-2.70644c1.49473,0 2.70644,1.21172 2.70644,2.70644z" stroke="none" stroke-width="0"/><path d="M288.08092,234.30919c0,1.0208 -0.51294,3.08107 -2.71177,3.11116c-0.00138,-0.066 -0.0774,-1.09606 -0.03427,-1.11145c2.35066,0.01023 -1.99296,0.2095 0.00652,0.00004c0.16584,0.08165 -0.0072,1.05791 0.05348,1.12648c-2.14418,-0.16687 -2.72685,-2.19943 -2.72685,-3.12623c0,-1.49472 1.21172,-2.70644 2.70644,-2.70644c1.49473,0 2.70644,1.21172 2.70644,2.70644z" stroke="none" stroke-width="0"/></g></g></g></svg>