<svg version="1.1" xmlns="http://www.w3.org/2000/svg" xmlns:xlink="http://www.w3.org/1999/xlink" width="143.5" height="191.5"><g transform="translate(-168.32143,-84.17857)"><g data-paper-data="{&quot;isPaintingLayer&quot;:true}" fill-rule="nonzero" stroke-linecap="butt" stroke-linejoin="miter" stroke-miterlimit="10" stroke-dasharray="" stroke-dashoffset="0" style="mix-blend-mode: normal"><path d="M172.57143,272.09524c0,0 -4,-5.34526 -4,-10.89999c0,-16.66422 0,-97.96444 0,-160.66667c0,-6.28323 4.33334,-11.76667 4.33334,-11.76667c0,0 5.11759,-4.33334 11.16666,-4.33334c44.09971,0 96.02357,0 113,0c5.65881,0 11.16666,5.33334 11.16666,5.33334c0,0 3.33334,4.28019 3.33334,10.43334c0,62.31197 0,141.44139 0,159.66666c0,6.07509 -2.66667,10.9 -2.66667,10.9c0,0 -6.17452,4.66666 -11.83333,4.66666c-16.97643,0 -69.10355,0 -113.33334,0c-5.91898,0 -11.16666,-3.33333 -11.16666,-3.33333z" data-paper-data="{&quot;origPos&quot;:null}" fill="#ffffff" stroke="#000000" stroke-width="0.5"/><g data-paper-data="{&quot;origPos&quot;:null}" fill="#000000" stroke="none" stroke-width="0"><path d="M225.87846,133.66335c0.18848,6.03462 -4.55077,11.07942 -10.58537,11.26789c-6.03462,0.18848 -11.07944,-4.55077 -11.26789,-10.58537c-0.18848,-6.03462 4.55078,-11.07944 10.58539,-11.26789c6.03462,-0.18848 11.07942,4.55078 11.26789,10.58539z" data-paper-data="{&quot;origPos&quot;:null}"/><path d="M208.96665,133.49759c0.18848,6.03462 -4.55078,11.07942 -10.58539,11.26789c-6.03462,0.18847 -11.07942,-4.55077 -11.26789,-10.58539c-0.18848,-6.03462 4.55077,-11.07944 10.58537,-11.26789c6.03462,-0.18847 11.07944,4.55078 11.26791,10.58539z" data-paper-data="{&quot;origPos&quot;:null}"/><path d="M201.5441,148.64033c0,0 2.43468,-1.4078 2.43468,-1.77632c0,-1.10556 0,-11.30506 0,-11.30506h4.6039c0,0 0,9.94437 0,11.30506c0,0.45358 2.18309,1.80603 2.18309,1.80603z" data-paper-data="{&quot;origPos&quot;:null}"/><path d="M217.48881,118.40943c0.18848,6.03462 -4.55077,11.07942 -10.58537,11.26789c-6.03462,0.18848 -11.07944,-4.55077 -11.26789,-10.58537c-0.18848,-6.03462 4.55078,-11.07944 10.58539,-11.26789c6.03462,-0.18848 11.07942,4.55078 11.26789,10.58539z" data-paper-data="{&quot;origPos&quot;:null}"/></g><text transform="translate(225.91321,225.55001) scale(2.7431,2.34182)" font-size="40" xml:space="preserve" data-paper-data="{&quot;origPos&quot;:null}" fill="#000000" fill-rule="nonzero" stroke="none" stroke-width="1" stroke-linecap="butt" stroke-linejoin="miter" stroke-miterlimit="10" stroke-dasharray="" stroke-dashoffset="0" font-family="Serif" font-weight="normal" text-anchor="start" style="mix-blend-mode: normal"><tspan x="0" dy="0">2</tspan></text></g></g></svg>