<svg version="1.1" xmlns="http://www.w3.org/2000/svg" xmlns:xlink="http://www.w3.org/1999/xlink" width="143.5" height="191.5" viewBox="0,0,143.5,191.5"><defs><radialGradient cx="240.7" cy="180" r="30.75" gradientUnits="userSpaceOnUse" id="color-1"><stop offset="0" stop-color="#000000"/><stop offset="1" stop-color="#ffffff"/></radialGradient></defs><g transform="translate(-168.25,-84.25)"><g data-paper-data="{&quot;isPaintingLayer&quot;:true}" fill-rule="nonzero" stroke-linejoin="miter" stroke-miterlimit="10" stroke-dasharray="" stroke-dashoffset="0" style="mix-blend-mode: normal"><path d="M172.5,272.16667c0,0 -4,-5.34526 -4,-10.89999c0,-16.66422 0,-97.96444 0,-160.66667c0,-6.28323 4.33334,-11.76667 4.33334,-11.76667c0,0 5.11759,-4.33334 11.16666,-4.33334c44.09971,0 96.02357,0 113,0c5.65881,0 11.16666,5.33334 11.16666,5.33334c0,0 3.33334,4.28019 3.33334,10.43334c0,62.31197 0,141.44139 0,159.66666c0,6.07509 -2.66667,10.9 -2.66667,10.9c0,0 -6.17452,4.66666 -11.83333,4.66666c-16.97643,0 -69.10355,0 -113.33334,0c-5.91898,0 -11.16666,-3.33333 -11.16666,-3.33333z" fill="#ffffff" stroke="#000000" stroke-width="0.5" stroke-linecap="butt"/><text transform="translate(185.57271,115.70191) scale(0.5,0.5)" font-size="40" xml:space="preserve" fill="#000000" fill-rule="nonzero" stroke="none" stroke-width="1" stroke-linecap="butt" stroke-linejoin="miter" stroke-miterlimit="10" stroke-dasharray="" stroke-dashoffset="0" font-family="Serif" font-weight="normal" text-anchor="start" style="mix-blend-mode: normal"><tspan x="0" dy="0">J</tspan></text><text transform="translate(294.5316,248.32155) rotate(-180) scale(0.5,0.5)" font-size="40" xml:space="preserve" data-paper-data="{&quot;origRot&quot;:-45}" fill="#000000" fill-rule="nonzero" stroke="none" stroke-width="1" stroke-linecap="butt" stroke-linejoin="miter" stroke-miterlimit="10" stroke-dasharray="" stroke-dashoffset="0" font-family="Serif" font-weight="normal" text-anchor="start" style="mix-blend-mode: normal"><tspan x="0" dy="0">J</tspan></text><g fill="#000000" stroke-linecap="butt"><path d="M185.18214,140.76233l2.15667,-4.33968c0,0 0.31255,-2.44868 0.66529,-5.13339c0.04855,-0.05715 -1.33569,0.03692 -1.32652,-0.02801c0.01091,0.08339 -0.04874,-1.67331 -0.05372,-1.67722c-0.07022,-0.05524 1.71908,0.03261 1.73061,-0.05345c0.20502,-1.53001 0.28882,-3.03789 0.42939,-4.11746c0.02682,-0.20598 0.83621,0.07948 0.86414,0.28531c0.12903,0.95075 0.16491,2.66162 0.21073,3.8193c1.39782,-0.03935 1.34468,0.0264 1.64855,0.0233c0.05922,0.02965 -0.04753,1.83969 -0.06355,1.82971c-0.03767,-0.00343 -0.44721,-0.02361 -1.35862,-0.03043c-0.04976,0.01948 0.63031,5.21008 0.63031,5.21008l1.73789,4.28394z" stroke="#000000" stroke-width="0.5"/><path d="M181.2063,130.67711c0,-1.02079 0.51294,-3.08107 2.71178,-3.11115c0.00138,0.066 0.07739,1.09606 0.03426,1.11145c-2.35066,-0.01024 1.99296,-0.2095 -0.00652,-0.00004c-0.16585,-0.08165 0.0072,-1.05791 -0.05348,-1.12649c2.14418,0.16687 2.72684,2.19943 2.72684,3.12622c0,0.06521 -0.00231,0.12987 -0.00684,0.19393c-0.09942,1.40421 -1.27008,2.51251 -2.6996,2.51251c-1.49473,0 -2.70644,-1.21171 -2.70644,-2.70644z" stroke="none" stroke-width="0"/><path d="M185.68092,123.33736c0,-1.02079 0.51294,-3.08107 2.71178,-3.11115c0.00138,0.066 0.07739,1.09606 0.03426,1.11145c-2.35066,-0.01024 1.99296,-0.2095 -0.00652,-0.00004c-0.16585,-0.08165 0.0072,-1.05791 -0.05348,-1.12649c2.14418,0.16687 2.72684,2.19943 2.72684,3.12622c0,1.49473 -1.21171,2.70644 -2.70644,2.70644c-1.49473,0 -2.70644,-1.21171 -2.70644,-2.70644z" stroke="none" stroke-width="0"/><path d="M191.14733,130.50627c0,-1.02079 0.51294,-3.08107 2.71178,-3.11115c0.00138,0.066 0.07739,1.09606 0.03426,1.11145c-2.35066,-0.01024 1.99296,-0.2095 -0.00652,-0.00004c-0.16585,-0.08165 0.0072,-1.05791 -0.05348,-1.12649c2.14418,0.16687 2.72684,2.19943 2.72684,3.12622c0,1.49473 -1.21171,2.70644 -2.70644,2.70644c-1.49473,0 -2.70644,-1.21171 -2.70644,-2.70644z" stroke="none" stroke-width="0"/></g><g data-paper-data="{&quot;origRot&quot;:0}" fill="#000000" stroke-linecap="butt"><path d="M295.1055,223.19374l-2.15667,4.33968c0,0 -0.31254,2.44867 -0.66528,5.13339c-0.04855,0.05715 1.33569,-0.03691 1.32651,0.02801c-0.01091,-0.08339 0.04875,1.67332 0.05372,1.67723c0.07022,0.05524 -1.71909,-0.03262 -1.73062,0.05344c-0.20502,1.53002 -0.28881,3.0379 -0.42939,4.11746c-0.02682,0.20599 -0.8362,-0.07948 -0.86414,-0.28531c-0.12904,-0.95075 -0.1649,-2.66161 -0.21073,-3.8193c-1.39783,0.03935 -1.34468,-0.0264 -1.64855,-0.02329c-0.05922,-0.02966 0.04753,-1.83969 0.06355,-1.82971c0.03767,0.00342 0.44721,0.02361 1.35863,0.03043c0.04976,-0.01947 -0.63031,-5.21008 -0.63031,-5.21008l-1.73789,-4.28394z" stroke="#000000" stroke-width="0.5"/><path d="M299.08135,233.27896c0,1.02079 -0.51294,3.08107 -2.71178,3.11115c-0.00138,-0.066 -0.07739,-1.09606 -0.03426,-1.11145c2.35066,0.01023 -1.99295,0.2095 0.00652,0.00004c0.16585,0.08165 -0.00719,1.05791 0.05349,1.12649c-2.14418,-0.16687 -2.72684,-2.19943 -2.72684,-3.12623c0,-0.0652 0.00231,-0.12988 0.00684,-0.19393c0.09942,-1.40421 1.27008,-2.51251 2.6996,-2.51251c1.49473,0 2.70644,1.21171 2.70644,2.70644z" stroke="none" stroke-width="0"/><path d="M294.60672,240.61871c0,1.02079 -0.51293,3.08107 -2.71178,3.11116c-0.00138,-0.066 -0.07739,-1.09606 -0.03426,-1.11146c2.35066,0.01024 -1.99296,0.20951 0.00652,0.00004c0.16584,0.08165 -0.0072,1.05791 0.05349,1.12648c-2.14418,-0.16687 -2.72685,-2.19943 -2.72685,-3.12622c0,-1.49472 1.21172,-2.70644 2.70644,-2.70644c1.49473,0 2.70644,1.21172 2.70644,2.70644z" stroke="none" stroke-width="0"/><path d="M289.14031,233.4498c0,1.0208 -0.51294,3.08107 -2.71177,3.11116c-0.00138,-0.066 -0.0774,-1.09606 -0.03427,-1.11145c2.35066,0.01023 -1.99296,0.2095 0.00652,0.00004c0.16584,0.08165 -0.0072,1.05791 0.05348,1.12648c-2.14418,-0.16687 -2.72685,-2.19943 -2.72685,-3.12623c0,-1.49472 1.21172,-2.70644 2.70644,-2.70644c1.49473,0 2.70644,1.21172 2.70644,2.70644z" stroke="none" stroke-width="0"/></g><g stroke="none" stroke-width="0" stroke-linecap="butt"><path d="M197.45,180c0,-23.61017 19.13983,-42.75 42.75,-42.75c23.61018,0 42.75,19.13983 42.75,42.75c0,23.61018 -19.13982,42.75 -42.75,42.75c-23.61017,0 -42.75,-19.13983 -42.75,-42.75z" fill="#02005e"/><path d="M209.95,180c0,-16.98275 13.76725,-30.75 30.75,-30.75c16.98275,0 30.75,13.76725 30.75,30.75c0,16.98275 -13.76725,30.75 -30.75,30.75c-16.98275,0 -30.75,-13.76725 -30.75,-30.75z" fill="url(#color-1)"/><path d="M224.7,180c0,-8.56042 6.93958,-15.5 15.5,-15.5c8.56042,0 15.5,6.93958 15.5,15.5c0,8.56042 -6.93958,15.5 -15.5,15.5c-8.56042,0 -15.5,-6.93958 -15.5,-15.5z" fill="#02005e"/></g><g><path d="M247.68343,225.29005l-0.5,22.5h-23.5c0,0 -9.6595,-15.95708 -5,-16.5c9.5,-1.10694 5,-13 5,-13c0,0 10.70524,0 15,0c3.23298,0 9,7 9,7z" fill="#ffb89a" stroke="#000000" stroke-width="0.5" stroke-linecap="butt"/><path d="M271.37052,216.84516c-1.44816,3.16309 1.89953,5.77208 0.3167,9.22933c-2.21997,4.84889 -7.30327,7.39926 -8.49502,10.00228c-1.94262,4.2431 -1.54879,11.9355 -1.54879,11.9355h-27c0,0 -0.51011,-7.43845 1.3755,-11.55701c1.40514,-3.06912 7.09456,-6.94336 9.78784,-12.82605c1.12073,-2.4479 -2.75788,-3.89728 -1.72807,-6.14659c2.5669,-5.60665 29.71378,-5.9275 27.29184,-0.63746z" fill="#000000" stroke="none" stroke-width="0" stroke-linecap="butt"/><path d="M261.95036,213.82128c-1.44816,3.16309 1.70858,9.01818 0.12575,12.47543c-2.21997,4.84889 -7.30327,7.39926 -8.49502,10.00228c-1.94262,4.2431 -1.54879,11.9355 -1.54879,11.9355h-7c0,0 -0.51011,-7.43845 1.3755,-11.55701c1.40514,-3.06912 7.09456,-6.94336 9.78784,-12.82605c1.12073,-2.4479 -2.94882,-7.71622 -1.91902,-9.96553c3.52164,-0.06919 2.83969,-0.77193 7.67373,-0.06462z" fill="#b3aca1" stroke="none" stroke-width="0" stroke-linecap="butt"/><path d="M223.69455,238.57894c0,-0.82843 0.91782,-1.5 2.05,-1.5c1.13218,0 2.05,0.67157 2.05,1.5c0,0.82843 -0.91782,1.5 -2.05,1.5c-1.13218,0 -2.05,-0.67157 -2.05,-1.5z" fill="#000000" stroke="#000000" stroke-width="0.5" stroke-linecap="butt"/><path d="M222.24455,240.71894l5.4,1.4l2.2,0.8" fill="none" stroke="#000000" stroke-width="0.5" stroke-linecap="round"/><path d="M224.73343,226.83005l4.2,-1.8" fill="none" stroke="#000000" stroke-width="0.5" stroke-linecap="round"/><path d="M261.41635,247.54347l2.24547,12.57461c0,0 -7.78808,-6.35226 -11.67643,-3.59274c-5.69524,4.04184 -13.01891,4.04184 -18.41284,0.44909c-6.85945,-4.56889 -15.71827,3.14365 -15.71827,3.14365l3.59275,-12.57461z" fill="#02005e" stroke="#000000" stroke-width="1" stroke-linecap="butt"/><g fill="#ffffff" stroke="none" stroke-width="0" stroke-linecap="butt"><path d="M244.0137,249.12804l-0.93663,1.8847c0,0 -0.13573,1.06344 -0.28893,2.2294c-0.02108,0.02482 0.58008,-0.01603 0.5761,0.01217c-0.00474,-0.03622 0.02117,0.72671 0.02333,0.7284c0.03049,0.02399 -0.74659,-0.01416 -0.7516,0.02322c-0.08904,0.66447 -0.12543,1.31934 -0.18648,1.78818c-0.01165,0.08945 -0.36316,-0.03452 -0.37529,-0.12391c-0.05604,-0.41291 -0.07162,-1.15592 -0.09152,-1.6587c-0.60707,0.01709 -0.58398,-0.01147 -0.71596,-0.01012c-0.02572,-0.01288 0.02064,-0.79896 0.0276,-0.79463c0.01636,0.00149 0.19422,0.01025 0.59004,0.01321c0.02161,-0.00846 -0.27374,-2.26271 -0.27374,-2.26271l-0.75475,-1.86049z"/><path d="M245.74038,253.50799c0,0.44332 -0.22276,1.33809 -1.17771,1.35115c-0.0006,-0.02866 -0.03361,-0.47601 -0.01488,-0.48269c1.02088,0.00445 -0.86553,0.09098 0.00284,0.00001c0.07203,0.03546 -0.00313,0.45945 0.02322,0.48923c-0.93121,-0.07247 -1.18425,-0.9552 -1.18425,-1.3577c0,-0.02832 0.00101,-0.0564 0.00297,-0.08422c0.04318,-0.60984 0.55159,-1.09117 1.17242,-1.09117c0.64915,0 1.17539,0.52624 1.17539,1.17539z"/><path d="M243.79708,256.6956c0,0.44333 -0.22276,1.33809 -1.17771,1.35115c-0.0006,-0.02866 -0.03361,-0.47601 -0.01488,-0.48269c1.02088,0.00444 -0.86553,0.09098 0.00283,0.00001c0.07203,0.03546 -0.00313,0.45945 0.02323,0.48923c-0.93121,-0.07247 -1.18426,-0.9552 -1.18426,-1.3577c0,-0.64915 0.52625,-1.17539 1.17539,-1.17539c0.64915,0 1.17539,0.52624 1.17539,1.17539z"/><path d="M241.42305,253.58219c0,0.44332 -0.22276,1.33809 -1.17771,1.35116c-0.0006,-0.02866 -0.03361,-0.47601 -0.01488,-0.4827c1.02088,0.00445 -0.86553,0.09098 0.00283,0.00002c0.07203,0.03546 -0.00313,0.45944 0.02323,0.48923c-0.9312,-0.07247 -1.18425,-0.9552 -1.18425,-1.3577c0,-0.64915 0.52624,-1.17539 1.17539,-1.17539c0.64915,0 1.17539,0.52624 1.17539,1.17539z"/></g></g><g><path d="M236.06502,136.27773l0.5,-22.5h23.5c0,0 9.6595,15.95708 5,16.5c-9.5,1.10694 -5,13 -5,13c0,0 -10.70524,0 -15,0c-3.23298,0 -9,-7 -9,-7z" fill="#ffb89a" stroke="#000000" stroke-width="0.5" stroke-linecap="butt"/><path d="M212.98235,144.72261c1.44816,-3.16309 -1.89953,-5.77208 -0.3167,-9.22933c2.21997,-4.84889 7.30327,-7.39926 8.49502,-10.00228c1.94262,-4.2431 1.54879,-11.9355 1.54879,-11.9355h27c0,0 0.51011,7.43845 -1.3755,11.55701c-1.40514,3.06912 -7.09456,6.94336 -9.78784,12.82605c-1.12073,2.4479 2.75788,3.89728 1.72807,6.14659c-2.5669,5.60665 -29.71378,5.9275 -27.29184,0.63746z" fill="#000000" stroke="none" stroke-width="0" stroke-linecap="butt"/><path d="M222.40251,147.74649c1.44816,-3.16309 -1.70858,-9.01818 -0.12575,-12.47543c2.21997,-4.84889 7.30327,-7.39926 8.49502,-10.00228c1.94262,-4.2431 1.54879,-11.9355 1.54879,-11.9355h7c0,0 0.51011,7.43845 -1.3755,11.55701c-1.40514,3.06912 -7.09456,6.94336 -9.78784,12.82605c-1.12073,2.4479 2.94882,7.71622 1.91902,9.96553c-3.52164,0.06919 -2.83969,0.77193 -7.67373,0.06462z" fill="#b3aca1" stroke="none" stroke-width="0" stroke-linecap="butt"/><path d="M260.05389,122.98884c0,0.82843 -0.91782,1.5 -2.05,1.5c-1.13218,0 -2.05,-0.67157 -2.05,-1.5c0,-0.82843 0.91782,-1.5 2.05,-1.5c1.13218,0 2.05,0.67157 2.05,1.5z" fill="#000000" stroke="#000000" stroke-width="0.5" stroke-linecap="butt"/><path d="M261.50389,120.84884l-5.4,-1.4l-2.2,-0.8" fill="none" stroke="#000000" stroke-width="0.5" stroke-linecap="round"/><path d="M254.81502,136.53773l4.2,-1.8" fill="none" stroke="#000000" stroke-width="0.5" stroke-linecap="round"/><path d="M222.93652,114.02431l-2.24547,-12.57461c0,0 7.78808,6.35226 11.67643,3.59274c5.69524,-4.04184 13.01891,-4.04184 18.41284,-0.44909c6.85945,4.56889 15.71827,-3.14365 15.71827,-3.14365l-3.59275,12.57461z" fill="#02005e" stroke="#000000" stroke-width="1" stroke-linecap="butt"/><g fill="#ffffff" stroke="none" stroke-width="0" stroke-linecap="butt"><path d="M240.13917,112.43973l0.93663,-1.8847c0,0 0.13573,-1.06345 0.28893,-2.2294c0.02108,-0.02482 -0.58008,0.01604 -0.5761,-0.01216c0.00474,0.03621 -0.02116,-0.7267 -0.02333,-0.7284c-0.0305,-0.02399 0.74659,0.01416 0.75159,-0.02322c0.08904,-0.66447 0.12543,-1.31933 0.18648,-1.78818c0.01165,-0.08946 0.36316,0.03452 0.37529,0.12391c0.05604,0.4129 0.07162,1.15592 0.09152,1.6587c0.60707,-0.01709 0.58399,0.01147 0.71596,0.01012c0.02572,0.01287 -0.02065,0.79896 -0.0276,0.79463c-0.01636,-0.00149 -0.19422,-0.01026 -0.59004,-0.01322c-0.02161,0.00846 0.27374,2.26271 0.27374,2.26271l0.75475,1.86049z"/><path d="M238.41249,108.05978c0,-0.44333 0.22277,-1.33809 1.17771,-1.35116c0.0006,0.02867 0.03361,0.47601 0.01488,0.48269c-1.02088,-0.00445 0.86552,-0.09098 -0.00284,-0.00001c-0.07203,-0.03546 0.00313,-0.45945 -0.02322,-0.48923c0.93121,0.07247 1.18425,0.9552 1.18425,1.3577c0,0.02832 -0.001,0.0564 -0.00297,0.08422c-0.04318,0.60984 -0.55159,1.09117 -1.17242,1.09117c-0.64915,0 -1.17539,-0.52624 -1.17539,-1.17539z"/><path d="M240.35579,104.87217c0,-0.44333 0.22276,-1.33809 1.17771,-1.35116c0.0006,0.02867 0.03361,0.47601 0.01488,0.4827c-1.02088,-0.00445 0.86553,-0.09098 -0.00283,-0.00002c-0.07203,-0.03546 0.00313,-0.45944 -0.02323,-0.48923c0.93121,0.07247 1.18426,0.9552 1.18426,1.3577c0,0.64915 -0.52625,1.17539 -1.1754,1.17539c-0.64915,0 -1.17539,-0.52624 -1.17539,-1.17539z"/><path d="M242.72982,107.98559c0,-0.44333 0.22277,-1.33809 1.17771,-1.35116c0.0006,0.02867 0.03361,0.47601 0.01488,0.4827c-1.02088,-0.00445 0.86553,-0.09098 -0.00283,-0.00002c-0.07203,-0.03546 0.00313,-0.45945 -0.02323,-0.48923c0.93121,0.07247 1.18425,0.9552 1.18425,1.3577c0,0.64915 -0.52624,1.17539 -1.17539,1.17539c-0.64915,0 -1.17539,-0.52624 -1.17539,-1.17539z"/></g></g><g stroke-linecap="butt"><path d="M196.19836,177.84127c0,1.2613 -1.0225,2.28379 -2.2838,2.28379c-1.2613,0 -2.28379,-1.02249 -2.28379,-2.28379c0,-1.2613 1.02249,-2.2838 2.28379,-2.2838c1.2613,0 2.2838,1.0225 2.2838,2.2838z" fill="#e4ce00" stroke="none" stroke-width="0"/><path d="M195.85484,183.57979v41.01749h-3.69353v-41.01749z" fill="#e4ce00" stroke="#02005e" stroke-width="0"/><path d="M190.42661,186.40033c0,-5.00726 2.30021,-9.06646 5.13766,-9.06646c2.83745,0 5.13765,4.05919 5.13765,9.06646c0,1.42074 0.60856,3.57991 0.03274,7.23416c-0.45374,2.87945 -4.18062,4.05039 -4.58501,3.31596c-1.45687,-2.64585 1.87372,-4.667 0.47573,-6.61237c-1.65584,-2.30419 -6.19877,1.06951 -6.19877,-3.93775z" fill="#ffb89a" stroke="#000000" stroke-width="0.5"/><path d="M195.85922,225.03372l-1.02017,2.05279c0,0 -0.14784,1.1583 -0.3147,2.42825c-0.02296,0.02704 0.63183,-0.01746 0.62749,0.01325c-0.00516,-0.03945 0.02305,0.79152 0.02541,0.79337c0.03322,0.02613 -0.81318,-0.01542 -0.81863,0.02529c-0.09698,0.72374 -0.13662,1.43701 -0.20311,1.94768c-0.01269,0.09743 -0.39555,-0.0376 -0.40876,-0.13496c-0.06104,-0.44973 -0.07801,-1.25902 -0.09968,-1.80664c-0.66121,0.01862 -0.63607,-0.01249 -0.77981,-0.01103c-0.02802,-0.01403 0.02248,-0.87022 0.03006,-0.8655c0.01782,0.00162 0.21155,0.01117 0.64267,0.01439c0.02354,-0.00922 -0.29816,-2.46452 -0.29816,-2.46452l-0.82207,-2.02642z" fill="#000000" stroke="#000000" stroke-width="0.5"/><path d="M197.73991,229.80432c0,0.48287 -0.24264,1.45744 -1.28275,1.47167c-0.00065,-0.03122 -0.03661,-0.51847 -0.01621,-0.52575c1.11193,0.00484 -0.94272,0.0991 0.00309,0.00002c0.07845,0.03862 -0.00341,0.50042 0.02529,0.53286c-1.01426,-0.07894 -1.28987,-1.04039 -1.28987,-1.47879c0,-0.03084 0.00109,-0.06143 0.00323,-0.09173c0.04703,-0.66423 0.60079,-1.18849 1.27699,-1.18849c0.70705,0 1.28022,0.57317 1.28022,1.28023z" fill="#000000" stroke="none" stroke-width="0"/><path d="M195.62328,233.27624c0,0.48287 -0.24264,1.45743 -1.28275,1.47166c-0.00065,-0.03122 -0.03661,-0.51846 -0.01621,-0.52575c1.11193,0.00484 -0.94272,0.09909 0.00308,0.00001c0.07845,0.03862 -0.0034,0.50043 0.0253,0.53287c-1.01426,-0.07894 -1.28987,-1.04039 -1.28987,-1.47879c0,-0.70705 0.57317,-1.28022 1.28023,-1.28022c0.70705,0 1.28022,0.57317 1.28022,1.28022z" fill="#000000" stroke="none" stroke-width="0"/><path d="M193.03751,229.88513c0,0.48287 -0.24264,1.45744 -1.28275,1.47167c-0.00065,-0.03122 -0.03661,-0.51847 -0.01621,-0.52575c1.11193,0.00484 -0.94272,0.0991 0.00308,0.00002c0.07845,0.03862 -0.0034,0.50043 0.0253,0.53287c-1.01426,-0.07894 -1.28987,-1.0404 -1.28987,-1.4788c0,-0.70705 0.57317,-1.28023 1.28023,-1.28023c0.70705,0 1.28022,0.57317 1.28022,1.28023z" fill="#000000" stroke="none" stroke-width="0"/><g><g fill="#e4ce00" stroke-width="0"><path d="M284.13865,176.58228v-41.01749h3.69353v41.01749z" stroke="#02005e"/><path d="M283.79513,182.3208c0,-1.2613 1.0225,-2.28379 2.2838,-2.28379c1.2613,0 2.28379,1.02249 2.28379,2.28379c0,1.2613 -1.02249,2.2838 -2.28379,2.2838c-1.2613,0 -2.2838,-1.0225 -2.2838,-2.2838z" stroke="none"/></g><path d="M289.56688,174.03538c0,5.00726 -2.30021,9.06646 -5.13766,9.06646c-2.83745,0 -5.13765,-4.05919 -5.13765,-9.06646c0,-1.42074 -0.60856,-3.57991 -0.03274,-7.23416c0.45374,-2.87945 4.18062,-4.05039 4.58501,-3.31596c1.45687,2.64585 -1.87372,4.667 -0.47573,6.61237c1.65584,2.30419 6.19877,-1.06951 6.19877,3.93775z" fill="#ffb89a" stroke="#000000" stroke-width="0.5"/><path d="M284.37021,126.88584c0,-0.48287 0.24264,-1.45743 1.28275,-1.47166c0.00065,0.03122 0.0366,0.51847 0.0162,0.52575c-1.11193,-0.00485 0.94272,-0.0991 -0.00308,-0.00002c-0.07845,-0.03862 0.00341,-0.50043 -0.0253,-0.53287c1.01426,0.07894 1.28987,1.0404 1.28987,1.4788c0,0.70705 -0.57318,1.28022 -1.28023,1.28022c-0.70705,0 -1.28022,-0.57317 -1.28022,-1.28022z" fill="#000000" stroke="none" stroke-width="0"/><path d="M284.13427,135.12835l1.02017,-2.05279c0,0 0.14785,-1.1583 0.3147,-2.42825c0.02296,-0.02704 -0.63182,0.01746 -0.62748,-0.01325c0.00516,0.03945 -0.02305,-0.79152 -0.02541,-0.79337c-0.03321,-0.02613 0.81318,0.01542 0.81863,-0.02528c0.09698,-0.72374 0.13662,-1.43701 0.20312,-1.94768c0.01268,-0.09744 0.39555,0.0376 0.40876,0.13496c0.06104,0.44973 0.07801,1.25902 0.09969,1.80664c0.66121,-0.01862 0.63607,0.01249 0.77981,0.01103c0.02801,0.01403 -0.02248,0.87022 -0.03006,0.8655c-0.01782,-0.00162 -0.21155,-0.01117 -0.64267,-0.01439c-0.02354,0.00922 0.29816,2.46452 0.29816,2.46452l0.82207,2.02642z" fill="#000000" stroke="#000000" stroke-width="0.5"/><path d="M282.25358,130.35775c0,-0.48287 0.24264,-1.45744 1.28275,-1.47167c0.00065,0.03122 0.0366,0.51847 0.0162,0.52575c-1.11193,-0.00484 0.94272,-0.0991 -0.00308,-0.00002c-0.07845,-0.03862 0.00341,-0.50042 -0.02529,-0.53286c1.01426,0.07894 1.28987,1.04039 1.28987,1.47879c0,0.03084 -0.00109,0.06143 -0.00324,0.09173c-0.04703,0.66423 -0.60079,1.18849 -1.27699,1.18849c-0.70705,0 -1.28022,-0.57317 -1.28022,-1.28023z" fill="#000000" stroke="none" stroke-width="0"/><path d="M286.95598,130.27694c0,-0.48287 0.24263,-1.45744 1.28275,-1.47167c0.00065,0.03122 0.03661,0.51847 0.01621,0.52575c-1.11193,-0.00484 0.94272,-0.0991 -0.00308,-0.00002c-0.07845,-0.03862 0.0034,-0.50043 -0.0253,-0.53287c1.01426,0.07894 1.28987,1.0404 1.28987,1.4788c0,0.70705 -0.57317,1.28023 -1.28022,1.28023c-0.70705,0 -1.28022,-0.57317 -1.28022,-1.28023z" fill="#000000" stroke="none" stroke-width="0"/></g></g></g></g></svg>