<svg version="1.1" xmlns="http://www.w3.org/2000/svg" xmlns:xlink="http://www.w3.org/1999/xlink" width="143.5" height="191.5" viewBox="0,0,143.5,191.5"><defs><radialGradient cx="240" cy="180" r="27.56727" gradientUnits="userSpaceOnUse" id="color-1"><stop offset="0" stop-color="#000000"/><stop offset="1" stop-color="#ffffff"/></radialGradient><linearGradient x1="274.26348" y1="148.69188" x2="276.27272" y2="153.66404" gradientUnits="userSpaceOnUse" id="color-2"><stop offset="0" stop-color="#d6e100"/><stop offset="1" stop-color="#00ab25"/></linearGradient><linearGradient x1="271.14151" y1="149.83615" x2="273.22931" y2="155.00274" gradientUnits="userSpaceOnUse" id="color-3"><stop offset="0" stop-color="#d6e100"/><stop offset="1" stop-color="#00ab25"/></linearGradient><linearGradient x1="280.52745" y1="146.21394" x2="282.53668" y2="151.1861" gradientUnits="userSpaceOnUse" id="color-4"><stop offset="0" stop-color="#d6e100"/><stop offset="1" stop-color="#00ab25"/></linearGradient><linearGradient x1="283.57087" y1="144.87524" x2="285.65867" y2="150.04182" gradientUnits="userSpaceOnUse" id="color-5"><stop offset="0" stop-color="#d6e100"/><stop offset="1" stop-color="#00ab25"/></linearGradient><linearGradient x1="206.87002" y1="211.5337" x2="204.86078" y2="206.56154" gradientUnits="userSpaceOnUse" id="color-6"><stop offset="0" stop-color="#d6e100"/><stop offset="1" stop-color="#00ab25"/></linearGradient><linearGradient x1="209.99199" y1="210.38943" x2="207.90419" y2="205.22284" gradientUnits="userSpaceOnUse" id="color-7"><stop offset="0" stop-color="#d6e100"/><stop offset="1" stop-color="#00ab25"/></linearGradient><linearGradient x1="200.60605" y1="214.01164" x2="198.59681" y2="209.03949" gradientUnits="userSpaceOnUse" id="color-8"><stop offset="0" stop-color="#d6e100"/><stop offset="1" stop-color="#00ab25"/></linearGradient><linearGradient x1="197.56263" y1="215.35034" x2="195.47483" y2="210.18375" gradientUnits="userSpaceOnUse" id="color-9"><stop offset="0" stop-color="#d6e100"/><stop offset="1" stop-color="#00ab25"/></linearGradient></defs><g transform="translate(-168.24999,-84.25)"><g data-paper-data="{&quot;isPaintingLayer&quot;:true}" fill-rule="nonzero" stroke-linejoin="miter" stroke-miterlimit="10" stroke-dasharray="" stroke-dashoffset="0" style="mix-blend-mode: normal"><path d="M172.5,272.16667c0,0 -4,-5.34526 -4,-10.89999c0,-16.66422 0,-97.96444 0,-160.66667c0,-6.28323 4.33334,-11.76667 4.33334,-11.76667c0,0 5.11759,-4.33334 11.16666,-4.33334c44.09971,0 96.02357,0 113,0c5.65881,0 11.16666,5.33334 11.16666,5.33334c0,0 3.33334,4.28019 3.33334,10.43334c0,62.31197 0,141.44139 0,159.66666c0,6.07509 -2.66667,10.9 -2.66667,10.9c0,0 -6.17452,4.66666 -11.83333,4.66666c-16.97643,0 -69.10355,0 -113.33334,0c-5.91898,0 -11.16666,-3.33333 -11.16666,-3.33333z" fill="#ffffff" stroke="#000000" stroke-width="0.5" stroke-linecap="butt"/><g stroke="none" stroke-width="0" stroke-linecap="butt"><path d="M201.67477,180c0,-23.61017 17.15879,-42.75 38.32523,-42.75c21.16645,0 38.32523,19.13983 38.32523,42.75c0,23.61018 -17.15878,42.75 -38.32523,42.75c-21.16644,0 -38.32523,-19.13983 -38.32523,-42.75z" fill="#020084"/><path d="M212.43273,180c0,-16.98275 12.34229,-30.75 27.56727,-30.75c15.22498,0 27.56727,13.76725 27.56727,30.75c0,16.98275 -12.34229,30.75 -27.56727,30.75c-15.22498,0 -27.56727,-13.76725 -27.56727,-30.75z" fill="url(#color-1)"/><path d="M226.10427,180c0,-8.56042 6.22131,-15.5 13.8957,-15.5c7.67439,0 13.8957,6.93958 13.8957,15.5c0,8.56042 -6.22131,15.5 -13.8957,15.5c-7.67439,0 -13.8957,-6.93958 -13.8957,-15.5z" fill="#020084"/></g><text transform="translate(181.4718,115.70191) scale(0.5,0.5)" font-size="40" xml:space="preserve" fill="#000000" fill-rule="nonzero" stroke="none" stroke-width="1" stroke-linecap="butt" stroke-linejoin="miter" stroke-miterlimit="10" stroke-dasharray="" stroke-dashoffset="0" font-family="Serif" font-weight="normal" text-anchor="start" style="mix-blend-mode: normal"><tspan x="0" dy="0">Q</tspan></text><text transform="translate(298.23251,248.32155) rotate(-180) scale(0.5,0.5)" font-size="40" xml:space="preserve" data-paper-data="{&quot;origRot&quot;:-45}" fill="#000000" fill-rule="nonzero" stroke="none" stroke-width="1" stroke-linecap="butt" stroke-linejoin="miter" stroke-miterlimit="10" stroke-dasharray="" stroke-dashoffset="0" font-family="Serif" font-weight="normal" text-anchor="start" style="mix-blend-mode: normal"><tspan x="0" dy="0">Q</tspan></text><g fill="#000000" stroke-linecap="butt"><path d="M185.27722,138.399l2.15667,-4.33968c0,0 0.31255,-2.44868 0.66529,-5.13339c0.04855,-0.05715 -1.33569,0.03692 -1.32652,-0.02801c0.01091,0.08339 -0.04874,-1.67331 -0.05372,-1.67722c-0.07022,-0.05524 1.71908,0.03261 1.73061,-0.05345c0.20502,-1.53001 0.28882,-3.03789 0.42939,-4.11746c0.02682,-0.20598 0.83621,0.07948 0.86414,0.28531c0.12903,0.95075 0.16491,2.66162 0.21073,3.8193c1.39782,-0.03935 1.34468,0.0264 1.64855,0.0233c0.05922,0.02965 -0.04753,1.83969 -0.06355,1.82971c-0.03767,-0.00343 -0.44721,-0.02361 -1.35862,-0.03043c-0.04976,0.01948 0.63031,5.21008 0.63031,5.21008l1.73789,4.28394z" stroke="#000000" stroke-width="0.5"/><path d="M181.30138,128.31378c0,-1.02079 0.51294,-3.08107 2.71178,-3.11115c0.00138,0.066 0.07739,1.09606 0.03426,1.11145c-2.35066,-0.01024 1.99296,-0.2095 -0.00652,-0.00004c-0.16585,-0.08165 0.0072,-1.05791 -0.05348,-1.12649c2.14418,0.16687 2.72684,2.19943 2.72684,3.12622c0,0.06521 -0.00231,0.12987 -0.00684,0.19393c-0.09942,1.40421 -1.27008,2.51251 -2.6996,2.51251c-1.49473,0 -2.70644,-1.21171 -2.70644,-2.70644z" stroke="none" stroke-width="0"/><path d="M185.776,120.97403c0,-1.02079 0.51294,-3.08107 2.71178,-3.11115c0.00138,0.066 0.07739,1.09606 0.03426,1.11145c-2.35066,-0.01024 1.99296,-0.2095 -0.00652,-0.00004c-0.16585,-0.08165 0.0072,-1.05791 -0.05348,-1.12649c2.14418,0.16687 2.72684,2.19943 2.72684,3.12622c0,1.49473 -1.21171,2.70644 -2.70644,2.70644c-1.49473,0 -2.70644,-1.21171 -2.70644,-2.70644z" stroke="none" stroke-width="0"/><path d="M191.24241,128.14294c0,-1.02079 0.51294,-3.08107 2.71178,-3.11115c0.00138,0.066 0.07739,1.09606 0.03426,1.11145c-2.35066,-0.01024 1.99296,-0.2095 -0.00652,-0.00004c-0.16585,-0.08165 0.0072,-1.05791 -0.05348,-1.12649c2.14418,0.16687 2.72684,2.19943 2.72684,3.12622c0,1.49473 -1.21171,2.70644 -2.70644,2.70644c-1.49473,0 -2.70644,-1.21171 -2.70644,-2.70644z" stroke="none" stroke-width="0"/></g><g data-paper-data="{&quot;origRot&quot;:0}" fill="#000000" stroke-linecap="butt"><path d="M294.04611,224.05313l-2.15667,4.33968c0,0 -0.31254,2.44867 -0.66528,5.13339c-0.04855,0.05715 1.33569,-0.03691 1.32651,0.02801c-0.01091,-0.08339 0.04875,1.67332 0.05372,1.67723c0.07022,0.05524 -1.71909,-0.03262 -1.73062,0.05344c-0.20502,1.53002 -0.28881,3.0379 -0.42939,4.11746c-0.02682,0.20599 -0.8362,-0.07948 -0.86414,-0.28531c-0.12904,-0.95075 -0.1649,-2.66161 -0.21073,-3.8193c-1.39783,0.03935 -1.34468,-0.0264 -1.64855,-0.02329c-0.05922,-0.02966 0.04753,-1.83969 0.06355,-1.82971c0.03767,0.00342 0.44721,0.02361 1.35863,0.03043c0.04976,-0.01947 -0.63031,-5.21008 -0.63031,-5.21008l-1.73789,-4.28394z" stroke="#000000" stroke-width="0.5"/><path d="M298.02196,234.13835c0,1.02079 -0.51294,3.08107 -2.71178,3.11115c-0.00138,-0.066 -0.07739,-1.09606 -0.03426,-1.11145c2.35066,0.01023 -1.99295,0.2095 0.00652,0.00004c0.16585,0.08165 -0.00719,1.05791 0.05349,1.12649c-2.14418,-0.16687 -2.72684,-2.19943 -2.72684,-3.12623c0,-0.0652 0.00231,-0.12988 0.00684,-0.19393c0.09942,-1.40421 1.27008,-2.51251 2.6996,-2.51251c1.49473,0 2.70644,1.21171 2.70644,2.70644z" stroke="none" stroke-width="0"/><path d="M293.54733,241.4781c0,1.02079 -0.51293,3.08107 -2.71178,3.11116c-0.00138,-0.066 -0.07739,-1.09606 -0.03426,-1.11146c2.35066,0.01024 -1.99296,0.20951 0.00652,0.00004c0.16584,0.08165 -0.0072,1.05791 0.05349,1.12648c-2.14418,-0.16687 -2.72685,-2.19943 -2.72685,-3.12622c0,-1.49472 1.21172,-2.70644 2.70644,-2.70644c1.49473,0 2.70644,1.21172 2.70644,2.70644z" stroke="none" stroke-width="0"/><path d="M288.08092,234.30919c0,1.0208 -0.51294,3.08107 -2.71177,3.11116c-0.00138,-0.066 -0.0774,-1.09606 -0.03427,-1.11145c2.35066,0.01023 -1.99296,0.2095 0.00652,0.00004c0.16584,0.08165 -0.0072,1.05791 0.05348,1.12648c-2.14418,-0.16687 -2.72685,-2.19943 -2.72685,-3.12623c0,-1.49472 1.21172,-2.70644 2.70644,-2.70644c1.49473,0 2.70644,1.21172 2.70644,2.70644z" stroke="none" stroke-width="0"/></g><g><path d="M237.05993,135.98225l-1.66071,-24.85714h23.5c0,0 9.6595,15.95708 5,16.5c-6.91235,0.80543 -6.41276,7.32129 -5.62774,10.81117c0.29387,1.30644 -0.15104,2.18883 -1.37277,2.18883c-3.30792,0 -6.1131,-0.875 -9.24949,-0.875c-3.23298,0 -10.58929,-3.76786 -10.58929,-3.76786z" fill="#ffb89a" stroke="#000000" stroke-width="0.5" stroke-linecap="butt"/><path d="M258.70754,120.22512c0,0.82843 -0.91782,1.5 -2.05,1.5c-1.13218,0 -2.05,-0.67157 -2.05,-1.5c0,-0.82843 0.91782,-1.5 2.05,-1.5c1.13218,0 2.05,0.67157 2.05,1.5z" fill="#000000" stroke="#000000" stroke-width="0.5" stroke-linecap="butt"/><path d="M257.7242,132.08512c0,0 -1.99736,0.97312 -2.95236,0.96028c-0.90009,-0.01211 -2.87264,-1.66028 -2.87264,-1.66028" fill="none" stroke="#000000" stroke-width="0.5" stroke-linecap="round"/><path d="M260.10704,117.40768c0,0 -0.30535,0.875 -1.17073,1.375c-0.58873,0.34015 -1.82927,0 -1.82927,0" fill="none" stroke="#000000" stroke-width="0.5" stroke-linecap="round"/><path d="M221.48754,111.15273c0,0 5.5426,-6.22235 9.43096,-8.98187c5.69524,-4.04184 13.01891,-4.04184 18.41283,-0.44909c6.85945,4.5689 15.71827,-3.14365 15.71827,-3.14365l-3.59275,12.57461z" fill="#ffe54a" stroke="#000000" stroke-width="1" stroke-linecap="butt"/><path d="M243.12757,138.55752l-5.33334,-4.44047" fill="none" stroke="#000000" stroke-width="0.5" stroke-linecap="round"/><path d="M203.07359,152.12512c0,0 6.85095,-5.04285 9.27289,-10.33289c1.44816,-3.16309 -1.89953,-5.77208 -0.3167,-9.22933c2.21997,-4.84889 7.30327,-7.39926 8.49502,-10.00228c1.94262,-4.2431 1.54879,-11.9355 1.54879,-11.9355h27c0,0 0.51011,7.43845 -1.3755,11.55701c-1.40514,3.06912 -7.09456,6.94336 -9.78784,12.82605c-1.12073,2.4479 2.75788,3.89728 1.72807,6.14659c-2.5669,5.60665 -9.56474,10.97036 -9.56474,10.97036z" fill="#573600" stroke="none" stroke-width="0" stroke-linecap="butt"/><path d="M212.57359,152.12512c0,0 6.85095,-5.04285 9.27289,-10.33289c1.44816,-3.16309 -1.89953,-5.77208 -0.3167,-9.22933c2.21997,-4.84889 7.30327,-7.39926 8.49502,-10.00228c1.94262,-4.2431 1.54879,-11.9355 1.54879,-11.9355h7c0,0 0.51011,7.43845 -1.3755,11.55701c-1.40514,3.06912 -7.09456,6.94336 -9.78784,12.82605c-1.12073,2.4479 2.75788,3.89728 1.72807,6.14659c-2.5669,5.60665 -9.56474,10.97036 -9.56474,10.97036z" fill="#825000" stroke="none" stroke-width="0" stroke-linecap="butt"/><path d="M252.19858,117.88512l3.45,-2.575l3.775,-0.1" fill="none" stroke="#000000" stroke-width="0.5" stroke-linecap="round"/><path d="M257.43808,109.77146l0.69262,-1.3937c0,0 0.10037,-0.7864 0.21366,-1.6486c0.01559,-0.01835 -0.42896,0.01185 -0.42602,-0.00899c0.00351,0.02678 -0.01566,-0.53739 -0.01726,-0.53865c-0.02255,-0.01774 0.55208,0.01048 0.55579,-0.01716c0.06585,-0.49137 0.09276,-0.97563 0.1379,-1.32234c0.00862,-0.06615 0.26856,0.02552 0.27753,0.09163c0.04144,0.30533 0.05296,0.85479 0.06768,1.22658c0.44891,-0.01264 0.43184,0.00848 0.52943,0.00749c0.01902,0.00952 -0.01526,0.59082 -0.02041,0.58761c-0.0121,-0.0011 -0.14362,-0.00758 -0.43632,-0.00977c-0.01598,0.00625 0.20243,1.67323 0.20243,1.67323l0.55812,1.3758z" fill="#000000" stroke="#000000" stroke-width="0.5" stroke-linecap="butt"/><path d="M256.16123,106.53256c0,-0.32783 0.16473,-0.9895 0.8709,-0.99916c0.00045,0.0212 0.02485,0.352 0.011,0.35695c-0.75492,-0.00329 0.64004,-0.06728 -0.00209,-0.00002c-0.05327,-0.02622 0.00232,-0.33975 -0.01718,-0.36177c0.68861,0.05359 0.87574,0.70635 0.87574,1.00399c0,0.02094 -0.00074,0.04171 -0.0022,0.06229c-0.03193,0.45096 -0.40789,0.80689 -0.86698,0.80689c-0.48003,0 -0.86918,-0.38914 -0.86918,-0.86918z" fill="#000000" stroke="none" stroke-width="0" stroke-linecap="butt"/><path d="M257.59827,104.17538c0,-0.32783 0.16473,-0.9895 0.8709,-0.99916c0.00045,0.0212 0.02485,0.352 0.011,0.35695c-0.75492,-0.00329 0.64004,-0.06728 -0.00209,-0.00002c-0.05327,-0.02622 0.00232,-0.33975 -0.01717,-0.36177c0.68861,0.05359 0.87573,0.70635 0.87573,1.00399c0,0.48004 -0.38915,0.86918 -0.86918,0.86918c-0.48003,0 -0.86918,-0.38914 -0.86918,-0.86918z" fill="#000000" stroke="none" stroke-width="0" stroke-linecap="butt"/><path d="M259.35382,106.4777c0,-0.32783 0.16474,-0.9895 0.8709,-0.99916c0.00045,0.0212 0.02485,0.352 0.011,0.35694c-0.75492,-0.00329 0.64004,-0.06728 -0.00209,-0.00002c-0.05327,-0.02622 0.00232,-0.33975 -0.01718,-0.36177c0.68861,0.05359 0.87574,0.70636 0.87574,1.004c0,0.48004 -0.38915,0.86918 -0.86918,0.86918c-0.48003,0 -0.86919,-0.38914 -0.86919,-0.86918z" fill="#000000" stroke="none" stroke-width="0" stroke-linecap="butt"/></g><g><path d="M244.55679,222.86086l1.66071,24.85714h-23.5c0,0 -9.6595,-15.95708 -5,-16.5c6.91235,-0.80543 6.41276,-7.32129 5.62774,-10.81117c-0.29387,-1.30644 0.15104,-2.18883 1.37277,-2.18883c3.30792,0 6.1131,0.875 9.24949,0.875c3.23298,0 10.58929,3.76786 10.58929,3.76786z" fill="#ffb89a" stroke="#000000" stroke-width="0.5" stroke-linecap="butt"/><path d="M222.90918,238.61799c0,-0.82843 0.91782,-1.5 2.05,-1.5c1.13218,0 2.05,0.67157 2.05,1.5c0,0.82843 -0.91782,1.5 -2.05,1.5c-1.13218,0 -2.05,-0.67157 -2.05,-1.5z" fill="#000000" stroke="#000000" stroke-width="0.5" stroke-linecap="butt"/><path d="M223.89252,226.75799c0,0 1.99736,-0.97312 2.95236,-0.96028c0.90009,0.01211 2.87264,1.66028 2.87264,1.66028" fill="none" stroke="#000000" stroke-width="0.5" stroke-linecap="round"/><path d="M221.50968,241.43543c0,0 0.30535,-0.875 1.17073,-1.375c0.58873,-0.34015 1.82927,0 1.82927,0" fill="none" stroke="#000000" stroke-width="0.5" stroke-linecap="round"/><path d="M260.12917,247.69038c0,0 -5.5426,6.22235 -9.43096,8.98187c-5.69524,4.04184 -13.01891,4.04184 -18.41283,0.44909c-6.85945,-4.5689 -15.71827,3.14365 -15.71827,3.14365l3.59275,-12.57461z" fill="#ffe54a" stroke="#000000" stroke-width="1" stroke-linecap="butt"/><path d="M243.82249,224.72606l-5.33334,-4.44047" fill="none" stroke="#000000" stroke-width="0.5" stroke-linecap="round"/><path d="M278.54312,206.71799c0,0 -6.85095,5.04285 -9.27289,10.33289c-1.44816,3.16309 1.89953,5.77208 0.3167,9.22933c-2.21997,4.84889 -7.30327,7.39926 -8.49502,10.00228c-1.94262,4.2431 -1.54879,11.9355 -1.54879,11.9355h-27c0,0 -0.51011,-7.43845 1.3755,-11.55701c1.40514,-3.06912 7.09456,-6.94336 9.78784,-12.82605c1.12073,-2.4479 -2.75788,-3.89728 -1.72807,-6.14659c2.5669,-5.60665 9.56474,-10.97036 9.56474,-10.97036z" fill="#573600" stroke="none" stroke-width="0" stroke-linecap="butt"/><path d="M269.04312,206.71799c0,0 -6.85095,5.04285 -9.27289,10.33289c-1.44816,3.16309 1.89953,5.77208 0.3167,9.22933c-2.21997,4.84889 -7.30327,7.39926 -8.49502,10.00228c-1.94262,4.2431 -1.54879,11.9355 -1.54879,11.9355h-7c0,0 -0.51011,-7.43845 1.3755,-11.55701c1.40514,-3.06912 7.09456,-6.94336 9.78784,-12.82605c1.12073,-2.4479 -2.75788,-3.89728 -1.72807,-6.14659c2.5669,-5.60665 9.56474,-10.97036 9.56474,-10.97036z" fill="#825000" stroke="none" stroke-width="0" stroke-linecap="butt"/><path d="M229.41814,240.95799l-3.45,2.575l-3.775,0.1" fill="none" stroke="#000000" stroke-width="0.5" stroke-linecap="round"/><path d="M224.17864,249.07165l-0.69262,1.3937c0,0 -0.10037,0.7864 -0.21366,1.6486c-0.01559,0.01835 0.42896,-0.01185 0.42602,0.00899c-0.00351,-0.02678 0.01566,0.53739 0.01726,0.53865c0.02255,0.01774 -0.55208,-0.01048 -0.55579,0.01716c-0.06585,0.49137 -0.09276,0.97563 -0.1379,1.32234c-0.00862,0.06615 -0.26856,-0.02552 -0.27753,-0.09163c-0.04144,-0.30533 -0.05296,-0.85479 -0.06768,-1.22658c-0.44891,0.01264 -0.43184,-0.00848 -0.52943,-0.00749c-0.01902,-0.00952 0.01526,-0.59082 0.02041,-0.58761c0.0121,0.0011 0.14362,0.00758 0.43632,0.00977c0.01598,-0.00625 -0.20243,-1.67323 -0.20243,-1.67323l-0.55812,-1.3758z" fill="#000000" stroke="#000000" stroke-width="0.5" stroke-linecap="butt"/><path d="M225.45549,252.31055c0,0.32783 -0.16473,0.9895 -0.8709,0.99916c-0.00045,-0.0212 -0.02485,-0.352 -0.011,-0.35695c0.75492,0.00329 -0.64004,0.06728 0.00209,0.00002c0.05327,0.02622 -0.00232,0.33975 0.01718,0.36177c-0.68861,-0.05359 -0.87574,-0.70635 -0.87574,-1.00399c0,-0.02094 0.00074,-0.04171 0.0022,-0.06229c0.03193,-0.45096 0.40789,-0.80689 0.86698,-0.80689c0.48003,0 0.86918,0.38914 0.86918,0.86918z" fill="#000000" stroke="none" stroke-width="0" stroke-linecap="butt"/><path d="M224.01845,254.66773c0,0.32783 -0.16473,0.9895 -0.8709,0.99916c-0.00045,-0.0212 -0.02485,-0.352 -0.011,-0.35695c0.75492,0.00329 -0.64004,0.06728 0.00209,0.00002c0.05327,0.02622 -0.00232,0.33975 0.01717,0.36177c-0.68861,-0.05359 -0.87573,-0.70635 -0.87573,-1.00399c0,-0.48004 0.38915,-0.86918 0.86918,-0.86918c0.48003,0 0.86918,0.38914 0.86918,0.86918z" fill="#000000" stroke="none" stroke-width="0" stroke-linecap="butt"/><path d="M222.2629,252.36541c0,0.32783 -0.16474,0.9895 -0.8709,0.99916c-0.00045,-0.0212 -0.02485,-0.352 -0.011,-0.35694c0.75492,0.00329 -0.64004,0.06728 0.00209,0.00002c0.05327,0.02622 -0.00232,0.33975 0.01718,0.36177c-0.68861,-0.05359 -0.87574,-0.70636 -0.87574,-1.004c0,-0.48004 0.38915,-0.86918 0.86918,-0.86918c0.48003,0 0.86919,0.38914 0.86919,0.86918z" fill="#000000" stroke="none" stroke-width="0" stroke-linecap="butt"/></g><g stroke-linecap="butt"><g><path d="M281.05332,154.90044c0.90826,-1.38775 2.76954,-1.77644 4.15728,-0.86819c1.38775,0.90826 1.77644,2.76954 0.86819,4.15728c-0.90826,1.38775 -2.76954,1.77644 -4.15728,0.86819c-1.38775,-0.90826 -1.77644,-2.76954 -0.86819,-4.15728z" fill="#00ab25" stroke="none" stroke-width="0"/><g><path d="M278.64182,148.50723c0,-0.00641 0.00012,-0.0128 0.00036,-0.01916c0.00004,-0.14826 0.05443,-0.35074 0.32215,-0.44843c0.0126,-0.00479 0.02544,-0.00908 0.03851,-0.01285c0.2729,-0.0827 0.43798,0.04654 0.52706,0.16513c0.00177,0.00217 0.00351,0.00436 0.00524,0.00656l0.36075,0.45094l-0.14181,0.11345l0.0439,0.1317l-0.04162,0.01387c0.20454,1.16496 -0.07523,2.37758 0.00636,3.57304l0.09455,0.1891c0.03658,0.06948 0.05728,0.14862 0.05728,0.2326c0,0.08845 -0.02297,0.17154 -0.06326,0.24362c0.03286,0.15892 0.07502,0.31731 0.12852,0.47503c0.0303,0.09091 0.06061,0.18182 0.09091,0.27273l0.11445,0.47579c0,0 0.01522,0.16488 -0.06674,0.31363c0.2932,1.04875 0.55612,2.03247 0.91001,2.66226c1.52659,3.05318 1.88121,6.12907 1.8857,9.53063c0.00131,1.11988 0.00042,2.23976 0.00042,3.35964l-0.01493,0.21207c0,0 0.12127,0.48507 -0.3638,0.60634c-0.48507,0.12127 -0.60634,-0.3638 -0.60634,-0.3638l-0.01493,-0.4546c0,-1.11949 0.00089,-2.23899 -0.00042,-3.35848c-0.00331,-3.29502 -0.31098,-6.1463 -1.78013,-9.08458c-0.17751,-0.49453 -0.67411,-0.69914 -0.88612,-1.22361c-0.63347,-1.5671 -0.38036,-4.7145 -2.05694,-5.55279c0,0 -0.0229,-0.01145 -0.05574,-0.03435l-0.43921,-0.0732l0.00095,-0.00569c-0.29642,0.02678 -0.59915,-0.12915 -1.03646,-0.49334l-0.18182,-0.22727c0,0 -0.10957,0.18765 -0.10957,-0.31235c0,-0.37476 0.50023,-0.36321 0.75083,-0.33391c0.06436,-0.20177 0.25334,-0.34791 0.47645,-0.34791c0.09704,0 0.18762,0.02764 0.26429,0.07548l0.18651,0.11191c0.2655,-0.14349 0.63357,-0.31839 0.88915,-0.37082l0.30649,-0.30649v0c0.09048,-0.09048 0.21548,-0.14645 0.35355,-0.14645c0.01609,0 0.032,0.00076 0.0477,0.00225c-0.00149,-0.0157 -0.00225,-0.03161 -0.00225,-0.0477zM278.41432,150.19176c0.00706,-0.0056 0.0144,-0.01112 0.02201,-0.01657c-0.00361,-0.03607 -0.0076,-0.07209 -0.01202,-0.10804c-0.00787,0.0138 -0.01582,0.02757 -0.02388,0.04128c0.00463,0.02777 0.00926,0.05555 0.01389,0.08332z" fill="#00ab25" stroke="none" stroke-width="0.5"/><path d="M280.7806,155.09389l7.07385,-5.10805l0.08854,0.05795l-1.9386,8.469z" fill="#00ab25" stroke="none" stroke-width="0"/><path d="M287.62225,173.60247c0,5.00726 -2.30021,9.06646 -5.13766,9.06646c-2.83745,0 -5.13765,-4.05919 -5.13765,-9.06646c0,-1.42074 -0.60856,-3.57991 -0.03274,-7.23416c0.45374,-2.87945 4.18062,-4.05039 4.58501,-3.31596c1.45687,2.64585 -1.87372,4.667 -0.47573,6.61237c1.65584,2.30419 6.19877,-1.06951 6.19877,3.93775z" fill="#ffb89a" stroke="#000000" stroke-width="0.5"/><g stroke="none" stroke-width="0"><g><path d="M276.33723,153.63697c-1.35808,0.59046 -2.93768,-0.03182 -3.52814,-1.38989c-0.59046,-1.35808 0.03181,-2.93767 1.38988,-3.52813c1.35808,-0.59046 2.93768,0.03182 3.52814,1.38988c0.59046,1.35808 -0.03181,2.93767 -1.38988,3.52813z" fill="url(#color-2)"/><path d="M276.63557,153.62627l-7.78304,0.34468l-0.03768,-0.08664l5.59809,-5.37014z" fill="url(#color-3)"/></g><g><path d="M280.46294,146.24101c1.35808,-0.59046 2.93768,0.03181 3.52814,1.38988c0.59046,1.35808 -0.03181,2.93768 -1.38988,3.52814c-1.35808,0.59046 -2.93768,-0.03182 -3.52814,-1.38989c-0.59046,-1.35808 0.03181,-2.93767 1.38988,-3.52813z" fill="url(#color-4)"/><path d="M280.1646,146.2517l7.78305,-0.34468l0.03767,0.08665l-5.59809,5.37014z" fill="url(#color-5)"/></g><g fill="#d6e100"><path d="M274.52029,147.57903c-0.59046,-1.35808 0.03182,-2.93768 1.38988,-3.52814c1.35808,-0.59046 2.93768,0.03182 3.52814,1.38988c0.59046,1.35808 -0.03182,2.93767 -1.38988,3.52813c-1.35808,0.59046 -2.93768,-0.03181 -3.52814,-1.38988z"/><path d="M274.53098,147.87738l-0.34468,-7.78305l0.08666,-0.03768l5.37013,5.5981z"/></g><g fill="#000000"><path d="M275.19653,151.27809c-0.17784,-0.44009 -0.31562,-1.41769 0.6271,-1.81373c0.01209,0.02821 0.22432,0.45905 0.20841,0.4732c-1.01521,0.40511 0.82272,-0.43753 -0.00282,0.00112c-0.08573,-0.0063 -0.1812,-0.45734 -0.21931,-0.47633c0.95349,-0.30161 1.55879,0.47317 1.72025,0.87273c0.01136,0.02812 0.02163,0.05639 0.03084,0.0848c0.20177,0.62271 -0.10985,1.30448 -0.72615,1.55352c-0.64441,0.2604 -1.37791,-0.05089 -1.63832,-0.69531z"/><path d="M276.15858,148.25823c-0.17784,-0.44009 -0.31561,-1.41769 0.62711,-1.81374c0.01209,0.02821 0.22431,0.45906 0.2084,0.47321c-1.01521,0.40511 0.82272,-0.43753 -0.00282,0.00112c-0.08573,-0.0063 -0.1812,-0.45735 -0.21931,-0.47634c0.95349,-0.30161 1.55879,0.47317 1.72025,0.87274c0.2604,0.64442 -0.0509,1.37792 -0.69531,1.63832c-0.64441,0.2604 -1.37792,-0.05089 -1.63832,-0.69531z"/><path d="M279.15549,149.65437c-0.17784,-0.44009 -0.31563,-1.4177 0.62709,-1.81374c0.01209,0.02821 0.22432,0.45906 0.20841,0.47321c-1.01521,0.40511 0.82271,-0.43752 -0.00283,0.00113c-0.08573,-0.0063 -0.18119,-0.45734 -0.2193,-0.47634c0.95349,-0.30161 1.55879,0.47317 1.72025,0.87274c0.2604,0.64442 -0.05089,1.37792 -0.6953,1.63832c-0.64441,0.2604 -1.37792,-0.05089 -1.63833,-0.69531z"/></g></g></g></g><g><path d="M200.08018,205.32514c-0.90826,1.38775 -2.76954,1.77644 -4.15728,0.86819c-1.38775,-0.90826 -1.77644,-2.76954 -0.86819,-4.15728c0.90826,-1.38775 2.76954,-1.77644 4.15728,-0.86819c1.38775,0.90826 1.77644,2.76954 0.86819,4.15728z" fill="#00ab25" stroke="none" stroke-width="0"/><g><path d="M202.49168,211.71835c0,0.00641 -0.00012,0.0128 -0.00036,0.01916c-0.00004,0.14826 -0.05443,0.35074 -0.32215,0.44843c-0.0126,0.00479 -0.02544,0.00908 -0.03851,0.01285c-0.2729,0.0827 -0.43798,-0.04654 -0.52706,-0.16513c-0.00177,-0.00217 -0.00351,-0.00436 -0.00524,-0.00656l-0.36075,-0.45094l0.14181,-0.11345l-0.0439,-0.1317l0.04162,-0.01387c-0.20454,-1.16496 0.07523,-2.37758 -0.00636,-3.57304l-0.09455,-0.1891c-0.03658,-0.06948 -0.05728,-0.14862 -0.05728,-0.2326c0,-0.08845 0.02297,-0.17154 0.06326,-0.24362c-0.03286,-0.15892 -0.07502,-0.31731 -0.12852,-0.47503c-0.0303,-0.09091 -0.06061,-0.18182 -0.09091,-0.27273l-0.11445,-0.47579c0,0 -0.01522,-0.16488 0.06674,-0.31363c-0.2932,-1.04875 -0.55612,-2.03247 -0.91001,-2.66226c-1.52659,-3.05318 -1.88121,-6.12907 -1.8857,-9.53063c-0.00131,-1.11988 -0.00042,-2.23976 -0.00042,-3.35964l0.01493,-0.21207c0,0 -0.12127,-0.48507 0.3638,-0.60634c0.48507,-0.12127 0.60634,0.3638 0.60634,0.3638l0.01493,0.4546c0,1.11949 -0.00089,2.23899 0.00042,3.35848c0.00331,3.29502 0.31098,6.1463 1.78013,9.08458c0.17751,0.49453 0.67411,0.69914 0.88612,1.22361c0.63347,1.5671 0.38036,4.7145 2.05694,5.55279c0,0 0.0229,0.01145 0.05574,0.03435l0.43921,0.0732l-0.00095,0.00569c0.29642,-0.02678 0.59915,0.12915 1.03646,0.49334l0.18182,0.22727c0,0 0.10957,-0.18765 0.10957,0.31235c0,0.37476 -0.50023,0.36321 -0.75083,0.33391c-0.06436,0.20177 -0.25334,0.34791 -0.47645,0.34791c-0.09704,0 -0.18762,-0.02764 -0.26429,-0.07548l-0.18651,-0.11191c-0.2655,0.14349 -0.63357,0.31839 -0.88915,0.37082l-0.30649,0.30649v0c-0.09048,0.09048 -0.21548,0.14645 -0.35355,0.14645c-0.01609,0 -0.032,-0.00076 -0.0477,-0.00225c0.00149,0.0157 0.00225,0.03161 0.00225,0.0477zM202.71918,210.03382c-0.00706,0.0056 -0.0144,0.01112 -0.02201,0.01657c0.00361,0.03607 0.0076,0.07209 0.01202,0.10804c0.00787,-0.0138 0.01582,-0.02757 0.02388,-0.04128c-0.00463,-0.02777 -0.00926,-0.05555 -0.01389,-0.08332z" fill="#00ab25" stroke="none" stroke-width="0.5"/><path d="M200.3529,205.13169l-7.07385,5.10805l-0.08854,-0.05795l1.9386,-8.469z" fill="#00ab25" stroke="none" stroke-width="0"/><path d="M193.51125,186.62311c0,-5.00726 2.30021,-9.06646 5.13766,-9.06646c2.83745,0 5.13765,4.05919 5.13765,9.06646c0,1.42074 0.60856,3.57991 0.03274,7.23416c-0.45374,2.87945 -4.18062,4.05039 -4.58501,3.31596c-1.45687,-2.64585 1.87372,-4.667 0.47573,-6.61237c-1.65584,-2.30419 -6.19877,1.06951 -6.19877,-3.93775z" fill="#ffb89a" stroke="#000000" stroke-width="0.5"/><g stroke="none" stroke-width="0"><g><path d="M204.79627,206.58861c1.35808,-0.59046 2.93768,0.03182 3.52814,1.38989c0.59046,1.35808 -0.03181,2.93767 -1.38988,3.52813c-1.35808,0.59046 -2.93768,-0.03182 -3.52814,-1.38988c-0.59046,-1.35808 0.03181,-2.93768 1.38988,-3.52814z" fill="url(#color-6)"/><path d="M204.49793,206.59931l7.78304,-0.34468l0.03768,0.08665l-5.59809,5.37014z" fill="url(#color-7)"/></g><g><path d="M200.67056,213.98457c-1.35808,0.59046 -2.93767,-0.03181 -3.52813,-1.38988c-0.59046,-1.35808 0.03181,-2.93768 1.38987,-3.52814c1.35808,-0.59046 2.93768,0.03182 3.52814,1.38988c0.59046,1.35808 -0.03181,2.93768 -1.38988,3.52814z" fill="url(#color-8)"/><path d="M200.9689,213.97387l-7.78304,0.34468l-0.03767,-0.08665l5.59809,-5.37014z" fill="url(#color-9)"/></g><g fill="#d6e100"><path d="M206.61321,212.64655c0.59046,1.35808 -0.03182,2.93768 -1.38988,3.52814c-1.35808,0.59046 -2.93768,-0.03182 -3.52814,-1.38988c-0.59046,-1.35808 0.03182,-2.93767 1.38989,-3.52813c1.35808,-0.59046 2.93767,0.03181 3.52813,1.38988z"/><path d="M206.60252,212.3482l0.34468,7.78305l-0.08665,0.03767l-5.37013,-5.5981z"/></g><g fill="#000000"><path d="M205.93697,208.94749c0.17784,0.44009 0.31562,1.41769 -0.6271,1.81374c-0.01209,-0.02821 -0.22432,-0.45905 -0.20841,-0.4732c1.01521,-0.40511 -0.82271,0.43753 0.00282,-0.00112c0.08573,0.0063 0.18119,0.45734 0.21931,0.47634c-0.95349,0.30161 -1.55879,-0.47317 -1.72025,-0.87274c-0.01136,-0.02812 -0.02163,-0.05639 -0.03084,-0.0848c-0.20177,-0.62271 0.10985,-1.30447 0.72615,-1.55352c0.64441,-0.2604 1.37791,0.05089 1.63832,0.6953z"/><path d="M204.97492,211.96735c0.17784,0.44009 0.31561,1.41769 -0.62711,1.81374c-0.01209,-0.02821 -0.22431,-0.45906 -0.2084,-0.47321c1.01521,-0.40511 -0.82272,0.43753 0.00282,-0.00112c0.08573,0.0063 0.1812,0.45735 0.21931,0.47634c-0.95349,0.30161 -1.55879,-0.47317 -1.72025,-0.87274c-0.2604,-0.64442 0.05089,-1.37792 0.69531,-1.63833c0.64441,-0.2604 1.37792,0.05089 1.63832,0.69531z"/><path d="M201.97801,210.57121c0.17784,0.44009 0.31563,1.4177 -0.62709,1.81374c-0.01209,-0.02821 -0.22432,-0.45906 -0.20841,-0.47321c1.01521,-0.40511 -0.82271,0.43752 0.00283,-0.00113c0.08573,0.0063 0.18119,0.45734 0.2193,0.47634c-0.95349,0.30161 -1.55879,-0.47317 -1.72025,-0.87274c-0.2604,-0.64442 0.05089,-1.37792 0.6953,-1.63832c0.64441,-0.2604 1.37792,0.05089 1.63833,0.69531z"/></g></g></g></g></g></g></g></svg>