<svg version="1.1" xmlns="http://www.w3.org/2000/svg" xmlns:xlink="http://www.w3.org/1999/xlink" width="143.5" height="191.5" viewBox="0,0,143.5,191.5"><g transform="translate(-168.09976,-84.09974)"><g data-paper-data="{&quot;isPaintingLayer&quot;:true}" fill-rule="nonzero" stroke-linecap="butt" stroke-linejoin="miter" stroke-miterlimit="10" stroke-dasharray="" stroke-dashoffset="0" style="mix-blend-mode: normal"><path d="M172.34977,272.01642c0,0 -4,-5.34526 -4,-10.89999c0,-16.66422 0,-97.96444 0,-160.66667c0,-6.28323 4.33334,-11.76667 4.33334,-11.76667c0,0 5.11759,-4.33334 11.16666,-4.33334c44.09971,0 96.02357,0 113,0c5.65881,0 11.16666,5.33334 11.16666,5.33334c0,0 3.33334,4.28019 3.33334,10.43334c0,62.31197 0,141.44139 0,159.66666c0,6.07509 -2.66667,10.9 -2.66667,10.9c0,0 -6.17452,4.66666 -11.83333,4.66666c-16.97643,0 -69.10355,0 -113.33334,0c-5.91898,0 -11.16666,-3.33333 -11.16666,-3.33333z" fill="#ffffff" stroke="#000000" stroke-width="0.5"/><text transform="translate(182.46339,115.57998) scale(0.5,0.5)" font-size="40" xml:space="preserve" fill="#ff0000" fill-rule="nonzero" stroke="none" stroke-width="1" stroke-linecap="butt" stroke-linejoin="miter" stroke-miterlimit="10" stroke-dasharray="" stroke-dashoffset="0" font-family="Serif" font-weight="normal" text-anchor="start" style="mix-blend-mode: normal"><tspan x="0" dy="0">A</tspan></text><text transform="translate(299.10213,248.32158) rotate(-180) scale(0.5,0.5)" font-size="40" xml:space="preserve" data-paper-data="{&quot;origRot&quot;:-45}" fill="#ff0000" fill-rule="nonzero" stroke="none" stroke-width="1" stroke-linecap="butt" stroke-linejoin="miter" stroke-miterlimit="10" stroke-dasharray="" stroke-dashoffset="0" font-family="Serif" font-weight="normal" text-anchor="start" style="mix-blend-mode: normal"><tspan x="0" dy="0">A</tspan></text><path d="M189.65327,135.57056l-8.39025,-8.55449l8.39025,-8.55449l8.39025,8.55449z" data-paper-data="{&quot;origRot&quot;:0}" fill="#ff0000" stroke="none" stroke-width="0"/><path d="M291.794,244.09908l-8.39024,-8.55449l8.39024,-8.55449l8.39025,8.55449z" data-paper-data="{&quot;origRot&quot;:0}" fill="#ff0000" stroke="none" stroke-width="0"/><g fill="#ff0000" stroke="none" stroke-width="0"><path d="M241.00424,221.03013l-41.0301,-41.03009l41.0301,-41.03009c0,0 8.63718,8.27748 8.60742,8.90797c-0.04074,64.10664 -0.07658,0.04557 0.05518,64.18907c-0.01012,0.22445 -8.6626,8.96315 -8.6626,8.96315z"/><path d="M254.62903,207.35193v-54.59019l5.45833,5.47098v43.59982z"/><path d="M264.9421,197.10227v-34.20717l5.40991,5.51939v23.02314z"/><path d="M274.7609,172.62705l7.43825,7.43825l-7.43825,7.43825z"/></g></g></g></svg>