<svg version="1.1" xmlns="http://www.w3.org/2000/svg" xmlns:xlink="http://www.w3.org/1999/xlink" width="143.5" height="191.5"><g transform="translate(-168.32143,-84.17857)"><g data-paper-data="{&quot;isPaintingLayer&quot;:true}" fill-rule="nonzero" stroke-linecap="butt" stroke-linejoin="miter" stroke-miterlimit="10" stroke-dasharray="" stroke-dashoffset="0" style="mix-blend-mode: normal"><path d="M172.57143,272.09524c0,0 -4,-5.34526 -4,-10.89999c0,-16.66422 0,-97.96444 0,-160.66667c0,-6.28323 4.33334,-11.76667 4.33334,-11.76667c0,0 5.11759,-4.33334 11.16666,-4.33334c44.09971,0 96.02357,0 113,0c5.65881,0 11.16666,5.33334 11.16666,5.33334c0,0 3.33334,4.28019 3.33334,10.43334c0,62.31197 0,141.44139 0,159.66666c0,6.07509 -2.66667,10.9 -2.66667,10.9c0,0 -6.17452,4.66666 -11.83333,4.66666c-16.97643,0 -69.10355,0 -113.33334,0c-5.91898,0 -11.16666,-3.33333 -11.16666,-3.33333z" data-paper-data="{&quot;origPos&quot;:null}" fill="#ffffff" stroke="#000000" stroke-width="0.5"/><g data-paper-data="{&quot;origPos&quot;:null}" fill="#ff0000" stroke="none" stroke-width="0"><path d="M205.82491,146.62505l-15.68057,-16.45098l17.3027,-14.9087l15.68057,16.45098z" data-paper-data="{&quot;origRot&quot;:0,&quot;origPos&quot;:null}"/><path d="M187,122.1151c0,-5.99142 5.10846,-10.84842 11.41008,-10.84842c6.30162,0 11.41008,4.857 11.41008,10.84842c0,5.99142 -5.10846,10.84844 -11.41008,10.84844c-6.30162,0 -11.41008,-4.85701 -11.41008,-10.84844z" data-paper-data="{&quot;origPos&quot;:null}"/><path d="M204.51316,123.12425c0,-5.99142 5.10848,-10.84842 11.41009,-10.84842c6.30162,0 11.41008,4.857 11.41008,10.84842c0,5.99142 -5.10846,10.84844 -11.41008,10.84844c-6.30162,0 -11.41009,-4.85701 -11.41009,-10.84844z" data-paper-data="{&quot;origPos&quot;:null}"/></g><text transform="translate(225.91321,225.55) scale(2.7431,2.34182)" font-size="40" xml:space="preserve" data-paper-data="{&quot;origPos&quot;:null}" fill="#ff0000" fill-rule="nonzero" stroke="none" stroke-width="1" stroke-linecap="butt" stroke-linejoin="miter" stroke-miterlimit="10" stroke-dasharray="" stroke-dashoffset="0" font-family="Serif" font-weight="normal" text-anchor="start" style="mix-blend-mode: normal"><tspan x="0" dy="0">3</tspan></text></g></g></svg>