<svg version="1.1" xmlns="http://www.w3.org/2000/svg" xmlns:xlink="http://www.w3.org/1999/xlink" width="143.5" height="191.5" viewBox="0,0,143.5,191.5"><g transform="translate(-168.25002,-84.25)"><g data-paper-data="{&quot;isPaintingLayer&quot;:true}" fill-rule="nonzero" stroke-linecap="butt" stroke-linejoin="miter" stroke-miterlimit="10" stroke-dasharray="" stroke-dashoffset="0" style="mix-blend-mode: normal"><path d="M172.50003,272.16667c0,0 -4,-5.34526 -4,-10.89999c0,-16.66422 0,-97.96444 0,-160.66667c0,-6.28323 4.33334,-11.76667 4.33334,-11.76667c0,0 5.11759,-4.33334 11.16666,-4.33334c44.09971,0 96.02357,0 113,0c5.65881,0 11.16666,5.33334 11.16666,5.33334c0,0 3.33334,4.28019 3.33334,10.43334c0,62.31197 0,141.44139 0,159.66666c0,6.07509 -2.66667,10.9 -2.66667,10.9c0,0 -6.17452,4.66666 -11.83333,4.66666c-16.97643,0 -69.10355,0 -113.33334,0c-5.91898,0 -11.16666,-3.33333 -11.16666,-3.33333z" fill="#ffffff" stroke="#000000" stroke-width="0.5"/><text transform="translate(181.59379,115.57995) scale(0.5,0.5)" font-size="40" xml:space="preserve" fill="#ff0000" fill-rule="nonzero" stroke="none" stroke-width="1" stroke-linecap="butt" stroke-linejoin="miter" stroke-miterlimit="10" stroke-dasharray="" stroke-dashoffset="0" font-family="Serif" font-weight="normal" text-anchor="start" style="mix-blend-mode: normal"><tspan x="0" dy="0">A</tspan></text><text transform="translate(298.23251,248.32155) rotate(-180) scale(0.5,0.5)" font-size="40" xml:space="preserve" data-paper-data="{&quot;origRot&quot;:-45}" fill="#ff0000" fill-rule="nonzero" stroke="none" stroke-width="1" stroke-linecap="butt" stroke-linejoin="miter" stroke-miterlimit="10" stroke-dasharray="" stroke-dashoffset="0" font-family="Serif" font-weight="normal" text-anchor="start" style="mix-blend-mode: normal"><tspan x="0" dy="0">A</tspan></text><path d="M182.18817,128.27436c0,0 -3.96298,-4.43397 0.21349,-6.7756c3.48333,-2.32165 6.42655,2.92795 6.42655,2.92795c0,0 3.08613,-5.38656 6.28693,-2.92795c3.97679,2.72809 0.42292,6.91522 0.42292,6.91522l-6.64004,7.0589l0.06981,-0.06981z" data-paper-data="{&quot;origRot&quot;:0}" fill="#ff0000" stroke="none" stroke-width="0"/><path d="M296.8755,234.05052c0,0 3.96298,4.43397 -0.21349,6.7756c-3.48333,2.32164 -6.42655,-2.92795 -6.42655,-2.92795c0,0 -3.08614,5.38656 -6.28694,2.92795c-3.97679,-2.72809 -0.42292,-6.91522 -0.42292,-6.91522l6.64004,-7.0589l-0.06981,0.06981z" data-paper-data="{&quot;origRot&quot;:0}" fill="#ff0000" stroke="none" stroke-width="0"/><g><path d="M239.09228,204.38448l0.23815,0.23816l-22.65237,-24.08131c0,0 -12.12399,-14.28432 1.44277,-23.59115c10.91947,-8.3875 21.44776,9.98865 21.44776,9.98865c0,0 10.04076,-17.90889 21.92408,-9.98865c14.24795,7.98841 0.72831,23.11484 0.72831,23.11484z" data-paper-data="{&quot;origRot&quot;:0}" fill="#ff0000" stroke="#000000" stroke-width="0"/><path d="M238.70537,210.49645l-27.28131,-30.15022c0,0 -12.06034,-17.20622 3.58756,-28.04082c12.59451,-9.76436 24.73783,9.12784 24.73783,9.12784c0,0 11.58101,-18.34824 25.28722,-9.12784c16.43358,9.29976 2.3788,27.10163 2.3788,27.10163z" data-paper-data="{&quot;origRot&quot;:0}" fill="none" stroke="#ff0000" stroke-width="2"/></g></g></g></svg>