<svg version="1.1" xmlns="http://www.w3.org/2000/svg" xmlns:xlink="http://www.w3.org/1999/xlink" width="143.5" height="191.5" viewBox="0,0,143.5,191.5"><defs><radialGradient cx="240" cy="179.21647" r="30.75" gradientUnits="userSpaceOnUse" id="color-1"><stop offset="0" stop-color="#ff0000"/><stop offset="1" stop-color="#fbff00"/></radialGradient></defs><g transform="translate(-168.25,-84.25)"><g data-paper-data="{&quot;isPaintingLayer&quot;:true}" fill-rule="nonzero" stroke-linejoin="miter" stroke-miterlimit="10" stroke-dasharray="" stroke-dashoffset="0" style="mix-blend-mode: normal"><path d="M172.5,272.16667c0,0 -4,-5.34526 -4,-10.89999c0,-16.66422 0,-97.96444 0,-160.66667c0,-6.28323 4.33334,-11.76667 4.33334,-11.76667c0,0 5.11759,-4.33334 11.16666,-4.33334c44.09971,0 96.02357,0 113,0c5.65881,0 11.16666,5.33334 11.16666,5.33334c0,0 3.33334,4.28019 3.33334,10.43334c0,62.31197 0,141.44139 0,159.66666c0,6.07509 -2.66667,10.9 -2.66667,10.9c0,0 -6.17452,4.66666 -11.83333,4.66666c-16.97643,0 -69.10355,0 -113.33334,0c-5.91898,0 -11.16666,-3.33333 -11.16666,-3.33333z" fill="#ffffff" stroke="#000000" stroke-width="0.5" stroke-linecap="butt"/><text transform="translate(183.46934,115.57995) scale(0.5,0.5)" font-size="40" xml:space="preserve" fill="#ff0000" fill-rule="nonzero" stroke="none" stroke-width="1" stroke-linecap="butt" stroke-linejoin="miter" stroke-miterlimit="10" stroke-dasharray="" stroke-dashoffset="0" font-family="Serif" font-weight="normal" text-anchor="start" style="mix-blend-mode: normal"><tspan x="0" dy="0">J</tspan></text><text transform="translate(294.48138,248.32155) rotate(-180) scale(0.5,0.5)" font-size="40" xml:space="preserve" data-paper-data="{&quot;origRot&quot;:-45}" fill="#ff0000" fill-rule="nonzero" stroke="none" stroke-width="1" stroke-linecap="butt" stroke-linejoin="miter" stroke-miterlimit="10" stroke-dasharray="" stroke-dashoffset="0" font-family="Serif" font-weight="normal" text-anchor="start" style="mix-blend-mode: normal"><tspan x="0" dy="0">J</tspan></text><path d="M182.18815,128.27436c0,0 -3.96298,-4.43397 0.21349,-6.7756c3.48333,-2.32165 6.42655,2.92795 6.42655,2.92795c0,0 3.08613,-5.38656 6.28693,-2.92795c3.97679,2.72809 0.42292,6.91522 0.42292,6.91522l-6.64004,7.0589l0.06981,-0.06981z" data-paper-data="{&quot;origRot&quot;:0}" fill="#ff0000" stroke="#000000" stroke-width="0.5" stroke-linecap="butt"/><path d="M296.8755,234.05052c0,0 3.96298,4.43397 -0.21349,6.7756c-3.48333,2.32164 -6.42655,-2.92795 -6.42655,-2.92795c0,0 -3.08614,5.38656 -6.28694,2.92795c-3.97679,-2.72809 -0.42292,-6.91522 -0.42292,-6.91522l6.64004,-7.0589l-0.06981,0.06981z" data-paper-data="{&quot;origRot&quot;:0}" fill="#ff0000" stroke="#000000" stroke-width="0.5" stroke-linecap="butt"/><g stroke="none" stroke-width="0" stroke-linecap="butt"><path d="M197.25,179.53423c0,-23.61017 19.13983,-42.75 42.75,-42.75c23.61018,0 42.75,19.13983 42.75,42.75c0,23.61018 -19.13982,42.75 -42.75,42.75c-23.61017,0 -42.75,-19.13983 -42.75,-42.75z" fill="#d00000"/><path d="M209.25,179.21647c0,-16.98275 13.76725,-30.75 30.75,-30.75c16.98275,0 30.75,13.76725 30.75,30.75c0,16.98275 -13.76725,30.75 -30.75,30.75c-16.98275,0 -30.75,-13.76725 -30.75,-30.75z" fill="url(#color-1)"/><path d="M224.5,180c0,-8.56042 6.93958,-15.5 15.5,-15.5c8.56042,0 15.5,6.93958 15.5,15.5c0,8.56042 -6.93958,15.5 -15.5,15.5c-8.56042,0 -15.5,-6.93958 -15.5,-15.5z" fill="#d00000"/></g><g><path d="M237.30946,133.94439l0.5,-22.5h23.5c0,0 9.6595,15.95708 5,16.5c-9.5,1.10694 -5,13 -5,13c0,0 -10.70524,0 -15,0c-3.23298,0 -9,-7 -9,-7z" fill="#ffb89a" stroke="#000000" stroke-width="0.5" stroke-linecap="butt"/><path d="M214.28235,141.97158c1.44816,-3.16309 -1.89953,-5.77208 -0.3167,-9.22933c2.21997,-4.84889 7.30327,-7.39926 8.49502,-10.00228c1.94262,-4.2431 1.54879,-11.9355 1.54879,-11.9355h27c0,0 0.51011,7.43845 -1.3755,11.55701c-1.40514,3.06912 -7.09456,6.94336 -9.78784,12.82605c-1.12073,2.4479 2.75788,3.89728 1.72807,6.14659c-2.5669,5.60665 -29.71378,5.9275 -27.29184,0.63746z" fill="#ffca00" stroke="none" stroke-width="0" stroke-linecap="butt"/><path d="M223.5914,145.3576c1.44816,-3.16309 -1.70858,-9.01818 -0.12575,-12.47543c2.21997,-4.84889 7.30327,-7.39926 8.49502,-10.00228c1.94262,-4.2431 1.54879,-11.9355 1.54879,-11.9355h7c0,0 0.51011,7.43845 -1.3755,11.55701c-1.40514,3.06912 -7.09456,6.94336 -9.78784,12.82605c-1.12073,2.4479 2.94882,7.71622 1.91902,9.96553c-3.52164,0.06919 -2.83969,0.77193 -7.67373,0.06462z" fill="#d28200" stroke="none" stroke-width="0" stroke-linecap="butt"/><path d="M261.40945,120.54439c0,0.82843 -0.91782,1.5 -2.05,1.5c-1.13218,0 -2.05,-0.67157 -2.05,-1.5c0,-0.82843 0.91782,-1.5 2.05,-1.5c1.13218,0 2.05,0.67157 2.05,1.5z" fill="#000000" stroke="#000000" stroke-width="0.5" stroke-linecap="butt"/><path d="M262.95848,116.63536l-5.4695,1.09753l-2.32855,0.24054" fill="none" stroke="#000000" stroke-width="0.5" stroke-linecap="round"/><path d="M260.09799,134.51357l-3.87706,-2.41835" fill="none" stroke="#000000" stroke-width="0.5" stroke-linecap="round"/><path d="M224.29208,111.57986l-2.24547,-12.57461c0,0 7.78808,6.35226 11.67643,3.59274c5.69524,-4.04184 13.01891,-4.04184 18.41284,-0.44909c6.85945,4.56889 15.71827,-3.14365 15.71827,-3.14365l-3.59275,12.57461z" fill="#ff0000" stroke="#000000" stroke-width="1" stroke-linecap="butt"/><path d="M241.26216,104.475c0,0 -1.41838,-1.55756 0.07641,-2.38012c1.24671,-0.81555 2.30012,1.02852 2.30012,1.02852c0,0 1.10455,-1.89218 2.25014,-1.02852c1.42333,0.95831 0.15136,2.42916 0.15136,2.42916l-2.37652,2.47963l0.02499,-0.02452z" data-paper-data="{&quot;origRot&quot;:0}" fill="#ffffff" stroke="none" stroke-width="0" stroke-linecap="butt"/></g><g><path d="M245.15677,226.99537l-0.5,22.5h-23.5c0,0 -9.6595,-15.95708 -5,-16.5c9.5,-1.10694 5,-13 5,-13c0,0 10.70524,0 15,0c3.23298,0 9,7 9,7z" fill="#ffb89a" stroke="#000000" stroke-width="0.5" stroke-linecap="butt"/><path d="M268.18388,218.96818c-1.44816,3.16309 1.89953,5.77208 0.3167,9.22933c-2.21997,4.84889 -7.30327,7.39926 -8.49502,10.00228c-1.94262,4.2431 -1.54879,11.9355 -1.54879,11.9355h-27c0,0 -0.51011,-7.43845 1.3755,-11.55701c1.40514,-3.06912 7.09456,-6.94336 9.78784,-12.82605c1.12073,-2.4479 -2.75788,-3.89728 -1.72807,-6.14659c2.5669,-5.60665 29.71378,-5.9275 27.29184,-0.63746z" fill="#ffca00" stroke="none" stroke-width="0" stroke-linecap="butt"/><path d="M258.87483,215.58216c-1.44816,3.16309 1.70858,9.01818 0.12575,12.47543c-2.21997,4.84889 -7.30327,7.39926 -8.49502,10.00228c-1.94262,4.2431 -1.54879,11.9355 -1.54879,11.9355h-7c0,0 -0.51011,-7.43845 1.3755,-11.55701c1.40514,-3.06912 7.09456,-6.94336 9.78784,-12.82605c1.12073,-2.4479 -2.94882,-7.71622 -1.91902,-9.96553c3.52164,-0.06919 2.83969,-0.77193 7.67373,-0.06462z" fill="#d28200" stroke="none" stroke-width="0" stroke-linecap="butt"/><path d="M221.05678,240.39537c0,-0.82843 0.91782,-1.5 2.05,-1.5c1.13218,0 2.05,0.67157 2.05,1.5c0,0.82843 -0.91782,1.5 -2.05,1.5c-1.13218,0 -2.05,-0.67157 -2.05,-1.5z" fill="#000000" stroke="#000000" stroke-width="0.5" stroke-linecap="butt"/><path d="M219.50776,244.3044l5.4695,-1.09753l2.32855,-0.24054" fill="none" stroke="#000000" stroke-width="0.5" stroke-linecap="round"/><path d="M226.2453,228.84454l-3.87706,-2.41835" fill="none" stroke="#000000" stroke-width="0.5" stroke-linecap="round"/><path d="M258.17415,249.3599l2.24547,12.57461c0,0 -7.78808,-6.35226 -11.67643,-3.59274c-5.69524,4.04184 -13.01891,4.04184 -18.41284,0.44909c-6.85945,-4.56889 -15.71827,3.14365 -15.71827,3.14365l3.59275,-12.57461z" fill="#ff0000" stroke="#000000" stroke-width="1" stroke-linecap="butt"/><path d="M241.20407,256.46476c0,0 1.41838,1.55756 -0.07641,2.38012c-1.24671,0.81555 -2.30012,-1.02852 -2.30012,-1.02852c0,0 -1.10455,1.89218 -2.25014,1.02852c-1.42333,-0.95831 -0.15136,-2.42916 -0.15136,-2.42916l2.37652,-2.47963l-0.02499,0.02452z" data-paper-data="{&quot;origRot&quot;:0}" fill="#ffffff" stroke="none" stroke-width="0" stroke-linecap="butt"/></g><path d="M195.66347,183.53581v41.01748h-3.69352v-41.01748z" fill="#e4ce00" stroke="#02005e" stroke-width="0" stroke-linecap="butt"/><g stroke-linecap="butt"><path d="M283.58028,182.3208c0,-1.2613 1.0225,-2.28379 2.2838,-2.28379c1.2613,0 2.28379,1.02249 2.28379,2.28379c0,1.2613 -1.02249,2.2838 -2.28379,2.2838c-1.2613,0 -2.2838,-1.0225 -2.2838,-2.2838z" fill="#e4ce00" stroke="none" stroke-width="0"/><path d="M283.9238,176.58228v-41.01749h3.69353v41.01749z" fill="#e4ce00" stroke="#02005e" stroke-width="0"/><path d="M289.35203,173.76174c0,5.00726 -2.30021,9.06646 -5.13766,9.06646c-2.83745,0 -5.13765,-4.05919 -5.13765,-9.06646c0,-1.42074 -0.60856,-3.57991 -0.03274,-7.23416c0.45374,-2.87945 4.18062,-4.05039 4.58501,-3.31596c1.45687,2.64585 -1.87372,4.667 -0.47573,6.61237c1.65584,2.30419 6.19877,-1.06951 6.19877,3.93775z" fill="#ffb89a" stroke="#000000" stroke-width="0.5"/><path d="M282.087,136.27525c0,0 -2.31091,-2.58555 0.12449,-3.95101c2.03121,-1.35381 3.74748,1.70736 3.74748,1.70736c0,0 1.7996,-3.14103 3.66606,-1.70736c2.31896,1.59081 0.24661,4.03243 0.24661,4.03243l-3.87196,4.11621l0.04071,-0.04071z" data-paper-data="{&quot;origRot&quot;:0}" fill="#ff0000" stroke="none" stroke-width="0"/></g><g stroke-linecap="butt"><path d="M195.97685,177.90586c0,1.2613 -1.0225,2.28379 -2.2838,2.28379c-1.2613,0 -2.28379,-1.02249 -2.28379,-2.28379c0,-1.2613 1.02249,-2.2838 2.28379,-2.2838c1.2613,0 2.2838,1.0225 2.2838,2.2838z" fill="#e4ce00" stroke="none" stroke-width="0"/><path d="M195.63333,183.64438v41.01749h-3.69353v-41.01749z" fill="#e4ce00" stroke="#02005e" stroke-width="0"/><path d="M190.2051,186.46492c0,-5.00726 2.30021,-9.06646 5.13766,-9.06646c2.83745,0 5.13765,4.05919 5.13765,9.06646c0,1.42074 0.60856,3.57991 0.03274,7.23416c-0.45374,2.87945 -4.18062,4.05039 -4.58501,3.31596c-1.45687,-2.64585 1.87372,-4.667 0.47573,-6.61237c-1.65584,-2.30419 -6.19877,1.06951 -6.19877,-3.93775z" fill="#ffb89a" stroke="#000000" stroke-width="0.5"/><path d="M197.47014,223.95141c0,0 2.31091,2.58555 -0.12449,3.95102c-2.03121,1.35381 -3.74747,-1.70736 -3.74747,-1.70736c0,0 -1.7996,3.14103 -3.66605,1.70736c-2.31896,-1.59081 -0.24662,-4.03243 -0.24662,-4.03243l3.87197,-4.11621l-0.04071,0.04071z" data-paper-data="{&quot;origRot&quot;:0}" fill="#ff0000" stroke="none" stroke-width="0"/></g></g></g></svg>