<svg version="1.1" xmlns="http://www.w3.org/2000/svg" xmlns:xlink="http://www.w3.org/1999/xlink" width="143.5" height="191.5" viewBox="0,0,143.5,191.5"><defs><radialGradient cx="240.62516" cy="180" r="27.56727" gradientUnits="userSpaceOnUse" id="color-1"><stop offset="0" stop-color="#ff0000"/><stop offset="1" stop-color="#fbff00"/></radialGradient><linearGradient x1="284.48356" y1="146.1469" x2="277.79981" y2="148.67255" gradientUnits="userSpaceOnUse" id="color-2"><stop offset="0" stop-color="#ff0000"/><stop offset="1" stop-color="#00ab25"/></linearGradient><linearGradient x1="275.36762" y1="142.03101" x2="277.89328" y2="148.71476" gradientUnits="userSpaceOnUse" id="color-3"><stop offset="0" stop-color="#ff0000"/><stop offset="1" stop-color="#00ab25"/></linearGradient><linearGradient x1="271.46655" y1="151.24394" x2="278.1503" y2="148.71828" gradientUnits="userSpaceOnUse" id="color-4"><stop offset="0" stop-color="#ff0000"/><stop offset="1" stop-color="#00ab25"/></linearGradient><linearGradient x1="196.71331" y1="214.00703" x2="203.39706" y2="211.48137" gradientUnits="userSpaceOnUse" id="color-5"><stop offset="0" stop-color="#ff0000"/><stop offset="1" stop-color="#00ab25"/></linearGradient><linearGradient x1="205.82925" y1="218.12292" x2="203.30359" y2="211.43917" gradientUnits="userSpaceOnUse" id="color-6"><stop offset="0" stop-color="#ff0000"/><stop offset="1" stop-color="#00ab25"/></linearGradient><linearGradient x1="209.73032" y1="208.90999" x2="203.04657" y2="211.43565" gradientUnits="userSpaceOnUse" id="color-7"><stop offset="0" stop-color="#ff0000"/><stop offset="1" stop-color="#00ab25"/></linearGradient></defs><g transform="translate(-168.25,-84.25)"><g data-paper-data="{&quot;isPaintingLayer&quot;:true}" fill-rule="nonzero" stroke-linejoin="miter" stroke-miterlimit="10" stroke-dasharray="" stroke-dashoffset="0" style="mix-blend-mode: normal"><path d="M172.5,272.16667c0,0 -4,-5.34526 -4,-10.89999c0,-16.66422 0,-97.96444 0,-160.66667c0,-6.28323 4.33334,-11.76667 4.33334,-11.76667c0,0 5.11759,-4.33334 11.16666,-4.33334c44.09971,0 96.02357,0 113,0c5.65881,0 11.16666,5.33334 11.16666,5.33334c0,0 3.33334,4.28019 3.33334,10.43334c0,62.31197 0,141.44139 0,159.66666c0,6.07509 -2.66667,10.9 -2.66667,10.9c0,0 -6.17452,4.66666 -11.83333,4.66666c-16.97643,0 -69.10355,0 -113.33334,0c-5.91898,0 -11.16666,-3.33333 -11.16666,-3.33333z" fill="#ffffff" stroke="#000000" stroke-width="0.5" stroke-linecap="butt"/><text transform="translate(181.59377,115.57995) scale(0.5,0.5)" font-size="40" xml:space="preserve" fill="#ff0000" fill-rule="nonzero" stroke="none" stroke-width="1" stroke-linecap="butt" stroke-linejoin="miter" stroke-miterlimit="10" stroke-dasharray="" stroke-dashoffset="0" font-family="Serif" font-weight="normal" text-anchor="start" style="mix-blend-mode: normal"><tspan x="0" dy="0">Q</tspan></text><text transform="translate(298.23251,248.32155) rotate(-180) scale(0.5,0.5)" font-size="40" xml:space="preserve" data-paper-data="{&quot;origRot&quot;:-45}" fill="#ff0000" fill-rule="nonzero" stroke="none" stroke-width="1" stroke-linecap="butt" stroke-linejoin="miter" stroke-miterlimit="10" stroke-dasharray="" stroke-dashoffset="0" font-family="Serif" font-weight="normal" text-anchor="start" style="mix-blend-mode: normal"><tspan x="0" dy="0">Q</tspan></text><path d="M181.85482,128.27436c0,0 -3.96298,-4.43397 0.21349,-6.7756c3.48333,-2.32165 6.42655,2.92795 6.42655,2.92795c0,0 3.08613,-5.38656 6.28693,-2.92795c3.97679,2.72809 0.42292,6.91522 0.42292,6.91522l-6.64004,7.0589l0.06981,-0.06981z" data-paper-data="{&quot;origRot&quot;:0}" fill="#ff0000" stroke="#000000" stroke-width="0.5" stroke-linecap="butt"/><path d="M296.8755,234.05052c0,0 3.96298,4.43397 -0.21349,6.7756c-3.48333,2.32164 -6.42655,-2.92795 -6.42655,-2.92795c0,0 -3.08614,5.38656 -6.28694,2.92795c-3.97679,-2.72809 -0.42292,-6.91522 -0.42292,-6.91522l6.64004,-7.0589l-0.06981,0.06981z" data-paper-data="{&quot;origRot&quot;:0}" fill="#ff0000" stroke="#000000" stroke-width="0.5" stroke-linecap="butt"/><g stroke="none" stroke-width="0" stroke-linecap="butt"><path d="M202.29996,180c0,-23.61017 17.15879,-42.75 38.32523,-42.75c21.16645,0 38.32523,19.13983 38.32523,42.75c0,23.61018 -17.15878,42.75 -38.32523,42.75c-21.16644,0 -38.32523,-19.13983 -38.32523,-42.75z" fill="#b60000"/><path d="M213.05789,180c0,-16.98275 12.34229,-30.75 27.56727,-30.75c15.22498,0 27.56727,13.76725 27.56727,30.75c0,16.98275 -12.34229,30.75 -27.56727,30.75c-15.22498,0 -27.56727,-13.76725 -27.56727,-30.75z" fill="url(#color-1)"/><path d="M226.72946,180c0,-8.56042 6.22131,-15.5 13.8957,-15.5c7.67439,0 13.8957,6.93958 13.8957,15.5c0,8.56042 -6.22131,15.5 -13.8957,15.5c-7.67439,0 -13.8957,-6.93958 -13.8957,-15.5z" fill="#b60000"/></g><g><path d="M237.51845,137.08279l-1.66071,-24.85714h23.5c0,0 9.6595,15.95708 5,16.5c-6.91235,0.80543 -6.41276,7.32129 -5.62774,10.81117c0.29387,1.30644 -0.15104,2.18883 -1.37277,2.18883c-3.30792,0 -6.1131,-0.875 -9.24949,-0.875c-3.23298,0 -10.58929,-3.76786 -10.58929,-3.76786z" fill="#ffb89a" stroke="#000000" stroke-width="0.5" stroke-linecap="butt"/><path d="M203.12703,153.89312c0,0 6.85095,-5.04285 9.27289,-10.33289c1.44816,-3.16309 -1.89953,-5.77208 -0.3167,-9.22933c2.21997,-4.84889 7.30327,-7.39926 8.49502,-10.00228c1.94262,-4.2431 1.54879,-11.9355 1.54879,-11.9355h27c0,0 0.51011,7.43845 -1.3755,11.55701c-1.40514,3.06912 -7.09456,6.94336 -9.78784,12.82605c-1.12073,2.4479 2.75788,3.89728 1.72807,6.14659c-2.5669,5.60665 -9.56474,10.97036 -9.56474,10.97036z" fill="#573600" stroke="none" stroke-width="0" stroke-linecap="butt"/><path d="M212.62703,153.89312c0,0 6.85095,-5.04285 9.27289,-10.33289c1.44816,-3.16309 -1.89953,-5.77208 -0.3167,-9.22933c2.21997,-4.84889 7.30327,-7.39926 8.49502,-10.00228c1.94262,-4.2431 1.54879,-11.9355 1.54879,-11.9355h7c0,0 0.51011,7.43845 -1.3755,11.55701c-1.40514,3.06912 -7.09456,6.94336 -9.78784,12.82605c-1.12073,2.4479 2.75788,3.89728 1.72807,6.14659c-2.5669,5.60665 -9.56474,10.97036 -9.56474,10.97036z" fill="#825000" stroke="none" stroke-width="0" stroke-linecap="butt"/><path d="M259.33273,121.32566c0,0.82843 -0.91782,1.5 -2.05,1.5c-1.13218,0 -2.05,-0.67157 -2.05,-1.5c0,-0.82843 0.91782,-1.5 2.05,-1.5c1.13218,0 2.05,0.67157 2.05,1.5z" fill="#000000" stroke="#000000" stroke-width="0.5" stroke-linecap="butt"/><path d="M252.05773,119.45884l3.45,-2.575l3.775,-0.1" fill="none" stroke="#000000" stroke-width="0.5" stroke-linecap="round"/><path d="M258.18272,133.18566c0,0 -1.99736,0.97312 -2.95236,0.96028c-0.90009,-0.01211 -2.87264,-1.66028 -2.87264,-1.66028" fill="none" stroke="#000000" stroke-width="0.5" stroke-linecap="round"/><path d="M260.73223,118.9814c0,0 -0.30535,0.875 -1.17073,1.375c-0.58873,0.34015 -1.82927,0 -1.82927,0" fill="none" stroke="#000000" stroke-width="0.5" stroke-linecap="round"/><path d="M221.94606,112.55003c0,0 5.5426,-6.22235 9.43096,-8.98187c5.69524,-4.04184 13.01891,-4.04184 18.41283,-0.44909c6.85945,4.5689 15.71827,-3.14365 15.71827,-3.14365l-3.59275,12.57461z" fill="#ffe54a" stroke="#000000" stroke-width="1" stroke-linecap="butt"/><path d="M256.20328,107.99729c0,0 -1.41838,-1.55756 0.07641,-2.38012c1.24671,-0.81555 2.30012,1.02852 2.30012,1.02852c0,0 1.10455,-1.89218 2.25014,-1.02852c1.42333,0.95831 0.15136,2.42916 0.15136,2.42916c0,0 -0.76417,0.79733 -1.15447,1.20456c-0.40156,0.41898 -1.22205,1.27507 -1.22205,1.27507l0.02499,-0.02452z" data-paper-data="{&quot;origRot&quot;:0}" fill="#ff0000" stroke="none" stroke-width="0" stroke-linecap="butt"/><path d="M243.78038,139.85234l-5.33334,-4.44047" fill="none" stroke="#000000" stroke-width="0.5" stroke-linecap="round"/></g><g><path d="M245.12278,222.72735l1.66071,24.85714h-23.5c0,0 -9.6595,-15.95708 -5,-16.5c6.91235,-0.80543 6.41276,-7.32129 5.62774,-10.81117c-0.29387,-1.30644 0.15104,-2.18883 1.37277,-2.18883c3.30792,0 6.1131,0.875 9.24949,0.875c3.23298,0 10.58929,3.76786 10.58929,3.76786z" fill="#ffb89a" stroke="#000000" stroke-width="0.5" stroke-linecap="butt"/><path d="M279.70849,206.77878c0,0 -6.85095,5.04285 -9.27289,10.33289c-1.44816,3.16309 1.89953,5.77208 0.3167,9.22933c-2.21997,4.84889 -7.30327,7.39926 -8.49502,10.00228c-1.94262,4.2431 -1.54879,11.9355 -1.54879,11.9355h-27c0,0 -0.51011,-7.43845 1.3755,-11.55701c1.40514,-3.06912 7.09456,-6.94336 9.78784,-12.82605c1.12073,-2.4479 -2.75788,-3.89728 -1.72807,-6.14659c2.5669,-5.60665 9.56474,-10.97036 9.56474,-10.97036z" fill="#573600" stroke="none" stroke-width="0" stroke-linecap="butt"/><path d="M270.20849,206.77878c0,0 -6.85095,5.04285 -9.27289,10.33289c-1.44816,3.16309 1.89953,5.77208 0.3167,9.22933c-2.21997,4.84889 -7.30327,7.39926 -8.49502,10.00228c-1.94262,4.2431 -1.54879,11.9355 -1.54879,11.9355h-7c0,0 -0.51011,-7.43845 1.3755,-11.55701c1.40514,-3.06912 7.09456,-6.94336 9.78784,-12.82605c1.12073,-2.4479 -2.75788,-3.89728 -1.72807,-6.14659c2.5669,-5.60665 9.56474,-10.97036 9.56474,-10.97036z" fill="#825000" stroke="none" stroke-width="0" stroke-linecap="butt"/><path d="M223.3085,238.67878c0,-0.82843 0.91782,-1.5 2.05,-1.5c1.13218,0 2.05,0.67157 2.05,1.5c0,0.82843 -0.91782,1.5 -2.05,1.5c-1.13218,0 -2.05,-0.67157 -2.05,-1.5z" fill="#000000" stroke="#000000" stroke-width="0.5" stroke-linecap="butt"/><path d="M230.5835,241.01878l-3.45,2.575l-3.775,0.1" fill="none" stroke="#000000" stroke-width="0.5" stroke-linecap="round"/><path d="M224.4585,226.81878c0,0 1.99736,-0.97312 2.95236,-0.96028c0.90009,0.01211 2.87264,1.66028 2.87264,1.66028" fill="none" stroke="#000000" stroke-width="0.5" stroke-linecap="round"/><path d="M221.909,241.49622c0,0 0.30535,-0.875 1.17073,-1.375c0.58873,-0.34015 1.82927,0 1.82927,0" fill="none" stroke="#000000" stroke-width="0.5" stroke-linecap="round"/><path d="M260.69516,247.73329c0,0 -5.5426,6.22235 -9.43096,8.98187c-5.69524,4.04184 -13.01891,4.04184 -18.41283,0.44909c-6.85945,-4.5689 -15.71827,3.14365 -15.71827,3.14365l3.59275,-12.57461z" fill="#ffe54a" stroke="#000000" stroke-width="1" stroke-linecap="butt"/><path d="M226.43794,252.28602c0,0 1.41838,1.55756 -0.07641,2.38012c-1.24671,0.81555 -2.30012,-1.02852 -2.30012,-1.02852c0,0 -1.10455,1.89218 -2.25014,1.02852c-1.42333,-0.95831 -0.15136,-2.42916 -0.15136,-2.42916c0,0 0.76417,-0.79733 1.15447,-1.20456c0.40156,-0.41898 1.22205,-1.27507 1.22205,-1.27507l-0.02499,0.02452z" data-paper-data="{&quot;origRot&quot;:0}" fill="#ff0000" stroke="none" stroke-width="0" stroke-linecap="butt"/><path d="M239.05514,220.34637l5.33333,4.44047" fill="none" stroke="#000000" stroke-width="0.5" stroke-linecap="round"/></g><g stroke-linecap="butt"><g><path d="M278.64182,148.50723c0,-0.00641 0.00012,-0.0128 0.00036,-0.01916c0.00004,-0.14826 0.05443,-0.35074 0.32215,-0.44843c0.0126,-0.00479 0.02544,-0.00908 0.03851,-0.01285c0.2729,-0.0827 0.43798,0.04654 0.52706,0.16513c0.00177,0.00217 0.00351,0.00436 0.00524,0.00656l0.36075,0.45094l-0.14181,0.11345l0.0439,0.1317l-0.04162,0.01387c0.20454,1.16496 -0.07523,2.37758 0.00636,3.57304l0.09455,0.1891c0.03658,0.06948 0.05728,0.14862 0.05728,0.2326c0,0.08845 -0.02297,0.17154 -0.06326,0.24362c0.03286,0.15892 0.07502,0.31731 0.12852,0.47503c0.0303,0.09091 0.06061,0.18182 0.09091,0.27273l0.11445,0.47579c0,0 0.01522,0.16488 -0.06674,0.31363c0.2932,1.04875 0.55612,2.03247 0.91001,2.66226c1.52659,3.05318 1.88121,6.12907 1.8857,9.53063c0.00131,1.11988 0.00042,2.23976 0.00042,3.35964l-0.01493,0.21207c0,0 0.12127,0.48507 -0.3638,0.60634c-0.48507,0.12127 -0.60634,-0.3638 -0.60634,-0.3638l-0.01493,-0.4546c0,-1.11949 0.00089,-2.23899 -0.00042,-3.35848c-0.00331,-3.29502 -0.31098,-6.1463 -1.78013,-9.08458c-0.17751,-0.49453 -0.67411,-0.69914 -0.88612,-1.22361c-0.63347,-1.5671 -0.38036,-4.7145 -2.05694,-5.55279c0,0 -0.0229,-0.01145 -0.05574,-0.03435l-0.43921,-0.0732l0.00095,-0.00569c-0.29642,0.02678 -0.59915,-0.12915 -1.03646,-0.49334l-0.18182,-0.22727c0,0 -0.10957,0.18765 -0.10957,-0.31235c0,-0.37476 0.50023,-0.36321 0.75083,-0.33391c0.06436,-0.20177 0.25334,-0.34791 0.47645,-0.34791c0.09704,0 0.18762,0.02764 0.26429,0.07548l0.18651,0.11191c0.2655,-0.14349 0.63357,-0.31839 0.88915,-0.37082l0.30649,-0.30649v0c0.09048,-0.09048 0.21548,-0.14645 0.35355,-0.14645c0.01609,0 0.032,0.00076 0.0477,0.00225c-0.00149,-0.0157 -0.00225,-0.03161 -0.00225,-0.0477zM278.41432,150.19176c0.00706,-0.0056 0.0144,-0.01112 0.02201,-0.01657c-0.00361,-0.03607 -0.0076,-0.07209 -0.01202,-0.10804c-0.00787,0.0138 -0.01582,0.02757 -0.02388,0.04128c0.00463,0.02777 0.00926,0.05555 0.01389,0.08332z" fill="#00ab25" stroke="none" stroke-width="0.5"/><path d="M281.05332,154.90044c0.90826,-1.38775 2.76954,-1.77644 4.15728,-0.86819c1.38775,0.90826 1.77644,2.76954 0.86819,4.15728c-0.90826,1.38775 -2.76954,1.77644 -4.15728,0.86819c-1.38775,-0.90826 -1.77644,-2.76954 -0.86819,-4.15728z" fill="#00ab25" stroke="none" stroke-width="0"/><path d="M280.7806,155.09389l7.07385,-5.10805l0.08854,0.05795l-1.9386,8.469z" fill="#00ab25" stroke="none" stroke-width="0"/><path d="M287.62225,173.60247c0,5.00726 -2.30021,9.06646 -5.13766,9.06646c-2.83745,0 -5.13765,-4.05919 -5.13765,-9.06646c0,-1.42074 -0.60856,-3.57991 -0.03274,-7.23416c0.45374,-2.87945 4.18062,-4.05039 4.58501,-3.31596c1.45687,2.64585 -1.87372,4.667 -0.47573,6.61237c1.65584,2.30419 6.19877,-1.06951 6.19877,3.93775z" fill="#ffb89a" stroke="#000000" stroke-width="0.5"/><g stroke="#000000" stroke-width="0.5"><path d="M279.95865,144.43105c0,0 1.34272,-2.57825 3.13511,-1.07313c1.66348,1.19163 -0.22839,3.44452 -0.22839,3.44452c0,0 2.99631,0.48042 2.42515,2.36884c-0.5603,2.28982 -3.08898,1.38827 -3.08898,1.38827l-4.37509,-1.81653l0.04399,0.01986z" data-paper-data="{&quot;origRot&quot;:0}" fill="url(#color-2)"/><path d="M273.65178,146.55592c0,0 -2.57826,-1.34272 -1.07313,-3.13511c1.19163,-1.66348 3.44453,0.2284 3.44453,0.2284c0,0 0.48043,-2.99632 2.36885,-2.42516c2.28981,0.5603 1.38826,3.08899 1.38826,3.08899l-1.81653,4.37509l0.01986,-0.04399z" data-paper-data="{&quot;origRot&quot;:0}" fill="url(#color-3)"/><path d="M275.99145,152.95978c0,0 -1.34272,2.57825 -3.1351,1.07313c-1.66348,-1.19163 0.2284,-3.44452 0.2284,-3.44452c0,0 -2.99631,-0.48042 -2.42515,-2.36884c0.5603,-2.28982 3.08898,-1.38826 3.08898,-1.38826l4.37509,1.81652l-0.04399,-0.01986z" data-paper-data="{&quot;origRot&quot;:0}" fill="url(#color-4)"/></g></g><g><path d="M202.55505,211.6467c0,0.00641 -0.00012,0.0128 -0.00036,0.01916c-0.00004,0.14826 -0.05443,0.35074 -0.32215,0.44843c-0.0126,0.00479 -0.02544,0.00908 -0.03851,0.01285c-0.2729,0.0827 -0.43798,-0.04654 -0.52706,-0.16513c-0.00177,-0.00217 -0.00351,-0.00436 -0.00524,-0.00656l-0.36075,-0.45094l0.14181,-0.11345l-0.0439,-0.1317l0.04162,-0.01387c-0.20454,-1.16496 0.07523,-2.37758 -0.00636,-3.57304l-0.09455,-0.1891c-0.03658,-0.06948 -0.05728,-0.14862 -0.05728,-0.2326c0,-0.08845 0.02297,-0.17154 0.06326,-0.24362c-0.03286,-0.15892 -0.07502,-0.31731 -0.12852,-0.47503c-0.0303,-0.09091 -0.06061,-0.18182 -0.09091,-0.27273l-0.11445,-0.47579c0,0 -0.01522,-0.16488 0.06674,-0.31363c-0.2932,-1.04875 -0.55612,-2.03247 -0.91001,-2.66226c-1.52659,-3.05318 -1.88121,-6.12907 -1.8857,-9.53063c-0.00131,-1.11988 -0.00042,-2.23976 -0.00042,-3.35964l0.01493,-0.21207c0,0 -0.12127,-0.48507 0.3638,-0.60634c0.48507,-0.12127 0.60634,0.3638 0.60634,0.3638l0.01493,0.4546c0,1.11949 -0.00089,2.23899 0.00042,3.35848c0.00331,3.29502 0.31098,6.1463 1.78013,9.08458c0.17751,0.49453 0.67411,0.69914 0.88612,1.22361c0.63347,1.5671 0.38036,4.7145 2.05694,5.55279c0,0 0.0229,0.01145 0.05574,0.03435l0.43921,0.0732l-0.00095,0.00569c0.29642,-0.02678 0.59915,0.12915 1.03646,0.49334l0.18182,0.22727c0,0 0.10957,-0.18765 0.10957,0.31235c0,0.37476 -0.50023,0.36321 -0.75083,0.33391c-0.06436,0.20177 -0.25334,0.34791 -0.47645,0.34791c-0.09704,0 -0.18762,-0.02764 -0.26429,-0.07548l-0.18651,-0.11191c-0.2655,0.14349 -0.63357,0.31839 -0.88915,0.37082l-0.30649,0.30649v0c-0.09048,0.09048 -0.21548,0.14645 -0.35355,0.14645c-0.01609,0 -0.032,-0.00076 -0.0477,-0.00225c0.00149,0.0157 0.00225,0.03161 0.00225,0.0477zM202.78255,209.96217c-0.00706,0.0056 -0.0144,0.01112 -0.02201,0.01657c0.00361,0.03607 0.0076,0.07209 0.01202,0.10804c0.00787,-0.0138 0.01582,-0.02757 0.02388,-0.04128c-0.00463,-0.02777 -0.00926,-0.05555 -0.01389,-0.08332z" fill="#00ab25" stroke="none" stroke-width="0.5"/><path d="M200.14355,205.25349c-0.90826,1.38775 -2.76954,1.77644 -4.15728,0.86819c-1.38775,-0.90826 -1.77644,-2.76954 -0.86819,-4.15728c0.90826,-1.38775 2.76954,-1.77644 4.15728,-0.86819c1.38775,0.90826 1.77644,2.76954 0.86819,4.15728z" fill="#00ab25" stroke="none" stroke-width="0"/><path d="M200.41626,205.06004l-7.07385,5.10805l-0.08854,-0.05795l1.9386,-8.469z" fill="#00ab25" stroke="none" stroke-width="0"/><path d="M193.57462,186.55146c0,-5.00726 2.30021,-9.06646 5.13766,-9.06646c2.83745,0 5.13765,4.05919 5.13765,9.06646c0,1.42074 0.60856,3.57991 0.03274,7.23416c-0.45374,2.87945 -4.18062,4.05039 -4.58501,3.31596c-1.45687,-2.64585 1.87372,-4.667 0.47573,-6.61237c-1.65584,-2.30419 -6.19877,1.06951 -6.19877,-3.93775z" fill="#ffb89a" stroke="#000000" stroke-width="0.5"/><g stroke="#000000" stroke-width="0.5"><path d="M201.23822,215.72287c0,0 -1.34272,2.57825 -3.1351,1.07313c-1.66348,-1.19163 0.2284,-3.44452 0.2284,-3.44452c0,0 -2.99632,-0.48042 -2.42516,-2.36884c0.5603,-2.28982 3.08899,-1.38826 3.08899,-1.38826l4.37508,1.81652l-0.04398,-0.01986z" data-paper-data="{&quot;origRot&quot;:0}" fill="url(#color-5)"/><path d="M207.54509,213.59801c0,0 2.57826,1.34272 1.07313,3.13511c-1.19163,1.66348 -3.44453,-0.2284 -3.44453,-0.2284c0,0 -0.48042,2.99632 -2.36884,2.42516c-2.28982,-0.5603 -1.38826,-3.08899 -1.38826,-3.08899l1.81652,-4.37509l-0.01986,0.04398z" data-paper-data="{&quot;origRot&quot;:0}" fill="url(#color-6)"/><path d="M205.20541,207.19415c0,0 1.34272,-2.57825 3.1351,-1.07313c1.66348,1.19163 -0.2284,3.44452 -0.2284,3.44452c0,0 2.99632,0.48042 2.42516,2.36884c-0.5603,2.28982 -3.08899,1.38827 -3.08899,1.38827l-4.37509,-1.81653l0.04399,0.01986z" data-paper-data="{&quot;origRot&quot;:0}" fill="url(#color-7)"/></g></g></g></g></g></svg>