<svg version="1.1" xmlns="http://www.w3.org/2000/svg" xmlns:xlink="http://www.w3.org/1999/xlink" width="143.5" height="191.5"><g transform="translate(-168.32143,-84.17857)"><g data-paper-data="{&quot;isPaintingLayer&quot;:true}" fill-rule="nonzero" stroke-linecap="butt" stroke-linejoin="miter" stroke-miterlimit="10" stroke-dasharray="" stroke-dashoffset="0" style="mix-blend-mode: normal"><path d="M172.57143,272.09524c0,0 -4,-5.34526 -4,-10.89999c0,-16.66422 0,-97.96444 0,-160.66667c0,-6.28323 4.33334,-11.76667 4.33334,-11.76667c0,0 5.11759,-4.33334 11.16666,-4.33334c44.09971,0 96.02357,0 113,0c5.65881,0 11.16666,5.33334 11.16666,5.33334c0,0 3.33334,4.28019 3.33334,10.43334c0,62.31197 0,141.44139 0,159.66666c0,6.07509 -2.66667,10.9 -2.66667,10.9c0,0 -6.17452,4.66666 -11.83333,4.66666c-16.97643,0 -69.10355,0 -113.33334,0c-5.91898,0 -11.16666,-3.33333 -11.16666,-3.33333z" data-paper-data="{&quot;origPos&quot;:null}" fill="#ffffff" stroke="#000000" stroke-width="0.5"/><g data-paper-data="{&quot;origPos&quot;:null}" fill="#000000" stroke="none" stroke-width="0"><path d="M206.17406,108.36121l16.18817,16.77898l-16.77896,16.18815l-16.18817,-16.77896z" data-paper-data="{&quot;origRot&quot;:0,&quot;origPos&quot;:null}"/><path d="M225.76439,133.1606c0.19642,6.28887 -4.7425,11.54623 -11.03137,11.74265c-6.28887,0.19642 -11.54625,-4.7425 -11.74265,-11.03137c-0.19642,-6.28887 4.74251,-11.54625 11.03139,-11.74265c6.28887,-0.19642 11.54623,4.74251 11.74265,11.03139z" data-paper-data="{&quot;origPos&quot;:null}"/><path d="M208.14002,132.98785c0.19642,6.28887 -4.74251,11.54623 -11.03139,11.74265c-6.28887,0.1964 -11.54623,-4.7425 -11.74265,-11.03139c-0.19642,-6.28887 4.7425,-11.54625 11.03137,-11.74265c6.28887,-0.1964 11.54625,4.74251 11.74266,11.03139z" data-paper-data="{&quot;origPos&quot;:null}"/><path d="M200.40475,148.7686c0,0 2.53726,-1.46711 2.53726,-1.85116c0,-1.15214 0,-11.78137 0,-11.78137h4.79788c0,0 0,10.36335 0,11.78137c0,0.47269 2.27507,1.88213 2.27507,1.88213z" data-paper-data="{&quot;origPos&quot;:null}"/></g><text transform="translate(225.91321,225.55001) scale(2.7431,2.34182)" font-size="40" xml:space="preserve" data-paper-data="{&quot;origPos&quot;:null}" fill="#000000" fill-rule="nonzero" stroke="none" stroke-width="1" stroke-linecap="butt" stroke-linejoin="miter" stroke-miterlimit="10" stroke-dasharray="" stroke-dashoffset="0" font-family="Serif" font-weight="normal" text-anchor="start" style="mix-blend-mode: normal"><tspan x="0" dy="0">8</tspan></text></g></g></svg>