<svg version="1.1" xmlns="http://www.w3.org/2000/svg" xmlns:xlink="http://www.w3.org/1999/xlink" width="143.5" height="191.5" viewBox="0,0,143.5,191.5"><defs><radialGradient cx="240.85375" cy="180" r="30.75" gradientUnits="userSpaceOnUse" id="color-1"><stop offset="0" stop-color="#000000"/><stop offset="1" stop-color="#ffffff"/></radialGradient></defs><g transform="translate(-168.25,-84.25)"><g data-paper-data="{&quot;isPaintingLayer&quot;:true}" fill-rule="nonzero" stroke-linejoin="miter" stroke-miterlimit="10" stroke-dasharray="" stroke-dashoffset="0" style="mix-blend-mode: normal"><path d="M172.5,272.16667c0,0 -4,-5.34526 -4,-10.89999c0,-16.66422 0,-97.96444 0,-160.66667c0,-6.28323 4.33334,-11.76667 4.33334,-11.76667c0,0 5.11759,-4.33334 11.16666,-4.33334c44.09971,0 96.02357,0 113,0c5.65881,0 11.16666,5.33334 11.16666,5.33334c0,0 3.33334,4.28019 3.33334,10.43334c0,62.31197 0,141.44139 0,159.66666c0,6.07509 -2.66667,10.9 -2.66667,10.9c0,0 -6.17452,4.66666 -11.83333,4.66666c-16.97643,0 -69.10355,0 -113.33334,0c-5.91898,0 -11.16666,-3.33333 -11.16666,-3.33333z" fill="#ffffff" stroke="#000000" stroke-width="0.5" stroke-linecap="butt"/><text transform="translate(181.47185,115.70191) scale(0.5,0.5)" font-size="40" xml:space="preserve" fill="#000000" fill-rule="nonzero" stroke="none" stroke-width="1" stroke-linecap="butt" stroke-linejoin="miter" stroke-miterlimit="10" stroke-dasharray="" stroke-dashoffset="0" font-family="Serif" font-weight="normal" text-anchor="start" style="mix-blend-mode: normal"><tspan x="0" dy="0">K</tspan></text><text transform="translate(298.23251,248.32155) rotate(-180) scale(0.5,0.5)" font-size="40" xml:space="preserve" data-paper-data="{&quot;origRot&quot;:-45}" fill="#000000" fill-rule="nonzero" stroke="none" stroke-width="1" stroke-linecap="butt" stroke-linejoin="miter" stroke-miterlimit="10" stroke-dasharray="" stroke-dashoffset="0" font-family="Serif" font-weight="normal" text-anchor="start" style="mix-blend-mode: normal"><tspan x="0" dy="0">K</tspan></text><g fill="#000000" stroke="#000000" stroke-linecap="butt"><path d="M195.29961,128.05446c0,0 3.96298,4.43397 -0.21349,6.7756c-3.48333,2.32165 -6.42655,-2.92795 -6.42655,-2.92795c0,0 -3.08613,5.38656 -6.28693,2.92795c-3.97679,-2.72809 -0.42292,-6.91522 -0.42292,-6.91522l6.64004,-7.0589l-0.06981,0.06981z" data-paper-data="{&quot;origRot&quot;:0}" stroke-width="1.5"/><path d="M185.16321,137.94299l1.68521,-4.15409c0,0 1.02125,-8.64654 1.58939,-12.83275c0.02709,-0.19959 -0.01956,-0.10685 0.00645,0.09289c0.42605,3.27208 1.67842,12.616 1.67842,12.616l2.09131,4.20815z" stroke-width="0.5"/></g><g data-paper-data="{&quot;origRot&quot;:0}" fill="#000000" stroke="#000000" stroke-linecap="butt"><path d="M283.7641,234.27041c0,0 -3.96298,-4.43397 0.21349,-6.7756c3.48333,-2.32164 6.42655,2.92795 6.42655,2.92795c0,0 3.08614,-5.38656 6.28694,-2.92795c3.97679,2.72809 0.42292,6.91522 0.42292,6.91522l-6.64004,7.0589l0.06981,-0.06981z" data-paper-data="{&quot;origRot&quot;:0}" stroke-width="1.5"/><path d="M293.90047,224.38188l-1.68521,4.15409c0,0 -1.02125,8.64654 -1.58939,12.83275c-0.02709,0.19959 0.01955,0.10686 -0.00646,-0.09288c-0.42606,-3.27208 -1.67842,-12.616 -1.67842,-12.616l-2.0913,-4.20815z" stroke-width="0.5"/></g><g stroke="none" stroke-width="0" stroke-linecap="butt"><path d="M197.60375,180c0,-23.61017 19.13983,-42.75 42.75,-42.75c23.61018,0 42.75,19.13983 42.75,42.75c0,23.61018 -19.13982,42.75 -42.75,42.75c-23.61017,0 -42.75,-19.13983 -42.75,-42.75z" fill="#02005e"/><path d="M210.10375,180c0,-16.98275 13.76725,-30.75 30.75,-30.75c16.98275,0 30.75,13.76725 30.75,30.75c0,16.98275 -13.76725,30.75 -30.75,30.75c-16.98275,0 -30.75,-13.76725 -30.75,-30.75z" fill="url(#color-1)"/><path d="M224.85372,180c0,-8.56042 6.93958,-15.5 15.5,-15.5c8.56042,0 15.5,6.93958 15.5,15.5c0,8.56042 -6.93958,15.5 -15.5,15.5c-8.56042,0 -15.5,-6.93958 -15.5,-15.5z" fill="#02005e"/></g><g><path d="M249.59882,228.33859l-0.5,22.5h-23.5c0,0 -9.6595,-15.95708 -5,-16.5c9.5,-1.10694 5,-13 5,-13c0,0 10.70524,0 15,0c3.23298,0 9,7 9,7z" fill="#ffb89a" stroke="#000000" stroke-width="0.5" stroke-linecap="butt"/><path d="M281.89879,209.83859c0,0 -6.85095,5.04285 -9.27289,10.33289c-1.44816,3.16309 1.89953,5.77208 0.3167,9.22933c-2.21997,4.84889 -7.30327,7.39926 -8.49502,10.00228c-1.94262,4.2431 -1.54879,11.9355 -1.54879,11.9355h-27c0,0 -0.51011,-7.43845 1.3755,-11.55701c1.40514,-3.06912 7.09456,-6.94336 9.78784,-12.82605c1.12073,-2.4479 -2.75788,-3.89728 -1.72807,-6.14659c2.5669,-5.60665 9.56474,-10.97036 9.56474,-10.97036z" fill="#cf8000" stroke="none" stroke-width="0" stroke-linecap="butt"/><path d="M272.39879,209.83859c0,0 -6.85095,5.04285 -9.27289,10.33289c-1.44816,3.16309 1.89953,5.77208 0.3167,9.22933c-2.21997,4.84889 -7.30327,7.39926 -8.49502,10.00228c-1.94262,4.2431 -1.54879,11.9355 -1.54879,11.9355h-7c0,0 -0.51011,-7.43845 1.3755,-11.55701c1.40514,-3.06912 7.09456,-6.94336 9.78784,-12.82605c1.12073,-2.4479 -2.75788,-3.89728 -1.72807,-6.14659c2.5669,-5.60665 9.56474,-10.97036 9.56474,-10.97036z" fill="#825000" stroke="none" stroke-width="0" stroke-linecap="butt"/><path d="M225.49882,241.73859c0,-0.82843 0.91782,-1.5 2.05,-1.5c1.13218,0 2.05,0.67157 2.05,1.5c0,0.82843 -0.91782,1.5 -2.05,1.5c-1.13218,0 -2.05,-0.67157 -2.05,-1.5z" fill="#000000" stroke="#000000" stroke-width="0.5" stroke-linecap="butt"/><path d="M224.0488,243.87859l5.4,1.4l2.2,0.8" fill="none" stroke="#000000" stroke-width="0.5" stroke-linecap="round"/><path d="M230.84882,228.07859l-4.2,1.8" fill="none" stroke="#000000" stroke-width="0.5" stroke-linecap="round"/><path d="M233.67897,229.67393c0.2237,0.33491 -0.61967,-0.10107 -1.84824,0.83702c-1.45453,1.39044 -2.24911,3.4166 -2.53221,3.6575c-1.74857,1.48795 -2.57289,-0.80412 -3.33541,-1.82082c0,0 -0.45,-0.6 0.15,-1.05c0.6,-0.45 1.05,0.15 1.05,0.15c0.76348,1.01797 0.88558,2.13349 1.06459,1.57918c0.36318,-1.12458 2.37107,-3.3937 3.52494,-3.85202c0.13333,-0.03334 1.50975,-0.12453 1.92633,0.49914z" fill="#000000" stroke="none" stroke-width="0.5" stroke-linecap="butt"/><path d="M262.61619,250.70312l2.24547,12.57461c0,0 -7.78807,-6.35226 -11.67643,-3.59274c-5.69524,4.04184 -13.01891,4.04184 -18.41283,0.44909c-6.85945,-4.5689 -15.71827,3.14365 -15.71827,3.14365l3.59275,-12.57461z" fill="#ffe54a" stroke="#000000" stroke-width="1" stroke-linecap="butt"/><path d="M240.95342,257.88524c0,0 -1.41838,-1.55756 0.07641,-2.38012c1.24671,-0.81554 2.30011,1.02853 2.30011,1.02853c0,0 1.10455,-1.89218 2.25014,-1.02852c1.42333,0.95831 0.15136,2.42916 0.15136,2.42916l-2.37652,2.47963l0.02499,-0.02452z" data-paper-data="{&quot;origRot&quot;:0}" fill="#000000" stroke="none" stroke-width="0" stroke-linecap="butt"/><path d="M244.5813,254.41162l-0.60315,1.45924c0,0 -0.36551,3.03733 -0.56885,4.50786c-0.0097,0.07011 0.007,0.03754 -0.00231,-0.03263c-0.15249,-1.14941 -0.60072,-4.43172 -0.60072,-4.43172l-0.74849,-1.47823z" fill="#000000" stroke="none" stroke-width="0" stroke-linecap="butt"/></g><g><path d="M238.18746,133.7078l0.5,-22.5h23.5c0,0 9.6595,15.95708 5,16.5c-9.5,1.10694 -5,13 -5,13c0,0 -10.70524,0 -15,0c-3.23298,0 -9,-7 -9,-7z" fill="#ffb89a" stroke="#000000" stroke-width="0.5" stroke-linecap="butt"/><path d="M205.88747,152.44439c0,0 6.85095,-5.04285 9.27289,-10.33289c1.44816,-3.16309 -1.89953,-5.77208 -0.3167,-9.22933c2.21997,-4.84889 7.30327,-7.39926 8.49502,-10.00228c1.94262,-4.2431 1.54879,-11.9355 1.54879,-11.9355h27c0,0 0.51011,7.43845 -1.3755,11.55701c-1.40514,3.06912 -7.09456,6.94336 -9.78784,12.82605c-1.12073,2.4479 2.75788,3.89728 1.72807,6.14659c-2.5669,5.60665 -9.56474,10.97036 -9.56474,10.97036z" fill="#cf8000" stroke="none" stroke-width="0" stroke-linecap="butt"/><path d="M215.38747,152.2078c0,0 6.85095,-5.04285 9.27289,-10.33289c1.44816,-3.16309 -1.89953,-5.77208 -0.3167,-9.22933c2.21997,-4.84889 7.30327,-7.39926 8.49502,-10.00228c1.94262,-4.2431 1.54879,-11.9355 1.54879,-11.9355h7c0,0 0.51011,7.43845 -1.3755,11.55701c-1.40514,3.06912 -7.09456,6.94336 -9.78784,12.82605c-1.12073,2.4479 2.75788,3.89728 1.72807,6.14659c-2.5669,5.60665 -9.56474,10.97036 -9.56474,10.97036z" fill="#825000" stroke="none" stroke-width="0" stroke-linecap="butt"/><path d="M261.95413,120.3078c0,0.82843 -0.91782,1.5 -2.05,1.5c-1.13218,0 -2.05,-0.67157 -2.05,-1.5c0,-0.82843 0.91782,-1.5 2.05,-1.5c1.13218,0 2.05,0.67157 2.05,1.5z" fill="#000000" stroke="#000000" stroke-width="0.5" stroke-linecap="butt"/><path d="M263.4041,118.1678l-5.4,-1.4l-2.2,-0.8" fill="none" stroke="#000000" stroke-width="0.5" stroke-linecap="round"/><path d="M256.60412,133.9678l4.2,-1.8" fill="none" stroke="#000000" stroke-width="0.5" stroke-linecap="round"/><path d="M253.77398,132.37246c-0.2237,-0.33491 0.61967,0.10107 1.84824,-0.83702c1.45453,-1.39044 2.24911,-3.4166 2.53221,-3.6575c1.74857,-1.48795 2.57289,0.80412 3.33541,1.82082c0,0 0.45,0.6 -0.15,1.05c-0.6,0.45 -1.05,-0.15 -1.05,-0.15c-0.76348,-1.01797 -0.88558,-2.13349 -1.06459,-1.57918c-0.36318,1.12458 -2.37107,3.3937 -3.52494,3.85202c-0.13333,0.03334 -1.50975,0.12453 -1.92633,-0.49914z" fill="#000000" stroke="none" stroke-width="0.5" stroke-linecap="butt"/><path d="M224.83675,111.34327l-2.24547,-12.57461c0,0 7.78808,6.35226 11.67643,3.59274c5.69524,-4.04184 13.01891,-4.04184 18.41284,-0.44909c6.85945,4.56889 15.71827,-3.14365 15.71827,-3.14365l-3.59275,12.57461z" fill="#ffe54a" stroke="#000000" stroke-width="1" stroke-linecap="butt"/><g fill="#000000" stroke="none" stroke-width="0" stroke-linecap="butt"><path d="M246.49952,104.16115c0,0 1.41838,1.55756 -0.07641,2.38012c-1.24671,0.81555 -2.30012,-1.02852 -2.30012,-1.02852c0,0 -1.10455,1.89218 -2.25014,1.02852c-1.42333,-0.95831 -0.15136,-2.42916 -0.15136,-2.42916l2.37652,-2.47963l-0.02499,0.02452z" data-paper-data="{&quot;origRot&quot;:0}"/><path d="M242.87163,107.63477l0.60315,-1.45924c0,0 0.36551,-3.03733 0.56885,-4.50786c0.00969,-0.07011 -0.007,-0.03754 0.00231,0.03263c0.15249,1.14941 0.60072,4.43172 0.60072,4.43172l0.7485,1.47823z"/></g></g><g stroke-linecap="butt"><g><g stroke="#000000" stroke-width="0.5"><path d="M283.06343,161.16805c0,0 0,-25.02751 0,-31.52124c0,-2.90408 3.36019,-6.30425 3.36019,-6.30425v37.82549z" fill="#d0d0d0"/><path d="M286.29492,161.23957v-37.82549c0,0 3.36019,3.40017 3.36019,6.30425c0,6.49373 0,31.52124 0,31.52124z" data-paper-data="{&quot;index&quot;:null}" fill="#dedede"/><path d="M278.99584,164.32018v-2.88944h14.325v2.88944z" fill="#dedede"/><path d="M283.59398,176.92867v-12.6085h5.48241v12.6085z" fill="#b06c00"/></g><path d="M289.82522,174.7325c0,5.00726 -2.30021,9.06646 -5.13766,9.06646c-2.83745,0 -5.13765,-4.05919 -5.13765,-9.06646c0,-1.42074 -0.60856,-3.57991 -0.03274,-7.23416c0.45374,-2.87945 4.18062,-4.05039 4.58501,-3.31596c1.45687,2.64585 -1.87372,4.667 -0.47573,6.61237c1.65584,2.30419 6.19877,-1.06951 6.19877,3.93775z" fill="#ffb89a" stroke="#000000" stroke-width="0.5"/><g fill="#000000" stroke="none" stroke-width="0"><path d="M287.67354,167.44651c0,0 0.78166,0.85835 -0.04211,1.31166c-0.68705,0.44944 -1.26758,-0.56681 -1.26758,-0.56681c0,0 -0.6087,1.04277 -1.24003,0.56681c-0.78438,-0.52812 -0.08342,-1.33868 -0.08342,-1.33868l1.30968,-1.3665l-0.01378,0.01351z" data-paper-data="{&quot;origRot&quot;:0}"/><path d="M285.67424,169.36078l0.3324,-0.80417c0,0 0.20142,-1.67384 0.31348,-2.48424c0.00534,-0.03863 -0.00385,-0.02069 0.00128,0.01798c0.08403,0.63343 0.33105,2.44228 0.33105,2.44228l0.41249,0.81464z"/></g></g><g data-paper-data="{&quot;index&quot;:null}"><g stroke="#000000" stroke-width="0.5"><path d="M197.45325,200.77347c0,0 0,25.02751 0,31.52124c0,2.90409 -3.36019,6.30425 -3.36019,6.30425v-37.82549z" fill="#d0d0d0"/><path d="M194.22177,200.70195v37.8255c0,0 -3.36019,-3.40017 -3.36019,-6.30425c0,-6.49373 0,-31.52124 0,-31.52124z" data-paper-data="{&quot;index&quot;:null}" fill="#dedede"/><path d="M201.52084,197.62134v2.88944h-14.325v-2.88944z" fill="#dedede"/><path d="M196.9227,185.01285v12.6085h-5.48241v-12.6085z" fill="#b06c00"/></g><path d="M190.69147,187.20902c0,-5.00726 2.30021,-9.06645 5.13766,-9.06645c2.83745,0 5.13765,4.05919 5.13765,9.06645c0,1.42074 0.60856,3.57991 0.03274,7.23417c-0.45374,2.87945 -4.18062,4.05039 -4.58501,3.31595c-1.45687,-2.64585 1.87371,-4.667 0.47573,-6.61237c-1.65584,-2.30419 -6.19877,1.06951 -6.19877,-3.93775z" fill="#ffb89a" stroke="#000000" stroke-width="0.5"/><g fill="#000000" stroke="none" stroke-width="0"><path d="M192.84314,194.49501c0,0 -0.78166,-0.85836 0.04211,-1.31166c0.68705,-0.44944 1.26757,0.56681 1.26757,0.56681c0,0 0.6087,-1.04277 1.24003,-0.56681c0.78438,0.52812 0.08342,1.33868 0.08342,1.33868l-1.30968,1.36651l0.01377,-0.01352z" data-paper-data="{&quot;origRot&quot;:0}"/><path d="M194.84244,192.58074l-0.3324,0.80417c0,0 -0.20142,1.67385 -0.31348,2.48424c-0.00534,0.03863 0.00386,0.02069 -0.00127,-0.01798c-0.08404,-0.63343 -0.33105,-2.44228 -0.33105,-2.44228l-0.41249,-0.81464z"/></g></g></g></g></g></svg>